<svg width="260" height="33" viewBox="0 0 260 33" fill="none" xmlns="http://www.w3.org/2000/svg">
<path fill-rule="evenodd" clip-rule="evenodd" d="M38.9331 0.375343H45.2013L38.1742 32.4377H26.7785L28.2978 26.0626H18.6122L12.7242 32.4377H0L21.6509 8.99959C21.6509 8.99959 30.008 0.375343 38.9331 0.375343ZM32.8558 9.74883L19.1818 25.5003C24.4987 25.3119 28.678 24.3743 32.0954 23.4381C37.794 21.5614 40.6418 19.3136 41.022 18.9368H30.5761L32.8558 9.74883ZM53.7478 32.8116C49.9487 32.8116 46.91 32.0609 44.6303 29.4364C42.3505 27.0003 41.7824 23.8105 42.5414 20.4368C44.0607 13.124 50.897 7.87355 59.254 7.87355C65.901 7.87355 70.8392 11.6241 70.0802 17.9977L60.584 18.1861V17.8123C60.584 16.1239 60.584 14.2486 58.1164 14.2486C54.8869 14.2486 53.9371 18.1861 53.5584 20.2484C52.9888 22.6874 52.2284 26.2496 55.6473 26.2496C57.927 26.2496 59.2555 24.3728 59.8266 22.6874L68.9426 22.8729C66.6614 29.248 60.7734 32.8116 53.7478 32.8116ZM88.5031 0L86.4142 9.18655H91.7326L90.4026 14.9993H85.0857L83.377 23.0613C82.9968 24.7496 82.6166 26.0626 84.8963 26.0626C86.0355 26.0626 86.9852 25.8742 88.1244 25.5003L86.605 32.0609C83.9466 32.6232 80.7171 32.8116 79.3886 32.8116C76.9195 32.8116 74.8306 32.0609 73.5021 30.3755C71.7934 28.4987 72.3615 26.251 72.9325 23.812L74.832 14.9993H71.7934L73.1219 9.18655H76.7301L76.9195 8.62425C79.1992 -2.08926e-06 87.7442 0 87.7442 0H88.5031ZM108.254 24.1859H118.129C115.091 29.9987 108.823 32.6232 102.747 32.6232C98.7582 32.6232 95.15 31.8725 92.6809 29.4364C90.2118 27.1857 89.4514 23.9989 90.2118 20.6252C90.9722 17.4355 93.0611 14.0617 96.0998 11.8111C99.3278 9.37349 103.696 8.2489 107.496 8.2489C116.422 8.2489 120.6 13.1241 118.89 20.9976L118.7 22.1236H100.656C100.087 24.7482 100.656 26.622 103.886 26.622C106.166 26.6249 107.496 25.8742 108.254 24.1859ZM106.355 13.4994C103.696 13.4994 102.177 15.3747 101.797 17.6239H109.204C109.774 15.3747 109.394 13.4994 106.355 13.4994ZM171.118 8.06196L149.086 32.4377H140.16L141.112 19.4991H140.921L132.374 32.4377H124.398L120.6 8.43731H131.426L132.755 20.2484H132.943L140.73 8.43731H149.086L148.516 20.2484L155.164 12.9371C160.863 7.31273 170.358 8.06196 170.358 8.06196H171.118ZM243.096 24.7496L248.226 0.375343C246.137 0.188399 238.54 -4.87494e-06 236.639 8.81265L231.892 32.4377H258.481L260 24.7496H243.096ZM218.978 0.375343C209.102 0.562287 201.316 6.75042 199.225 16.6862C197.136 26.4365 202.262 32.6232 212.139 33C219.735 33 222.206 31.6885 228.664 32.4377L232.082 14.437H216.318C216.318 14.437 215.179 20.2484 214.99 20.6252H221.447L220.308 25.8742C218.789 26.0626 217.649 26.251 216.13 26.251C209.863 26.251 207.584 22.8743 208.912 16.6862C210.051 11.6256 213.281 6.93738 219.167 6.93738C222.017 6.93738 224.106 7.87501 224.106 10.3126H232.843C234.741 1.12458 226.765 -5.61489e-06 218.978 0.375343ZM193.719 0.937639C193.719 0.937639 185.172 0.750695 177.003 9.37495L155.543 32.4392H168.078L173.777 26.2525H183.462L181.943 32.4392H193.148L200.175 0.939098L193.719 0.937639ZM187.831 10.1242L185.551 19.1252H195.997C195.618 19.4991 192.578 21.7498 187.072 23.4381C183.844 24.5627 179.666 25.3119 174.346 25.6858L187.831 10.1242Z" fill="black"/>
</svg>
