<svg width="262" height="98" viewBox="0 0 262 98" fill="none" xmlns="http://www.w3.org/2000/svg">
<path d="M73.1874 91.9559C72.8477 91.9559 72.6536 91.8103 72.5566 91.4706L72.3139 89.384C71.8772 89.8207 71.3919 90.2089 70.9552 90.5486C70.5185 90.8883 70.0332 91.1794 69.548 91.4221C69.0627 91.6647 68.5289 91.8588 67.9952 91.9559C67.4128 92.1014 66.8305 92.15 66.1512 92.15C65.5689 92.15 65.0351 92.0529 64.5013 91.9073C63.9675 91.7618 63.4823 91.4706 63.0941 91.1309C62.7059 90.7912 62.3662 90.3545 62.1236 89.8207C61.8809 89.287 61.7354 88.6561 61.7354 87.8797C61.7354 87.2004 61.9295 86.521 62.3177 85.9387C62.7059 85.3564 63.3367 84.8226 64.1616 84.3859C64.9866 83.9491 66.1026 83.6095 67.4128 83.3183C68.723 83.0757 70.3244 82.8816 72.1683 82.8331V81.1347C72.1683 79.6304 71.8287 78.4658 71.1978 77.6408C70.567 76.8159 69.5965 76.4277 68.2863 76.4277C67.5099 76.4277 66.8305 76.5247 66.2482 76.7674C65.6659 77.01 65.2292 77.2526 64.841 77.4952C64.4528 77.7379 64.1616 77.9805 63.919 78.2231C63.6764 78.4658 63.4823 78.5628 63.2882 78.5628C63.0455 78.5628 62.9 78.4658 62.8029 78.2717L62.5118 77.7864C63.3852 76.9129 64.2587 76.2821 65.2292 75.8454C66.1512 75.4086 67.2673 75.166 68.4319 75.166C69.3053 75.166 70.0817 75.3116 70.7611 75.6027C71.4405 75.8939 71.9742 76.2821 72.411 76.8159C72.8477 77.3497 73.1874 77.9805 73.3815 78.7084C73.6241 79.4363 73.7212 80.2612 73.7212 81.1832V91.8588H73.1874V91.9559ZM66.5879 91.0339C67.2187 91.0339 67.801 90.9853 68.3348 90.8398C68.8686 90.6942 69.3539 90.5001 69.8391 90.2575C70.2758 90.0148 70.7126 89.7237 71.1008 89.384C71.489 89.0443 71.8772 88.6561 72.2654 88.2679V83.9977C70.7126 84.0462 69.3539 84.1432 68.2378 84.3373C67.1217 84.5314 66.1997 84.7741 65.4718 85.1138C64.7439 85.4534 64.2102 85.8416 63.8705 86.2784C63.5308 86.7151 63.3367 87.2489 63.3367 87.8312C63.3367 88.365 63.4338 88.8502 63.6279 89.2384C63.822 89.6266 64.0646 89.9663 64.3557 90.2089C64.6469 90.4516 64.9866 90.6457 65.3748 90.7912C65.7144 90.9853 66.1512 91.0339 66.5879 91.0339Z" fill="#A8A8A8"/>
<path d="M80.8057 67.9358V91.9559H79.2529V67.9358H80.8057Z" fill="#A8A8A8"/>
<path d="M97.0614 91.9559C96.7217 91.9559 96.5276 91.8103 96.4306 91.4706L96.1879 89.384C95.7512 89.8207 95.266 90.2089 94.8292 90.5486C94.3925 90.8883 93.9072 91.1794 93.422 91.4221C92.9367 91.6647 92.403 91.8588 91.8692 91.9559C91.2869 92.1014 90.7046 92.15 90.0252 92.15C89.4429 92.15 88.9091 92.0529 88.3753 91.9073C87.8416 91.7618 87.3563 91.4706 86.9681 91.1309C86.5799 90.7912 86.2402 90.3545 85.9976 89.8207C85.755 89.287 85.6094 88.6561 85.6094 87.8797C85.6094 87.2004 85.8035 86.521 86.1917 85.9387C86.5799 85.3564 87.2107 84.8226 88.0357 84.3859C88.8606 83.9491 89.9767 83.6095 91.2869 83.3183C92.5971 83.0757 94.1984 82.8816 96.0424 82.8331V81.1347C96.0424 79.6304 95.7027 78.4658 95.0719 77.6408C94.441 76.8159 93.4705 76.4277 92.1603 76.4277C91.3839 76.4277 90.7046 76.5247 90.1223 76.7674C89.5399 77.01 89.1032 77.2526 88.715 77.4952C88.3268 77.7379 88.0357 77.9805 87.793 78.2231C87.5504 78.4658 87.3563 78.5628 87.1622 78.5628C86.9196 78.5628 86.774 78.4658 86.6769 78.2717L86.3858 77.7864C87.2592 76.9129 88.1327 76.2821 89.1032 75.8454C90.0252 75.4086 91.1413 75.166 92.3059 75.166C93.1794 75.166 93.9558 75.3116 94.6351 75.6027C95.3145 75.8939 95.8483 76.2821 96.285 76.8159C96.7217 77.3497 97.0614 77.9805 97.2555 78.7084C97.4981 79.4363 97.5952 80.2612 97.5952 81.1832V91.8588H97.0614V91.9559ZM90.4619 91.0339C91.0928 91.0339 91.6751 90.9853 92.2089 90.8398C92.7426 90.6942 93.2279 90.5001 93.7131 90.2575C94.1499 90.0148 94.5866 89.7237 94.9748 89.384C95.363 89.0443 95.7512 88.6561 96.1394 88.2679V83.9977C94.5866 84.0462 93.2279 84.1432 92.1118 84.3373C90.9957 84.5314 90.0737 84.7741 89.3458 85.1138C88.618 85.4534 88.0842 85.8416 87.7445 86.2784C87.4048 86.7151 87.2107 87.2489 87.2107 87.8312C87.2107 88.365 87.3078 88.8502 87.5019 89.2384C87.696 89.6266 87.9386 89.9663 88.2298 90.2089C88.5209 90.4516 88.8606 90.6457 89.2488 90.7912C89.637 90.9853 90.0252 91.0339 90.4619 91.0339Z" fill="#A8A8A8"/>
<path d="M101.721 90.6457C101.721 90.4516 101.769 90.2575 101.818 90.0634C101.866 89.8693 102.012 89.7237 102.157 89.5782C102.303 89.4326 102.449 89.3355 102.643 89.2385C102.837 89.1414 103.031 89.0929 103.225 89.0929C103.419 89.0929 103.613 89.1414 103.807 89.2385C104.001 89.3355 104.147 89.4326 104.293 89.5782C104.438 89.7237 104.535 89.8693 104.632 90.0634C104.729 90.2575 104.778 90.4516 104.778 90.6457C104.778 90.8883 104.729 91.0824 104.632 91.228C104.535 91.4221 104.438 91.5677 104.293 91.7133C104.147 91.8588 104.001 91.9559 103.807 92.0529C103.613 92.15 103.419 92.15 103.225 92.15C102.788 92.15 102.449 92.0044 102.157 91.7133C101.866 91.4706 101.721 91.0824 101.721 90.6457Z" fill="#A8A8A8"/>
<path d="M115.405 75.2631C116.569 75.2631 117.637 75.4572 118.559 75.8454C119.481 76.2336 120.257 76.8159 120.888 77.5438C121.519 78.2716 122.004 79.1451 122.344 80.2127C122.683 81.2802 122.829 82.3963 122.829 83.7065C122.829 85.0167 122.683 86.1328 122.344 87.2003C122.004 88.2679 121.519 89.1414 120.888 89.8692C120.257 90.5971 119.481 91.1794 118.559 91.5676C117.637 91.9558 116.569 92.1499 115.405 92.1499C114.24 92.1499 113.172 91.9558 112.25 91.5676C111.328 91.1794 110.552 90.5971 109.873 89.8692C109.242 89.1414 108.757 88.2679 108.417 87.2003C108.077 86.1328 107.932 85.0167 107.932 83.7065C107.932 82.3963 108.077 81.2802 108.417 80.2127C108.757 79.1451 109.242 78.2716 109.873 77.5438C110.503 76.8159 111.28 76.2336 112.25 75.8454C113.172 75.4572 114.24 75.2631 115.405 75.2631ZM115.405 90.8883C116.375 90.8883 117.249 90.7427 117.976 90.403C118.704 90.0634 119.335 89.5781 119.82 88.9473C120.306 88.3164 120.694 87.54 120.936 86.6666C121.179 85.7931 121.276 84.7741 121.276 83.7065C121.276 82.6389 121.179 81.6199 120.936 80.7464C120.694 79.873 120.306 79.0966 119.82 78.4657C119.335 77.8349 118.704 77.3497 117.976 77.01C117.249 76.6703 116.375 76.4762 115.405 76.4762C114.434 76.4762 113.561 76.6703 112.833 77.01C112.105 77.3497 111.474 77.8349 110.989 78.4657C110.503 79.0966 110.115 79.873 109.873 80.7464C109.63 81.6199 109.484 82.6389 109.484 83.7065C109.484 84.8226 109.63 85.7931 109.873 86.6666C110.115 87.54 110.503 88.3164 110.989 88.9473C111.474 89.5781 112.105 90.0634 112.833 90.403C113.561 90.7427 114.434 90.8883 115.405 90.8883Z" fill="#A8A8A8"/>
<path d="M127.002 91.9558V75.5542H127.827C128.021 75.5542 128.167 75.6027 128.215 75.6513C128.264 75.6998 128.361 75.8454 128.361 76.0395L128.506 79.4848C129.04 78.1746 129.719 77.107 130.641 76.3791C131.515 75.6027 132.582 75.2631 133.893 75.2631C134.378 75.2631 134.863 75.3116 135.251 75.4086C135.688 75.5057 136.076 75.6513 136.416 75.8454L136.222 76.9129C136.173 77.107 136.076 77.1556 135.882 77.1556C135.834 77.1556 135.737 77.1556 135.591 77.107C135.494 77.0585 135.3 77.01 135.154 76.9615C134.96 76.9129 134.766 76.8644 134.475 76.8159C134.232 76.7674 133.893 76.7673 133.553 76.7673C132.291 76.7673 131.272 77.1556 130.496 77.932C129.719 78.7084 129.04 79.8245 128.555 81.2802V91.9558H127.002Z" fill="#A8A8A8"/>
<path d="M145.539 75.2146C146.267 75.2146 146.898 75.3117 147.529 75.4572C148.16 75.6513 148.694 75.894 149.179 76.1851H153.401V76.7189C153.401 77.01 153.255 77.1556 152.915 77.1556L150.44 77.3497C150.732 77.7865 150.974 78.2232 151.168 78.757C151.314 79.2907 151.411 79.8245 151.411 80.4554C151.411 81.2318 151.265 81.9596 150.974 82.5905C150.683 83.2213 150.295 83.8036 149.761 84.2404C149.227 84.6771 148.645 85.0653 147.917 85.3079C147.189 85.5505 146.413 85.6961 145.539 85.6961C144.569 85.6961 143.744 85.5505 142.968 85.2594C142.482 85.502 142.143 85.8417 141.9 86.1814C141.657 86.5211 141.512 86.9093 141.512 87.2489C141.512 87.7342 141.657 88.0739 141.997 88.3165C142.337 88.5591 142.773 88.7532 143.307 88.8503C143.841 88.9473 144.472 89.0444 145.151 89.0929C145.831 89.1414 146.558 89.1414 147.286 89.19C148.014 89.2385 148.694 89.287 149.421 89.3841C150.101 89.4811 150.732 89.6752 151.265 89.9178C151.799 90.1605 152.236 90.5001 152.576 90.9369C152.915 91.3736 153.061 91.9559 153.061 92.7323C153.061 93.4117 152.867 94.091 152.527 94.6733C152.187 95.3042 151.702 95.838 151.071 96.3232C150.44 96.8085 149.664 97.1967 148.742 97.4878C147.82 97.779 146.801 97.9246 145.685 97.9246C144.52 97.9246 143.501 97.8275 142.628 97.5849C141.754 97.3423 141.026 97.0511 140.444 96.6144C139.862 96.2262 139.425 95.7409 139.134 95.2071C138.843 94.6733 138.697 94.1396 138.697 93.5087C138.697 92.6353 138.988 91.9074 139.571 91.2766C140.153 90.6457 140.929 90.1605 141.948 89.8208C141.415 89.6267 140.978 89.3841 140.638 88.9959C140.299 88.6562 140.153 88.1709 140.153 87.5401C140.153 87.2975 140.202 87.0548 140.299 86.8122C140.396 86.5696 140.541 86.3269 140.687 86.0843C140.881 85.8417 141.075 85.5991 141.318 85.405C141.56 85.1623 141.851 84.9682 142.191 84.8227C141.415 84.3859 140.784 83.7551 140.347 83.0272C139.91 82.2993 139.716 81.4259 139.716 80.4068C139.716 79.6304 139.862 78.9025 140.153 78.2717C140.444 77.6409 140.832 77.0586 141.318 76.6218C141.851 76.1366 142.434 75.7969 143.162 75.5543C143.841 75.3602 144.617 75.2146 145.539 75.2146ZM151.605 93.0235C151.605 92.4897 151.459 92.1015 151.217 91.7618C150.926 91.4707 150.586 91.1795 150.149 91.0339C149.713 90.8398 149.179 90.7428 148.596 90.6457C148.014 90.5972 147.383 90.5001 146.753 90.5001C146.122 90.4516 145.442 90.4516 144.811 90.4031C144.181 90.3546 143.55 90.306 143.016 90.209C142.579 90.3546 142.191 90.5487 141.851 90.7913C141.512 90.9854 141.172 91.228 140.929 91.5192C140.687 91.8103 140.493 92.1015 140.347 92.3926C140.202 92.7323 140.153 93.072 140.153 93.4602C140.153 93.9455 140.299 94.3822 140.541 94.8189C140.784 95.2556 141.172 95.5953 141.609 95.8865C142.094 96.1776 142.676 96.4203 143.356 96.6144C144.035 96.8085 144.86 96.857 145.733 96.857C146.558 96.857 147.335 96.7599 148.063 96.5658C148.791 96.3717 149.421 96.1291 149.955 95.7894C150.489 95.4497 150.926 95.0615 151.217 94.5763C151.459 94.1396 151.605 93.6058 151.605 93.0235ZM145.539 84.6771C146.219 84.6771 146.85 84.58 147.432 84.3859C147.966 84.1918 148.451 83.9007 148.839 83.5125C149.227 83.1728 149.518 82.7361 149.713 82.2023C149.907 81.6685 150.004 81.1347 150.004 80.5039C150.004 79.873 149.907 79.3393 149.713 78.8055C149.518 78.2717 149.227 77.835 148.839 77.4953C148.451 77.1556 148.014 76.8645 147.432 76.6704C146.898 76.4763 146.267 76.3792 145.588 76.3792C144.909 76.3792 144.278 76.4763 143.744 76.6704C143.21 76.8645 142.725 77.1556 142.337 77.4953C141.948 77.835 141.657 78.2717 141.463 78.8055C141.269 79.3393 141.172 79.873 141.172 80.5039C141.172 81.1347 141.269 81.6685 141.463 82.2023C141.657 82.7361 141.948 83.1243 142.337 83.5125C142.725 83.8521 143.162 84.1433 143.744 84.3859C144.229 84.58 144.811 84.6771 145.539 84.6771Z" fill="#A8A8A8"/>
<path d="M155.826 90.6457C155.826 90.4516 155.875 90.2575 155.923 90.0634C156.02 89.8693 156.117 89.7237 156.263 89.5782C156.408 89.4326 156.554 89.3355 156.748 89.2385C156.942 89.1414 157.136 89.0929 157.33 89.0929C157.525 89.0929 157.719 89.1414 157.913 89.2385C158.107 89.3355 158.252 89.4326 158.398 89.5782C158.544 89.7237 158.641 89.8693 158.738 90.0634C158.835 90.2575 158.883 90.4516 158.883 90.6457C158.883 90.8883 158.835 91.0824 158.738 91.228C158.641 91.4221 158.544 91.5677 158.398 91.7133C158.252 91.8588 158.107 91.9559 157.913 92.0529C157.719 92.15 157.525 92.15 157.33 92.15C156.894 92.15 156.554 92.0044 156.263 91.7133C155.972 91.4706 155.826 91.0824 155.826 90.6457Z" fill="#A8A8A8"/>
<path d="M173.732 91.9559C173.393 91.9559 173.199 91.8103 173.101 91.4706L172.859 89.384C172.422 89.8207 171.937 90.2089 171.5 90.5486C171.063 90.8883 170.578 91.1794 170.093 91.4221C169.608 91.6647 169.074 91.8588 168.54 91.9559C167.958 92.1014 167.375 92.15 166.696 92.15C166.114 92.15 165.58 92.0529 165.046 91.9073C164.512 91.7618 164.027 91.4706 163.639 91.1309C163.251 90.7912 162.911 90.3545 162.668 89.8207C162.426 89.287 162.28 88.6561 162.28 87.8797C162.28 87.2004 162.474 86.521 162.863 85.9387C163.251 85.3564 163.882 84.8226 164.707 84.3859C165.531 83.9491 166.648 83.6095 167.958 83.3183C169.268 83.0757 170.869 82.8816 172.713 82.8331V81.1347C172.713 79.6304 172.374 78.4658 171.743 77.6408C171.112 76.8159 170.141 76.4277 168.831 76.4277C168.055 76.4277 167.375 76.5247 166.793 76.7674C166.211 77.01 165.774 77.2526 165.386 77.4952C164.998 77.7379 164.707 77.9805 164.464 78.2231C164.221 78.4658 164.027 78.5628 163.833 78.5628C163.59 78.5628 163.445 78.4658 163.348 78.2717L163.057 77.7864C163.93 76.9129 164.804 76.2821 165.774 75.8454C166.696 75.4086 167.812 75.166 168.977 75.166C169.85 75.166 170.627 75.3116 171.306 75.6027C171.985 75.8939 172.519 76.2821 172.956 76.8159C173.393 77.3497 173.732 77.9805 173.926 78.7084C174.169 79.4363 174.266 80.2612 174.266 81.1832V91.8588H173.732V91.9559ZM167.133 91.0339C167.764 91.0339 168.346 90.9853 168.88 90.8398C169.414 90.6942 169.899 90.5001 170.384 90.2575C170.821 90.0148 171.258 89.7237 171.646 89.384C172.034 89.0443 172.422 88.6561 172.81 88.2679V83.9977C171.258 84.0462 169.899 84.1432 168.783 84.3373C167.667 84.5314 166.745 84.7741 166.017 85.1138C165.289 85.4534 164.755 85.8416 164.415 86.2784C164.076 86.7151 163.882 87.2489 163.882 87.8312C163.882 88.365 163.979 88.8502 164.173 89.2384C164.367 89.6266 164.609 89.9663 164.901 90.2089C165.192 90.4516 165.531 90.6457 165.92 90.7912C166.308 90.9368 166.745 91.0339 167.133 91.0339Z" fill="#A8A8A8"/>
<path d="M180.477 75.5057V85.9873C180.477 87.5401 180.817 88.7532 181.545 89.6267C182.272 90.5001 183.34 90.9369 184.796 90.9369C185.863 90.9369 186.882 90.6457 187.804 90.1119C188.726 89.5781 189.551 88.8017 190.328 87.8312V75.5057H191.88V91.9074H191.007C190.716 91.9074 190.522 91.7618 190.522 91.4706L190.376 89.0444C189.6 89.9663 188.726 90.7428 187.756 91.3251C186.737 91.9074 185.669 92.1985 184.408 92.1985C183.486 92.1985 182.709 92.0529 182.03 91.7618C181.35 91.4706 180.768 91.0824 180.331 90.5001C179.895 89.9663 179.555 89.3355 179.312 88.5591C179.07 87.7827 178.973 86.9578 178.973 85.9873V75.5057H180.477Z" fill="#A8A8A8"/>
<path d="M98.9055 21.7879H95.5087C95.1205 21.7879 94.8293 21.6909 94.5867 21.4968C94.3441 21.3027 94.15 21.1086 94.0529 20.8174L92.5972 16.7898H84.1537L82.698 20.8174C82.6009 21.0601 82.4068 21.3027 82.1642 21.4968C81.9215 21.6909 81.6304 21.7879 81.2422 21.7879H77.7969L86.0947 0.582275H90.5591L98.9055 21.7879ZM85.2213 13.7327H91.5296L89.2489 7.2788C89.1033 6.93912 88.9577 6.55092 88.8122 6.06566C88.6666 5.62893 88.521 5.09515 88.3754 4.6099C88.2299 5.14368 88.0843 5.62893 87.9387 6.11419C87.7931 6.59944 87.6476 6.98765 87.502 7.32732L85.2213 13.7327Z" fill="#333333"/>
<path d="M104.583 22.0306C103.904 22.0306 103.273 21.9336 102.788 21.7394C102.254 21.5453 101.817 21.2542 101.477 20.866C101.138 20.4778 100.847 20.0411 100.653 19.5073C100.458 18.9735 100.361 18.3912 100.361 17.7118V9.65659H98.9541C98.76 9.65659 98.5659 9.60806 98.4204 9.46248C98.2748 9.31691 98.1777 9.12281 98.1777 8.83165V7.23031L100.604 6.79358L101.429 2.91154C101.526 2.47481 101.817 2.23218 102.302 2.23218H104.389V6.8421H108.271V9.65659H104.389V17.5177C104.389 17.9545 104.486 18.2456 104.68 18.4882C104.874 18.7309 105.165 18.8764 105.554 18.8764C105.748 18.8764 105.893 18.8764 106.039 18.8279C106.184 18.7794 106.281 18.7309 106.379 18.6823C106.476 18.6338 106.573 18.5853 106.67 18.5368C106.767 18.4882 106.815 18.4882 106.912 18.4882C107.009 18.4882 107.106 18.5368 107.203 18.5853C107.301 18.6338 107.349 18.7309 107.446 18.8764L108.659 20.8175C108.125 21.2542 107.495 21.5939 106.767 21.788C106.087 21.9335 105.36 22.0306 104.583 22.0306Z" fill="#333333"/>
<path d="M114.483 0V21.788H110.455V0H114.483Z" fill="#333333"/>
<path d="M127.827 21.7879C127.438 21.7879 127.147 21.7394 126.953 21.6424C126.759 21.5453 126.613 21.3027 126.468 20.963L126.128 19.9925C125.74 20.3322 125.4 20.6233 125.012 20.8659C124.672 21.1086 124.284 21.3027 123.896 21.4968C123.508 21.6909 123.12 21.7879 122.683 21.885C122.246 21.982 121.761 22.0306 121.227 22.0306C120.548 22.0306 119.965 21.9335 119.432 21.7879C118.898 21.5938 118.413 21.3512 118.024 21.0115C117.636 20.6718 117.345 20.2351 117.102 19.7013C116.908 19.1676 116.763 18.5852 116.763 17.9059C116.763 17.3721 116.908 16.7898 117.199 16.256C117.491 15.7222 117.976 15.1885 118.655 14.7517C119.335 14.315 120.257 13.9268 121.421 13.6356C122.586 13.3445 123.993 13.1504 125.74 13.1019V12.3254C125.74 11.4035 125.546 10.6756 125.158 10.2388C124.769 9.80212 124.187 9.55949 123.411 9.55949C122.877 9.55949 122.392 9.60802 122.003 9.75359C121.615 9.89917 121.324 10.0447 121.033 10.1903C120.742 10.3359 120.499 10.4815 120.257 10.6271C120.014 10.7726 119.723 10.8212 119.432 10.8212C119.14 10.8212 118.898 10.7726 118.704 10.6271C118.51 10.4815 118.364 10.3359 118.218 10.1418L117.491 8.83161C118.364 8.0552 119.335 7.42437 120.451 7.03616C121.518 6.64796 122.683 6.45386 123.944 6.45386C124.818 6.45386 125.643 6.59943 126.371 6.89059C127.099 7.18174 127.681 7.56995 128.166 8.10373C128.651 8.63751 129.04 9.26834 129.282 9.9477C129.525 10.6756 129.67 11.452 129.67 12.3254V21.7879H127.827ZM122.489 19.3131C123.168 19.3131 123.75 19.2161 124.236 18.9734C124.721 18.7308 125.206 18.3911 125.691 17.8574V15.5281C124.721 15.5767 123.896 15.6737 123.217 15.7708C122.586 15.9163 122.052 16.0619 121.664 16.256C121.276 16.4501 120.984 16.6442 120.839 16.9354C120.693 17.178 120.596 17.4692 120.596 17.7603C120.596 18.3426 120.742 18.7793 121.081 19.022C121.47 19.2161 121.906 19.3131 122.489 19.3131Z" fill="#333333"/>
<path d="M142.19 9.85064C142.093 9.99622 141.996 10.1418 141.85 10.1903C141.753 10.2874 141.608 10.2874 141.414 10.2874C141.22 10.2874 141.026 10.2388 140.831 10.1418C140.637 10.0447 140.395 9.94769 140.152 9.85064C139.909 9.75359 139.618 9.65654 139.279 9.55949C138.939 9.46244 138.551 9.41391 138.163 9.41391C137.532 9.41391 136.998 9.55949 136.658 9.80212C136.319 10.0933 136.124 10.4329 136.124 10.8697C136.124 11.1608 136.221 11.4035 136.416 11.6461C136.61 11.8402 136.901 12.0343 137.241 12.1799C137.58 12.3254 137.968 12.471 138.405 12.6166C138.842 12.7622 139.279 12.9078 139.715 13.0533C140.152 13.1989 140.589 13.393 141.026 13.5871C141.462 13.7812 141.85 14.0238 142.19 14.3635C142.53 14.6547 142.772 15.0429 143.015 15.4796C143.209 15.9163 143.306 16.4501 143.306 17.0324C143.306 17.7603 143.161 18.4397 142.918 19.0705C142.627 19.7013 142.239 20.2351 141.753 20.6718C141.22 21.1086 140.589 21.4482 139.812 21.7394C139.036 21.982 138.163 22.1276 137.143 22.1276C136.61 22.1276 136.124 22.0791 135.591 21.982C135.105 21.885 134.62 21.7394 134.135 21.5938C133.698 21.3997 133.261 21.2056 132.825 21.0115C132.436 20.7689 132.097 20.5263 131.806 20.2836L132.728 18.7793C132.825 18.5852 132.97 18.4882 133.116 18.3911C133.261 18.2941 133.504 18.2456 133.747 18.2456C133.989 18.2456 134.232 18.2941 134.426 18.4397C134.62 18.5852 134.863 18.6823 135.105 18.8279C135.348 18.9734 135.639 19.119 136.027 19.2161C136.367 19.3616 136.804 19.4102 137.338 19.4102C137.726 19.4102 138.065 19.3616 138.357 19.2646C138.648 19.1675 138.89 19.0705 139.036 18.9249C139.182 18.7793 139.327 18.5852 139.424 18.3911C139.521 18.197 139.57 18.0029 139.57 17.8088C139.57 17.4692 139.473 17.2265 139.279 16.9839C139.084 16.7898 138.793 16.5957 138.454 16.4501C138.114 16.3045 137.726 16.159 137.289 16.0134C136.852 15.8678 136.416 15.7222 135.93 15.5767C135.494 15.4311 135.057 15.237 134.62 15.0429C134.183 14.8488 133.795 14.5576 133.456 14.2179C133.116 13.8783 132.825 13.4901 132.631 13.0048C132.436 12.5195 132.339 11.9372 132.339 11.2579C132.339 10.627 132.485 10.0447 132.728 9.46244C132.97 8.88013 133.358 8.39487 133.844 7.95814C134.329 7.52141 134.96 7.18174 135.688 6.93911C136.416 6.69648 137.241 6.5509 138.211 6.5509C139.279 6.5509 140.249 6.745 141.123 7.08468C141.996 7.42436 142.724 7.90962 143.306 8.4434L142.19 9.85064Z" fill="#333333"/>
<path d="M159.514 6.50244C160.63 6.50244 161.649 6.69654 162.62 7.03622C163.542 7.3759 164.318 7.90968 164.998 8.58904C165.677 9.2684 166.162 10.0448 166.551 11.0153C166.939 11.9858 167.084 13.0534 167.084 14.2665C167.084 15.4797 166.89 16.5472 166.551 17.5177C166.211 18.4882 165.677 19.3132 164.998 19.944C164.318 20.6234 163.542 21.1572 162.62 21.4968C161.698 21.8365 160.679 22.0306 159.514 22.0306C158.398 22.0306 157.331 21.8365 156.409 21.4968C155.487 21.1572 154.662 20.6234 154.031 19.944C153.352 19.2647 152.866 18.4397 152.478 17.5177C152.09 16.5472 151.944 15.4797 151.944 14.2665C151.944 13.0534 152.138 11.9858 152.478 11.0153C152.866 10.0448 153.352 9.2684 154.031 8.58904C154.71 7.90968 155.487 7.42443 156.409 7.03622C157.331 6.69654 158.35 6.50244 159.514 6.50244ZM159.514 19.022C160.679 19.022 161.504 18.6338 162.086 17.8089C162.62 17.0325 162.911 15.8193 162.911 14.2665C162.911 12.7137 162.62 11.5491 162.086 10.7242C161.552 9.94775 160.679 9.51102 159.514 9.51102C158.35 9.51102 157.476 9.89923 156.894 10.7242C156.36 11.5006 156.069 12.7137 156.069 14.2665C156.069 15.8193 156.36 17.0325 156.894 17.8089C157.428 18.5853 158.301 19.022 159.514 19.022Z" fill="#333333"/>
<path d="M170.19 21.788V9.65657L169.025 9.46247C168.734 9.41394 168.491 9.31689 168.297 9.12279C168.103 8.97721 168.006 8.73458 168.006 8.44343V6.84209H170.19V5.87157C170.19 4.99812 170.335 4.22171 170.578 3.54235C170.869 2.86299 171.209 2.23216 171.742 1.79543C172.228 1.31017 172.858 0.921969 173.586 0.679342C174.314 0.436714 175.139 0.291138 176.013 0.291138C176.352 0.291138 176.692 0.291138 177.032 0.339663C177.371 0.388189 177.662 0.436714 178.002 0.533765L177.905 2.52331C177.905 2.81447 177.759 3.00857 177.517 3.10562C177.274 3.20267 177.032 3.2512 176.74 3.2512C176.352 3.2512 175.964 3.29972 175.624 3.39677C175.285 3.49382 175.042 3.6394 174.799 3.8335C174.557 4.0276 174.411 4.31876 174.266 4.65844C174.169 4.99812 174.072 5.43485 174.072 5.96863V6.84209H177.808V9.65657H174.217V21.8365H170.19V21.788Z" fill="#333333"/>
<path d="M190.813 18.2456H199.013V21.8365H186.445V0.582275H190.813V18.2456Z" fill="#333333"/>
<path d="M205.759 2.4748C205.759 2.81448 205.711 3.15416 205.565 3.44531C205.42 3.73647 205.225 3.97909 205.031 4.22172C204.789 4.46435 204.546 4.60993 204.206 4.7555C203.915 4.90108 203.576 4.94961 203.236 4.94961C202.896 4.94961 202.605 4.90108 202.314 4.7555C202.023 4.60993 201.78 4.46435 201.537 4.22172C201.295 3.97909 201.149 3.73647 201.004 3.44531C200.858 3.15416 200.81 2.81448 200.81 2.4748C200.81 2.13512 200.858 1.79545 201.004 1.50429C201.149 1.21314 201.295 0.921985 201.537 0.727883C201.78 0.485255 202.023 0.339679 202.314 0.194102C202.605 0.0485254 202.945 0 203.236 0C203.576 0 203.915 0.0485254 204.206 0.194102C204.498 0.339679 204.789 0.485255 205.031 0.727883C205.274 0.970511 205.42 1.21314 205.565 1.50429C205.711 1.79545 205.759 2.13512 205.759 2.4748ZM205.274 6.74505V21.8365H201.246V6.74505H205.274Z" fill="#333333"/>
<path d="M207.118 6.74512H210.466C210.758 6.74512 211 6.79364 211.194 6.93922C211.388 7.08479 211.534 7.23037 211.583 7.473L214.106 14.9459C214.251 15.4312 214.397 15.965 214.543 16.4502C214.688 16.9355 214.785 17.4207 214.882 17.906C214.979 17.4207 215.125 16.9355 215.222 16.4502C215.368 15.965 215.513 15.4797 215.659 14.9459L218.279 7.473C218.328 7.2789 218.473 7.08479 218.667 6.93922C218.861 6.79364 219.104 6.74512 219.347 6.74512H222.549L216.629 21.8366H213.038L207.118 6.74512Z" fill="#333333"/>
<path d="M228.954 2.4748C228.954 2.81448 228.906 3.15416 228.76 3.44531C228.615 3.73647 228.421 3.97909 228.227 4.22172C227.984 4.46435 227.741 4.60993 227.402 4.7555C227.111 4.90108 226.771 4.94961 226.431 4.94961C226.091 4.94961 225.8 4.90108 225.509 4.7555C225.218 4.60993 224.927 4.46435 224.733 4.22172C224.49 3.97909 224.345 3.73647 224.199 3.44531C224.053 3.15416 224.005 2.81448 224.005 2.4748C224.005 2.13512 224.053 1.79545 224.199 1.50429C224.345 1.21314 224.49 0.921985 224.733 0.727883C224.975 0.485255 225.218 0.339679 225.509 0.194102C225.8 0.0485254 226.14 0 226.431 0C226.771 0 227.111 0.0485254 227.402 0.194102C227.693 0.339679 227.984 0.485255 228.227 0.727883C228.469 0.970511 228.615 1.21314 228.76 1.50429C228.906 1.79545 228.954 2.13512 228.954 2.4748ZM228.469 6.74505V21.8365H224.442V6.74505H228.469Z" fill="#333333"/>
<path d="M231.914 21.788V6.74507H234.389C234.874 6.74507 235.214 6.9877 235.408 7.42443L235.651 8.49199C235.942 8.20083 236.281 7.90968 236.573 7.66705C236.912 7.42443 237.252 7.23032 237.592 7.03622C237.98 6.84212 238.368 6.74507 238.756 6.64802C239.193 6.55097 239.63 6.50244 240.115 6.50244C240.94 6.50244 241.668 6.64802 242.299 6.93917C242.929 7.23032 243.463 7.61853 243.9 8.10378C244.337 8.58904 244.676 9.21987 244.87 9.89923C245.113 10.5786 245.21 11.355 245.21 12.2285V21.788H241.182V12.2285C241.182 11.4035 240.988 10.7242 240.6 10.2874C240.212 9.80218 239.63 9.60808 238.853 9.60808C238.271 9.60808 237.737 9.75365 237.252 9.99628C236.767 10.2389 236.281 10.5786 235.845 11.0153V21.8365H231.914V21.788Z" fill="#333333"/>
<path d="M254.139 6.45386C254.77 6.45386 255.401 6.50238 255.983 6.64796C256.565 6.79354 257.099 6.98764 257.536 7.23027H261.952V8.68603C261.952 8.92866 261.903 9.12276 261.758 9.21981C261.612 9.36539 261.418 9.46244 261.127 9.51097L259.914 9.75359C260.059 10.2388 260.156 10.7241 260.156 11.3064C260.156 12.0343 260.011 12.7137 259.72 13.3445C259.428 13.9268 258.992 14.4606 258.458 14.8973C257.924 15.334 257.293 15.6252 256.565 15.8678C255.838 16.1104 255.061 16.2075 254.188 16.2075C253.945 16.2075 253.654 16.2075 253.411 16.159C253.169 16.159 252.926 16.1104 252.683 16.0619C252.295 16.3045 252.101 16.5957 252.101 16.8868C252.101 17.178 252.247 17.3721 252.538 17.5177C252.829 17.6633 253.169 17.7118 253.654 17.8088C254.091 17.8574 254.624 17.9059 255.207 17.9059C255.789 17.9059 256.371 17.9544 256.954 18.0029C257.536 18.0515 258.167 18.1485 258.701 18.2456C259.283 18.3911 259.817 18.5852 260.253 18.8279C260.69 19.119 261.078 19.4587 261.369 19.944C261.661 20.3807 261.806 21.0115 261.806 21.6909C261.806 22.3702 261.661 23.0011 261.321 23.6319C260.981 24.2627 260.496 24.845 259.865 25.3303C259.234 25.8155 258.458 26.2038 257.536 26.5434C256.614 26.8346 255.595 26.9802 254.43 26.9802C253.266 26.9802 252.247 26.8831 251.422 26.6405C250.548 26.3979 249.869 26.1067 249.287 25.767C248.704 25.3788 248.316 24.9906 248.025 24.5054C247.734 24.0201 247.637 23.5348 247.637 23.0011C247.637 22.3217 247.831 21.7394 248.268 21.3027C248.656 20.8174 249.238 20.4777 249.966 20.1866C249.578 19.9925 249.287 19.7013 249.044 19.3617C248.801 19.022 248.704 18.5852 248.704 18.0029C248.704 17.5662 248.85 17.081 249.19 16.5957C249.529 16.1104 250.014 15.6737 250.694 15.3826C249.917 14.9458 249.335 14.412 248.898 13.7327C248.462 13.0533 248.219 12.2284 248.219 11.3064C248.219 10.5785 248.365 9.89917 248.656 9.26834C248.947 8.68603 249.384 8.15225 249.917 7.71552C250.451 7.27879 251.131 6.98764 251.858 6.74501C252.586 6.50238 253.266 6.45386 254.139 6.45386ZM257.924 22.4188C257.924 22.1761 257.827 21.9335 257.682 21.7879C257.536 21.6424 257.293 21.4968 257.002 21.3997C256.711 21.3027 256.42 21.2541 256.032 21.2056C255.643 21.1571 255.255 21.1086 254.818 21.1086C254.382 21.1086 253.945 21.06 253.46 21.06C252.975 21.06 252.538 21.0115 252.101 20.963C251.761 21.1571 251.47 21.3997 251.276 21.6909C251.082 21.982 250.936 22.2732 250.936 22.6129C250.936 22.8555 250.985 23.0981 251.082 23.2922C251.179 23.4863 251.373 23.6804 251.664 23.826C251.907 23.9716 252.295 24.0686 252.683 24.1657C253.12 24.2627 253.654 24.3113 254.285 24.3113C254.964 24.3113 255.498 24.2627 255.983 24.1657C256.42 24.0686 256.808 23.9716 257.099 23.7775C257.39 23.6319 257.584 23.4378 257.682 23.1952C257.876 22.9525 257.924 22.7099 257.924 22.4188ZM254.139 13.7327C254.964 13.7327 255.595 13.5386 255.983 13.1019C256.371 12.6651 256.565 12.1313 256.565 11.5005C256.565 10.8212 256.371 10.2874 255.983 9.85065C255.595 9.46244 254.964 9.26834 254.139 9.26834C253.314 9.26834 252.683 9.46244 252.295 9.85065C251.907 10.2388 251.713 10.7726 251.713 11.5005C251.713 12.1313 251.907 12.7137 252.295 13.1019C252.683 13.4901 253.314 13.7327 254.139 13.7327Z" fill="#333333"/>
<path d="M99.5371 63.7625H93.4228C92.7435 63.7625 92.2097 63.617 91.773 63.2773C91.3362 62.9376 91.0451 62.5494 90.8025 62.0156L88.2306 54.7368H73.0906L70.5188 62.0156C70.3247 62.4523 70.0335 62.8405 69.5968 63.2288C69.1601 63.5684 68.6263 63.7625 67.9469 63.7625H61.7842L76.633 25.7185H84.6882L99.5371 63.7625ZM74.9831 49.3019H86.2896L82.1649 37.6558C81.9223 37.025 81.6796 36.3456 81.3885 35.5207C81.0973 34.6957 80.8547 33.8223 80.6121 32.8518C80.3695 33.8223 80.1268 34.6957 79.8357 35.5207C79.5931 36.3456 79.3019 37.0735 79.0593 37.7043L74.9831 49.3019Z" fill="#333333"/>
<path d="M107.737 36.7338V53.8633C107.737 55.3676 108.077 56.5322 108.756 57.3572C109.435 58.1821 110.454 58.6189 111.813 58.6189C112.832 58.6189 113.803 58.3762 114.676 57.9395C115.549 57.5028 116.423 56.8719 117.199 56.0955V36.6853H124.43V63.714H119.965C119.043 63.714 118.461 63.2773 118.17 62.4524L117.685 60.5599C116.617 61.6274 115.404 62.5009 114.142 63.1317C112.881 63.7626 111.328 64.1022 109.581 64.1022C108.125 64.1022 106.815 63.8596 105.65 63.3258C104.486 62.8406 103.564 62.1127 102.787 61.1907C102.011 60.2687 101.429 59.2012 101.04 57.9395C100.652 56.6778 100.458 55.3191 100.458 53.8148V36.7338H107.737Z" fill="#333333"/>
<path d="M146.218 42.2657C146.024 42.5569 145.83 42.7995 145.636 42.8965C145.442 43.0421 145.151 43.0906 144.811 43.0906C144.472 43.0906 144.083 42.9936 143.744 42.848C143.355 42.6539 142.967 42.5083 142.531 42.2657C142.094 42.0716 141.56 41.8775 140.978 41.6834C140.395 41.4893 139.716 41.4408 138.94 41.4408C137.775 41.4408 136.853 41.6834 136.222 42.1687C135.591 42.6539 135.252 43.2847 135.252 44.0612C135.252 44.5949 135.446 45.0802 135.785 45.4199C136.174 45.8081 136.659 46.0992 137.241 46.3904C137.824 46.6815 138.551 46.9242 139.279 47.1668C140.056 47.4094 140.832 47.652 141.657 47.9432C142.482 48.2343 143.258 48.5255 144.035 48.9137C144.811 49.3019 145.491 49.7386 146.073 50.2724C146.655 50.8062 147.14 51.4856 147.529 52.262C147.917 53.0384 148.062 53.9604 148.062 55.0764C148.062 56.3866 147.82 57.5998 147.335 58.7159C146.849 59.8319 146.17 60.8025 145.248 61.5789C144.326 62.3553 143.161 63.0346 141.803 63.4714C140.444 63.9081 138.843 64.1507 137.047 64.1507C136.125 64.1507 135.203 64.0537 134.281 63.9081C133.359 63.7625 132.486 63.5199 131.709 63.1802C130.884 62.8891 130.108 62.5009 129.38 62.1126C128.652 61.7244 128.021 61.2877 127.536 60.8025L129.235 58.085C129.429 57.7939 129.671 57.5027 129.962 57.3571C130.254 57.163 130.642 57.1145 131.079 57.1145C131.515 57.1145 131.903 57.2116 132.292 57.4542C132.68 57.6968 133.068 57.8909 133.505 58.1821C133.942 58.4247 134.475 58.6673 135.106 58.91C135.737 59.1526 136.513 59.2496 137.435 59.2496C138.115 59.2496 138.746 59.1526 139.231 59.007C139.716 58.8614 140.153 58.6188 140.444 58.3762C140.735 58.1336 140.978 57.7939 141.123 57.4542C141.269 57.1145 141.366 56.7748 141.366 56.3866C141.366 55.8043 141.172 55.3191 140.784 54.9309C140.395 54.5427 139.91 54.2515 139.328 53.9604C138.746 53.6692 138.018 53.4266 137.241 53.184C136.465 52.9413 135.64 52.6987 134.863 52.4075C134.039 52.1164 133.262 51.7767 132.486 51.3885C131.709 51.0003 131.03 50.515 130.399 49.9327C129.817 49.3504 129.332 48.6226 128.943 47.7491C128.555 46.8756 128.361 45.8566 128.361 44.6435C128.361 43.5274 128.555 42.4598 128.992 41.4408C129.429 40.4217 130.059 39.5483 130.981 38.7719C131.855 37.9955 132.922 37.4131 134.233 36.9279C135.543 36.4912 137.047 36.2485 138.746 36.2485C140.687 36.2485 142.433 36.5397 143.986 37.1705C145.539 37.8014 146.849 38.6263 147.868 39.6453L146.218 42.2657Z" fill="#333333"/>
<path d="M160.873 64.1508C159.66 64.1508 158.544 63.9567 157.622 63.617C156.7 63.2774 155.875 62.7436 155.244 62.0642C154.613 61.3849 154.128 60.6085 153.788 59.6379C153.449 58.716 153.303 57.6484 153.303 56.4353V41.8776H150.78C150.391 41.8776 150.052 41.732 149.809 41.4894C149.518 41.2468 149.421 40.8586 149.421 40.3733V37.5588L153.74 36.7824L155.195 29.7947C155.39 29.0183 155.923 28.6301 156.797 28.6301H160.582V36.8795H167.569V41.9261H160.582V56.0471C160.582 56.7749 160.776 57.4058 161.116 57.8425C161.455 58.2792 161.989 58.4733 162.668 58.4733C163.008 58.4733 163.299 58.4248 163.542 58.3763C163.784 58.3278 163.979 58.2307 164.173 58.1337C164.367 58.0366 164.512 57.9396 164.658 57.891C164.803 57.794 164.949 57.794 165.095 57.794C165.289 57.794 165.483 57.8425 165.628 57.9396C165.774 58.0366 165.92 58.1822 166.065 58.4248L168.249 61.8701C167.23 62.6465 166.114 63.2288 164.852 63.6656C163.542 63.9567 162.232 64.1508 160.873 64.1508Z" fill="#333333"/>
<path d="M171.209 63.7626V36.7339H175.479C176.207 36.7339 176.741 36.8794 176.984 37.1221C177.275 37.3647 177.469 37.8499 177.566 38.4808L177.954 41.1982C178.828 39.6454 179.798 38.4322 180.914 37.5588C182.03 36.6853 183.34 36.2001 184.845 36.2001C186.058 36.2001 187.077 36.4912 187.853 37.0735L187.368 42.4113C187.271 42.751 187.125 42.9937 186.98 43.1392C186.786 43.2848 186.543 43.3333 186.252 43.3333C185.961 43.3333 185.573 43.2848 185.039 43.2363C184.505 43.1878 184.02 43.1392 183.583 43.1392C182.273 43.1392 181.205 43.4789 180.429 44.2068C179.652 44.9347 178.973 45.9537 178.439 47.2154V63.7626H171.209Z" fill="#333333"/>
<path d="M208.331 63.7625C207.652 63.7625 207.118 63.6655 206.778 63.4714C206.438 63.2773 206.147 62.8891 205.905 62.2582L205.322 60.5598C204.643 61.1422 203.964 61.6759 203.333 62.1127C202.702 62.5494 202.023 62.9376 201.343 63.2287C200.664 63.5199 199.936 63.7625 199.16 63.9081C198.383 64.0537 197.51 64.1507 196.588 64.1507C195.423 64.1507 194.307 64.0052 193.337 63.6655C192.366 63.3743 191.493 62.8891 190.813 62.2582C190.085 61.6274 189.552 60.851 189.163 59.929C188.775 59.007 188.581 57.9395 188.581 56.7263C188.581 55.7073 188.824 54.7368 189.357 53.7663C189.843 52.7958 190.716 51.8738 191.978 51.0488C193.191 50.2239 194.841 49.5445 196.927 49.0108C198.966 48.477 201.537 48.1858 204.643 48.0888V46.6815C204.643 44.9831 204.303 43.7215 203.575 42.9451C202.848 42.1687 201.829 41.7319 200.47 41.7319C199.451 41.7319 198.626 41.829 197.995 42.0716C197.316 42.3142 196.733 42.5569 196.248 42.848C195.763 43.1392 195.278 43.3818 194.841 43.6244C194.404 43.8671 193.919 43.9641 193.337 43.9641C192.851 43.9641 192.415 43.8185 192.075 43.5759C191.735 43.3333 191.444 43.0421 191.201 42.6539L189.94 40.3247C191.541 38.8689 193.288 37.8014 195.229 37.122C197.17 36.3941 199.208 36.0544 201.489 36.0544C203.09 36.0544 204.546 36.2971 205.808 36.8309C207.069 37.3646 208.137 38.0925 209.01 39.0145C209.884 39.9365 210.563 41.0526 211.048 42.3628C211.534 43.673 211.776 45.0802 211.776 46.5845V63.5684H208.331V63.7625ZM198.82 59.2982C199.985 59.2982 201.052 59.1041 201.926 58.6673C202.799 58.2306 203.721 57.5998 204.594 56.6778V52.5046C202.848 52.5531 201.343 52.7472 200.179 52.9413C199.014 53.184 198.092 53.4751 197.364 53.8148C196.636 54.1545 196.2 54.5427 195.908 54.9794C195.617 55.4161 195.472 55.9014 195.472 56.4352C195.472 57.5027 195.763 58.2306 196.345 58.6673C196.976 59.0555 197.801 59.2982 198.82 59.2982Z" fill="#333333"/>
<path d="M223.131 24.651V63.7141H215.9V24.651H223.131Z" fill="#333333"/>
<path d="M236.33 29.0668C236.33 29.6976 236.184 30.2314 235.942 30.7652C235.699 31.2989 235.359 31.7357 234.971 32.1724C234.583 32.6091 234.098 32.9003 233.515 33.0944C232.982 33.337 232.399 33.4341 231.768 33.4341C231.186 33.4341 230.604 33.337 230.07 33.0944C229.536 32.8518 229.051 32.5606 228.663 32.1724C228.275 31.7842 227.935 31.2989 227.692 30.7652C227.45 30.2314 227.353 29.6976 227.353 29.0668C227.353 28.4359 227.45 27.9021 227.692 27.3684C227.935 26.8346 228.226 26.3493 228.663 25.9611C229.099 25.5729 229.536 25.2332 230.07 25.0391C230.604 24.7965 231.186 24.6995 231.768 24.6995C232.399 24.6995 232.982 24.7965 233.515 25.0391C234.049 25.2818 234.534 25.5729 234.971 25.9611C235.408 26.3493 235.699 26.8346 235.942 27.3684C236.184 27.8536 236.33 28.4359 236.33 29.0668ZM235.456 36.7338V63.7625H228.226V36.7338H235.456Z" fill="#333333"/>
<path d="M258.555 63.7625C257.875 63.7625 257.341 63.6655 257.002 63.4714C256.662 63.2773 256.371 62.8891 256.128 62.2582L255.546 60.5598C254.867 61.1422 254.187 61.6759 253.556 62.1127C252.926 62.5494 252.246 62.9376 251.567 63.2287C250.888 63.5199 250.16 63.7625 249.383 63.9081C248.607 64.0537 247.733 64.1507 246.811 64.1507C245.647 64.1507 244.531 64.0052 243.56 63.6655C242.59 63.3743 241.716 62.8891 241.037 62.2582C240.309 61.6274 239.775 60.851 239.387 59.929C238.999 59.007 238.805 57.9395 238.805 56.7263C238.805 55.7073 239.047 54.7368 239.581 53.7663C240.066 52.7958 240.94 51.8738 242.201 51.0488C243.415 50.2239 245.064 49.5445 247.151 49.0108C249.189 48.477 251.761 48.1858 254.867 48.0888V46.6815C254.867 44.9831 254.527 43.7215 253.799 42.9451C253.071 42.1687 252.052 41.7319 250.693 41.7319C249.674 41.7319 248.849 41.829 248.219 42.0716C247.539 42.3142 246.957 42.5569 246.472 42.848C245.986 43.1392 245.501 43.3818 245.064 43.6244C244.628 43.8671 244.143 43.9641 243.56 43.9641C243.075 43.9641 242.638 43.8185 242.299 43.5759C241.959 43.3333 241.668 43.0421 241.425 42.6539L240.163 40.3247C241.765 38.8689 243.512 37.8014 245.453 37.122C247.394 36.3941 249.432 36.0544 251.713 36.0544C253.314 36.0544 254.77 36.2971 256.031 36.8309C257.293 37.3646 258.361 38.0925 259.234 39.0145C260.107 39.9365 260.787 41.0526 261.272 42.3628C261.757 43.673 262 45.0802 262 46.5845V63.5684H258.555V63.7625ZM249.044 59.2982C250.208 59.2982 251.276 59.1041 252.149 58.6673C253.023 58.2306 253.945 57.5998 254.818 56.6778V52.5046C253.071 52.5531 251.567 52.7472 250.402 52.9413C249.238 53.184 248.316 53.4751 247.588 53.8148C246.86 54.1545 246.423 54.5427 246.132 54.9794C245.841 55.4161 245.695 55.9014 245.695 56.4352C245.695 57.5027 245.986 58.2306 246.569 58.6673C247.2 59.0555 247.976 59.2982 249.044 59.2982Z" fill="#333333"/>
<path d="M36.5503 0.630828C33.8329 1.50429 32.3286 4.36729 33.202 7.08472L36.6474 17.8574L32.7653 25.3789L22.5749 24.651L6.75562 19.5558C4.03819 18.6823 1.12665 20.1381 0.253195 22.8555C-0.620265 25.573 0.835501 28.4845 3.55293 29.358L11.4141 31.9298L8.01728 34.8899C5.88216 36.7338 5.63953 40.0336 7.4835 42.1687C9.32747 44.3038 12.6272 44.5464 14.7623 42.654L23.3028 35.2295L31.8433 35.8119L33.3476 40.5674L20.6824 43.5274C17.9165 44.1582 16.1696 46.9242 16.8489 49.7387C17.4798 52.5046 20.2457 54.2516 23.0602 53.5722L37.4238 50.2239L43.0527 60.8025C44.4114 63.3258 47.5171 64.2963 50.0404 62.9376C51.6903 62.0642 52.6608 60.4628 52.7578 58.7644C52.8064 57.8424 52.6123 56.8719 52.1755 55.9985L44.8967 42.3143L41.4514 31.4446L46.0128 22.6614L68.3345 14.0724C70.3241 13.393 71.6343 11.5491 71.7798 9.55953C71.8284 8.88017 71.7313 8.20081 71.4887 7.47293C70.5182 4.80403 67.6067 3.39678 64.9377 4.31877L45.5275 11.7917L43.0527 3.93057C42.1793 1.26166 39.2677 -0.242632 36.5503 0.630828Z" fill="#A8A8A8"/>
</svg>
