<svg width="282" height="98" viewBox="0 0 282 98" fill="none" xmlns="http://www.w3.org/2000/svg">
<path d="M146.691 5.04639H150.351L160.09 29.9438H156.429L153.71 22.4443H143.172L140.382 29.9438H136.97L146.708 5.04639H146.691ZM144.22 19.6543H152.662L148.503 8.03194H148.432L144.203 19.6543H144.22Z" fill="#231F20"/>
<path d="M176.084 29.9615H173.294V27.1003H173.223C171.961 29.3395 169.935 30.388 167.358 30.388C162.613 30.388 161.156 27.669 161.156 23.7949V11.9415H164.124V24.1503C164.124 26.3539 165.528 27.7756 167.785 27.7756C171.375 27.7756 173.116 25.3765 173.116 22.1244V11.9415H176.084V29.9792V29.9615Z" fill="#231F20"/>
<path d="M181.487 24.2748C181.593 26.9227 183.886 27.7579 186.338 27.7579C188.186 27.7579 190.692 27.3314 190.692 25.0745C190.692 22.8175 187.76 22.391 184.792 21.7335C181.86 21.076 178.892 20.0986 178.892 16.6332C178.892 13.0079 182.482 11.4973 185.627 11.4973C189.608 11.4973 192.771 12.7591 193.02 17.1485H190.052C189.839 14.8561 187.813 14.1097 185.858 14.1097C184.081 14.1097 182.02 14.5895 182.02 16.4022C182.02 18.5347 185.165 18.8723 187.92 19.5476C190.887 20.2052 193.82 21.1826 193.82 24.6657C193.82 28.9486 189.803 30.3525 186.143 30.3525C182.091 30.3525 178.679 28.7176 178.501 24.2392H181.469L181.487 24.2748Z" fill="#231F20"/>
<path d="M200.536 11.9236H204.126V14.536H200.536V25.7318C200.536 27.1002 200.927 27.3312 202.775 27.3312H204.126V29.9436H201.851C198.777 29.9436 197.569 29.3216 197.569 25.9984V14.5182H194.494V11.9058H197.569V6.50342H200.536V11.9058V11.9236Z" fill="#231F20"/>
<path d="M207.112 11.9238H209.902V15.7269H209.973C211.413 12.8302 213.386 11.4085 216.602 11.4973V14.6428C211.822 14.6428 210.08 17.3618 210.08 21.929V29.9438H207.112V11.9061V11.9238Z" fill="#231F20"/>
<path d="M234.107 29.8904C233.592 30.2103 232.916 30.3702 231.974 30.3702C230.446 30.3702 229.469 29.535 229.469 27.5802C227.834 29.4994 225.63 30.3702 223.124 30.3702C219.855 30.3702 217.153 28.913 217.153 25.3054C217.153 21.2181 220.192 20.3473 223.249 19.7608C226.536 19.1389 229.327 19.3343 229.327 17.1129C229.327 14.5361 227.194 14.1096 225.31 14.1096C222.805 14.1096 220.956 14.8738 220.814 17.5217H217.846C218.024 13.0611 221.472 11.4795 225.488 11.4795C228.74 11.4795 232.259 12.2081 232.259 16.4376V25.7142C232.259 27.1003 232.259 27.7401 233.201 27.7401C233.449 27.7401 233.716 27.7045 234.107 27.5624V29.8726V29.8904ZM229.291 20.6494C228.136 21.4846 225.914 21.5202 223.924 21.8756C221.969 22.231 220.299 22.9241 220.299 25.1277C220.299 27.0826 221.969 27.7756 223.782 27.7756C227.692 27.7756 229.291 25.341 229.291 23.6883V20.6494Z" fill="#231F20"/>
<path d="M236.346 5.04639H239.313V29.9438H236.346V5.04639Z" fill="#231F20"/>
<path d="M245.48 8.6717H242.513V5.04639H245.48V8.6717ZM242.513 11.9238H245.48V29.9615H242.513V11.9238Z" fill="#231F20"/>
<path d="M265.01 29.8904C264.477 30.2103 263.82 30.3702 262.878 30.3702C261.349 30.3702 260.372 29.535 260.372 27.5802C258.737 29.4994 256.533 30.3702 254.028 30.3702C250.758 30.3702 248.057 28.913 248.057 25.3054C248.057 21.2181 251.095 20.3473 254.17 19.7608C257.458 19.1389 260.23 19.3343 260.23 17.1129C260.23 14.5361 258.097 14.1096 256.214 14.1096C253.708 14.1096 251.86 14.8738 251.717 17.5217H248.75C248.927 13.0611 252.375 11.4795 256.391 11.4795C259.643 11.4795 263.162 12.2081 263.162 16.4376V25.7142C263.162 27.1003 263.162 27.7401 264.104 27.7401C264.353 27.7401 264.619 27.7045 265.01 27.5624V29.8726V29.8904ZM260.194 20.6494C259.039 21.4846 256.818 21.5202 254.827 21.8756C252.873 22.231 251.202 22.9241 251.202 25.1277C251.202 27.0826 252.873 27.7756 254.685 27.7756C258.595 27.7756 260.194 25.341 260.194 23.6883V20.6494Z" fill="#231F20"/>
<path d="M267.072 11.9238H269.862V14.7849H269.933C271.195 12.5457 273.203 11.515 275.798 11.515C280.543 11.515 282 14.234 282 18.1081V29.9615H279.032V17.7527C279.032 15.5491 277.646 14.1274 275.371 14.1274C271.782 14.1274 270.04 16.5265 270.04 19.7786V29.9615H267.072V11.9238Z" fill="#231F20"/>
<path d="M138.408 35.1328H141.927L155.042 55.3208H155.113V35.1328H158.259V60.048H154.633L141.625 40.0554H141.554V60.048H138.408V35.1328Z" fill="#231F20"/>
<path d="M178.252 59.9591C177.736 60.2789 177.061 60.4566 176.119 60.4566C174.591 60.4566 173.613 59.6214 173.613 57.6666C171.978 59.5859 169.775 60.4566 167.269 60.4566C163.981 60.4566 161.298 58.9816 161.298 55.3919C161.298 51.3045 164.337 50.4337 167.393 49.8473C170.681 49.2253 173.471 49.4208 173.471 47.1994C173.471 44.6226 171.339 44.196 169.455 44.196C166.949 44.196 165.101 44.9602 164.959 47.6081H161.991C162.169 43.1476 165.616 41.5659 169.633 41.5659C172.885 41.5659 176.403 42.2945 176.403 46.5241V55.8006C176.403 57.2045 176.403 57.8265 177.345 57.8265C177.594 57.8265 177.861 57.791 178.252 57.6488V59.9591ZM173.436 50.7181C172.28 51.5533 170.059 51.5888 168.069 51.9443C166.114 52.2997 164.443 52.9928 164.443 55.1964C164.443 57.1512 166.114 57.8443 167.926 57.8443C171.836 57.8443 173.436 55.4096 173.436 53.7569V50.7181Z" fill="#231F20"/>
<path d="M184.418 41.9925H188.008V44.6048H184.418V55.8007C184.418 57.169 184.809 57.4 186.657 57.4H188.026V60.0124H185.751C182.677 60.0124 181.45 59.3904 181.45 56.0672V44.5871H178.376V41.9747H181.45V36.5723H184.418V41.9747V41.9925Z" fill="#231F20"/>
<path d="M193.73 38.7581H190.763V35.1328H193.73V38.7581ZM190.763 42.0102H193.73V60.048H190.763V42.0102Z" fill="#231F20"/>
<path d="M204.713 41.5837C210.436 41.5837 213.474 45.7422 213.474 51.038C213.474 56.3338 210.436 60.4567 204.713 60.4567C198.991 60.4567 195.952 56.2983 195.952 51.038C195.952 45.7777 198.991 41.5837 204.713 41.5837ZM204.713 57.8443C207.823 57.8443 210.329 55.4097 210.329 51.038C210.329 46.6663 207.823 44.1961 204.713 44.1961C201.603 44.1961 199.098 46.6308 199.098 51.038C199.098 55.4452 201.603 57.8443 204.713 57.8443Z" fill="#231F20"/>
<path d="M216.087 41.9924H218.877V44.8536H218.948C220.21 42.6144 222.236 41.5659 224.813 41.5659C229.557 41.5659 231.015 44.2849 231.015 48.159V60.0124H228.047V47.8036C228.047 45.6 226.643 44.1783 224.386 44.1783C220.796 44.1783 219.055 46.5774 219.055 49.8295V60.0124H216.087V41.9747V41.9924Z" fill="#231F20"/>
<path d="M249.87 59.9591C249.354 60.2789 248.679 60.4566 247.737 60.4566C246.209 60.4566 245.231 59.6214 245.231 57.6666C243.596 59.5859 241.393 60.4566 238.887 60.4566C235.617 60.4566 232.916 58.9816 232.916 55.3919C232.916 51.3045 235.955 50.4337 239.012 49.8473C242.299 49.2253 245.071 49.4208 245.071 47.1994C245.071 44.6226 242.939 44.196 241.055 44.196C238.549 44.196 236.701 44.9602 236.559 47.6081H233.591C233.769 43.1476 237.217 41.5659 241.233 41.5659C244.467 41.5659 248.004 42.2945 248.004 46.5241V55.8006C248.004 57.2045 248.004 57.8265 248.946 57.8265C249.194 57.8265 249.461 57.791 249.852 57.6488V59.9591H249.87ZM245.054 50.7181C243.899 51.5533 241.677 51.5888 239.687 51.9443C237.732 52.2997 236.062 52.9928 236.062 55.1964C236.062 57.1512 237.732 57.8443 239.545 57.8443C243.454 57.8443 245.054 55.4096 245.054 53.7569V50.7181Z" fill="#231F20"/>
<path d="M252.109 35.1328H255.077V60.048H252.109V35.1328Z" fill="#231F20"/>
<path d="M158.331 81.1068C158.331 87.38 154.741 90.7032 148.521 90.7032C142.301 90.7032 138.303 87.7355 138.303 81.1068V65.2017H141.626V81.1068C141.626 85.4963 144.132 87.9132 148.539 87.9132C152.946 87.9132 155.025 85.5141 155.025 81.1068V65.2017H158.349V81.1068H158.331Z" fill="#231F20"/>
<path d="M161.583 72.079H164.373V74.9402H164.444C165.706 72.701 167.732 71.6703 170.309 71.6703C175.054 71.6703 176.529 74.3893 176.529 78.2634V90.1167H173.561V77.9079C173.561 75.7043 172.175 74.2826 169.9 74.2826C166.31 74.2826 164.569 76.6817 164.569 79.9339V90.1167H161.601V72.079H161.583Z" fill="#231F20"/>
<path d="M182.535 68.8447H179.567V65.2194H182.535V68.8447ZM179.567 72.0968H182.535V90.1345H179.567V72.0968Z" fill="#231F20"/>
<path d="M194.566 90.1167H191.385L184.686 72.079H187.991L193.056 87.1134H193.127L198.049 72.079H201.159L194.566 90.1167Z" fill="#231F20"/>
<path d="M217.277 84.3944C216.478 88.3752 213.617 90.5432 209.565 90.5432C203.807 90.5432 201.088 86.5625 200.91 81.0535C200.91 75.651 204.464 71.6703 209.387 71.6703C215.767 71.6703 217.722 77.6414 217.544 81.9953H204.038C203.931 85.1408 205.708 87.9309 209.654 87.9309C212.088 87.9309 213.812 86.7402 214.327 84.4122H217.26L217.277 84.3944ZM214.416 79.3652C214.274 76.5396 212.142 74.2649 209.227 74.2649C206.117 74.2649 204.269 76.6107 204.056 79.3652H214.416Z" fill="#231F20"/>
<path d="M219.818 72.079H222.608V75.882H222.68C224.101 72.9853 226.092 71.5636 229.308 71.6703V74.8157C224.528 74.8157 222.786 77.5347 222.786 82.1019V90.1167H219.818V72.079Z" fill="#231F20"/>
<path d="M233.343 84.43C233.449 87.0779 235.742 87.9131 238.194 87.9131C240.043 87.9131 242.548 87.4866 242.548 85.2297C242.548 82.9727 239.616 82.5462 236.648 81.8887C233.716 81.2312 230.748 80.2537 230.748 76.7884C230.748 73.1631 234.338 71.6703 237.483 71.6703C241.464 71.6703 244.627 72.932 244.876 77.3215H241.908C241.695 75.0113 239.687 74.2826 237.732 74.2826C235.955 74.2826 233.894 74.7802 233.894 76.5929C233.894 78.7254 237.039 79.0631 239.794 79.7384C242.761 80.3959 245.694 81.3733 245.694 84.8565C245.694 89.1571 241.677 90.5432 238.017 90.5432C233.965 90.5432 230.553 88.9083 230.375 84.43H233.343Z" fill="#231F20"/>
<path d="M250.705 68.8447H247.737V65.2194H250.705V68.8447ZM247.737 72.0968H250.705V90.1345H247.737V72.0968Z" fill="#231F20"/>
<path d="M258.737 72.0789H262.327V74.6912H258.737V85.8871C258.737 87.2377 259.128 87.4865 260.959 87.4865H262.327V90.0988H260.07C256.996 90.0988 255.77 89.4768 255.77 86.1536V74.6735H252.695V72.0611H255.77V66.6587H258.737V72.0611V72.0789Z" fill="#231F20"/>
<path d="M272.688 92.5158C271.32 96.0345 270.111 97.3318 267.446 97.3318C266.753 97.3318 266.059 97.2607 265.384 97.0119V94.2929C265.953 94.4706 266.539 94.7194 267.126 94.7194C268.352 94.7194 269.009 94.133 269.56 93.0845L270.787 90.0101L263.643 72.079H266.984L272.244 86.829H272.315L277.38 72.079H280.525L272.67 92.5158H272.688Z" fill="#231F20"/>
<path d="M120.443 75.9888C120.443 75.9888 116.462 72.0613 113.068 70.4442C111.45 69.6622 110.135 69.1113 108.802 68.7381C109.158 68.0095 109.513 67.2809 109.869 66.5878C112.374 61.5586 114.525 57.2224 113.583 54.3257C113.547 54.1836 113.459 54.0414 113.405 53.8992C113.405 53.8992 113.387 53.8637 113.37 53.8459C112.996 53.0284 112.392 52.1399 111.664 51.4468C110.331 50.1673 106.972 48.3191 105.177 47.3239L104.626 47.0218C103.08 46.151 101.321 46.0977 99.5259 46.8441C96.2205 48.2125 93.5548 51.9622 92.9862 54.0236C92.0265 57.4535 93.6437 58.5553 93.8214 58.6619L97.4467 60.9188L93.4304 70.4619C89.2365 71.9014 84.7759 73.8385 80.4042 75.7577C74.362 78.4056 68.6397 80.8936 63.9481 81.9421L63.5572 82.031C63.0773 82.1376 62.5264 82.2798 61.709 82.3686C60.9981 82.4575 60.6071 82.4752 60.3761 82.4752H60.3406C60.1806 82.4752 59.843 82.4752 59.0077 82.3686C58.208 82.262 57.6571 82.1376 57.1595 82.0132L56.7686 81.9243C52.0592 80.8758 46.3547 78.3701 40.2947 75.74C35.923 73.8207 31.4625 71.8836 27.2685 70.4442L23.2522 60.9011L26.8775 58.6441L26.9841 58.573C26.9841 58.573 28.8501 56.7959 27.695 53.9348C26.7709 51.6778 23.892 47.8037 20.6398 46.6664C19.0404 46.0977 17.4943 46.2221 16.0904 47.0218L15.5395 47.3239C13.7446 48.3191 10.3859 50.1673 9.05305 51.4468C8.32444 52.1399 7.70245 53.0284 7.32925 53.8459C7.32925 53.8459 7.31148 53.8815 7.29371 53.8992C7.22262 54.0414 7.15154 54.2013 7.116 54.3435C6.17413 57.2224 8.34221 61.5764 10.8479 66.6056C11.2034 67.2987 11.5588 68.0273 11.9142 68.7559C10.5814 69.1291 9.26631 69.68 7.64913 70.4619C4.27262 72.0791 0.327419 75.971 0.274105 76.0065C0.0430804 76.2376 0.0075424 76.5752 0.167483 76.8418C0.185254 76.8773 2.19339 80.1828 2.81538 82.4752C3.43737 84.821 3.29521 88.4997 3.22412 89.637C3.20635 89.7792 3.18858 89.9213 3.20635 90.0457C3.20635 90.0457 3.20635 90.0457 3.20635 90.0635C3.20635 90.0635 3.20635 90.0635 3.20635 90.0813C3.20635 90.0813 3.20635 90.0813 3.20635 90.0991C3.24189 91.5385 4.50364 92.9424 6.60064 93.8843C7.98678 94.5063 9.71059 94.8973 11.4344 94.8973C13.5669 94.8973 15.735 94.3108 17.3877 92.818C17.3877 92.818 17.4055 92.818 17.4233 92.7825C17.7965 92.4448 21.5639 89.1216 27.1974 86.2249C27.7483 86.4737 28.2992 86.7403 28.8679 87.0247L29.1344 87.149C31.3203 88.1975 39.033 91.7695 46.5146 94.3108C53.552 96.7099 58.6168 96.9943 60.0207 97.0298H60.6605C62.0466 96.9943 67.1114 96.7099 74.1488 94.3108C81.6304 91.7695 89.3431 88.1798 91.5289 87.149L91.7955 87.0247C92.3642 86.7403 92.9151 86.4737 93.466 86.2249C99.0994 89.1216 102.867 92.4448 103.24 92.7825C103.24 92.7825 103.276 92.8003 103.276 92.818C104.928 94.3108 107.096 94.8973 109.229 94.8973C110.971 94.8973 112.677 94.5063 114.063 93.8843C116.16 92.9424 117.421 91.5385 117.457 90.0991C117.457 90.0991 117.457 90.0991 117.457 90.0813C117.457 90.0813 117.457 90.0813 117.457 90.0635C117.457 90.0635 117.457 90.0635 117.457 90.0457C117.457 89.9213 117.457 89.7792 117.439 89.637C117.368 88.4997 117.208 84.821 117.848 82.4752C118.47 80.1828 120.46 76.8773 120.496 76.8418C120.656 76.5752 120.62 76.2198 120.389 76.0065L120.443 75.9888ZM94.3012 54.3791C94.7988 52.5842 97.2868 49.2432 100.041 48.0881C101.445 47.5016 102.76 47.5372 103.933 48.2125L104.502 48.5323C105.959 49.332 108.802 50.9137 110.242 52.051C109.602 52.0155 108.891 52.1399 108.074 52.4598C104.182 54.0414 100.699 58.502 100.699 60.9011C100.699 61.061 100.717 61.1854 100.734 61.3276L94.55 57.4712C94.55 57.4712 93.6259 56.7782 94.3012 54.3613V54.3791ZM102.689 62.536C102.689 62.536 102.103 62.1984 102.103 60.9011C102.103 60.2258 102.547 59.2306 103.293 58.1643L105.657 59.6038C105.675 59.817 105.675 60.1369 105.586 60.4923C105.337 61.4164 104.36 62.6782 103.08 62.6426C102.974 62.6426 102.76 62.5893 102.689 62.5538V62.536ZM98.6196 61.6297L101.907 63.6734C102.032 63.7445 102.138 63.7978 102.174 63.8155C102.494 63.9399 102.867 63.9932 102.991 63.9932C104.928 64.0999 106.421 62.4294 106.865 60.8477C107.132 59.8881 106.937 59.0884 106.901 58.9995L106.83 58.733L104.093 57.0803C105.266 55.7297 106.848 54.4324 108.571 53.7393C110.828 52.8152 111.877 54.1125 112.126 54.4857C112.161 54.5745 112.215 54.6812 112.25 54.7522C113.014 57.098 110.971 61.221 108.607 65.9658C108.216 66.7655 107.807 67.583 107.399 68.4183C106.457 68.2583 105.444 68.1695 104.271 68.1695C101.534 68.1695 98.4241 68.827 95.1187 69.8577L98.5841 61.6119L98.6196 61.6297ZM16.1971 48.5146L16.7657 48.1947C17.8498 47.5905 18.9694 47.5194 20.1956 47.9459C23.1633 48.9944 25.7224 52.6908 26.4332 54.4324C27.1618 56.2095 26.2911 57.2935 26.0956 57.5068L19.9645 61.3276C19.9645 61.1854 20.0001 61.061 20.0001 60.8833C20.0001 58.4842 16.5347 54.0236 12.6251 52.442C11.8076 52.1221 11.0967 51.9977 10.457 52.0333C11.8964 50.8959 14.7576 49.3143 16.1971 48.5146ZM18.0275 62.536C18.0275 62.536 17.7431 62.6249 17.6365 62.6249C16.3214 62.6604 15.3974 61.3987 15.1308 60.4746C15.0419 60.1191 15.0419 59.7993 15.0597 59.586L17.4233 58.1465C18.1696 59.2128 18.6139 60.208 18.6139 60.8833C18.6139 62.0207 18.2052 62.3938 18.0808 62.4827L18.0275 62.5182V62.536ZM12.0742 65.9658C9.71059 61.2032 7.6669 57.098 8.43106 54.7522C8.4666 54.6634 8.50215 54.5745 8.55546 54.4857C8.80426 54.1125 9.85276 52.8152 12.1097 53.7393C13.8335 54.4324 15.3973 55.7297 16.588 57.0803L13.8513 58.733L13.7802 58.9995C13.7624 59.0884 13.5669 59.9059 13.8157 60.8477C14.26 62.4294 15.7705 64.0999 17.6898 63.9932C17.832 63.9932 18.223 63.9399 18.5428 63.7978C18.5784 63.7978 18.6317 63.7622 18.7028 63.7267C18.7206 63.7267 18.7383 63.7267 18.7561 63.6911L22.0793 61.6119L25.5447 69.8577C22.2392 68.827 19.1471 68.1695 16.3925 68.1695C15.2196 68.1695 14.2245 68.2583 13.2648 68.4183C12.8561 67.583 12.4473 66.7478 12.0564 65.9481L12.0742 65.9658ZM18.063 89.2105C17.3344 90.9165 16.6236 91.6629 16.5169 91.7695L16.4992 91.7873C14.0645 93.9909 9.95938 93.8843 7.16931 92.6226C5.56991 91.9117 4.5925 90.9165 4.57473 90.0457V89.7969C4.96569 87.9665 9.3907 83.3283 17.3522 83.2216C17.8142 84.7322 18.685 87.7888 18.0808 89.2105H18.063ZM19.4492 89.3882C19.929 87.7888 19.4136 85.443 18.7916 83.3283C20.551 83.577 22.8612 84.3234 25.598 85.4963C23.0745 86.8647 20.9775 88.2509 19.4314 89.3882H19.4492ZM95.0832 85.4963C97.8199 84.3057 100.148 83.577 101.89 83.3283C101.268 85.443 100.77 87.8066 101.232 89.406C99.6859 88.2686 97.5889 86.8825 95.0654 85.5141L95.0832 85.4963ZM113.547 92.6226C110.757 93.8665 106.652 93.9732 104.218 91.7873C104.218 91.7873 104.218 91.7873 104.2 91.7873C104.093 91.6985 103.382 90.9521 102.636 89.2283C102.032 87.8066 102.902 84.7499 103.365 83.2394C111.326 83.3282 115.751 87.9843 116.124 89.8147V90.0635C116.124 90.9521 115.147 91.9473 113.547 92.6403V92.6226ZM116.568 82.102C116.178 83.5593 116.053 85.443 116.053 87.0247C113.867 84.5189 109.336 81.8355 103.133 81.8355C100.521 81.8355 96.3982 83.2038 91.209 85.7807L90.9603 85.9051C88.7922 86.9358 81.1328 90.49 73.7223 93.0135C66.7026 95.3949 61.6201 95.6437 60.6427 95.6614H60.0562C59.0966 95.6437 54.014 95.3949 46.9767 93.0135C39.5661 90.49 31.9067 86.9358 29.7387 85.9051L29.4899 85.7807C24.3007 83.2038 20.1778 81.8355 17.5654 81.8355C11.3633 81.8355 6.83166 84.5189 4.64581 87.0247C4.64581 85.443 4.52141 83.5593 4.13045 82.102C3.59731 80.1472 2.21116 77.6415 1.62472 76.593C2.67321 75.6156 5.69431 72.8966 8.23558 71.6704C11.3633 70.1776 13.176 69.5378 16.4103 69.5378C22.7546 69.5378 31.4092 73.3231 39.7616 76.9662C45.8749 79.6318 51.6327 82.1553 56.4842 83.2394L56.8574 83.3283C57.3728 83.4526 57.9592 83.5948 58.8478 83.7014C59.683 83.8081 60.1273 83.8258 60.4117 83.8258C60.6071 83.8258 61.0514 83.8258 61.8867 83.7014C62.7574 83.5948 63.3439 83.4526 63.877 83.3283L64.2502 83.2394C69.084 82.1553 74.8596 79.6318 80.9729 76.9662C89.3253 73.3231 97.9799 69.5378 104.324 69.5378C107.559 69.5378 109.389 70.1598 112.499 71.6704C115.04 72.8966 118.061 75.5978 119.11 76.593C118.506 77.6237 117.119 80.1472 116.604 82.102H116.568Z" fill="black"/>
<path d="M60.4303 78.0857C58.1556 78.0857 54.7435 77.4459 46.6221 72.7188C38.1275 67.7607 33.8802 64.4197 31.1079 57.6311C28.3889 50.9492 27.376 42.81 27.376 27.6334C27.376 12.4568 27.9802 1.66976 27.9802 1.56313C27.9802 1.36765 28.0691 1.20771 28.2112 1.08332C28.3534 0.958919 28.5311 0.905605 28.7266 0.923376C44.0275 2.29175 53.7484 2.48723 58.1734 2.48723C59.6484 2.48723 60.3948 2.46946 60.3948 2.46946C60.4481 2.46946 61.1945 2.48723 62.6695 2.48723C67.0945 2.48723 76.8153 2.29175 92.1163 0.923376C92.294 0.905605 92.4894 0.958919 92.6316 1.08332C92.7738 1.20771 92.8626 1.38542 92.8626 1.56313C92.8626 1.66976 93.4669 13.0433 93.4669 27.6334C93.4669 42.2235 92.4539 50.9492 89.7349 57.6311C86.9804 64.4197 82.7153 67.7784 74.2385 72.7188C66.0993 77.4459 62.6872 78.0857 60.4303 78.0857ZM29.313 2.32729C29.1886 5.02851 28.7444 15.1403 28.7444 27.6156C28.7444 42.5967 29.7218 50.5937 32.3697 57.098C34.982 63.5133 39.0872 66.7299 47.2974 71.5281C55.1878 76.1309 58.4577 76.7173 60.4125 76.7173C62.3851 76.7173 65.6373 76.1309 73.5276 71.5281C81.7379 66.7477 85.843 63.5311 88.4554 57.098C91.1033 50.5937 92.0807 42.5967 92.0807 27.6156C92.0807 15.1403 91.6364 5.02851 91.512 2.32729C76.5665 3.64236 67.0234 3.83784 62.6517 3.83784C61.1767 3.83784 60.4303 3.82007 60.3948 3.82007C60.3948 3.82007 59.6306 3.83784 58.1734 3.83784C53.7839 3.83784 44.2586 3.64236 29.313 2.32729Z" fill="black"/>
<path d="M84.5444 49.5984C81.3633 49.5984 79.1775 50.9846 77.2405 52.193C75.6411 53.1882 74.2727 54.059 72.4778 54.059C70.6829 54.059 69.3145 53.1882 67.7151 52.193C65.7781 50.9668 63.5922 49.5984 60.4112 49.5984C57.2301 49.5984 55.0443 50.9846 53.1072 52.193C51.5078 53.1882 50.1395 54.059 48.3446 54.059C46.5497 54.059 45.1813 53.1882 43.5819 52.193C41.6448 50.9668 39.459 49.5984 36.278 49.5984C34.6075 49.5984 33.2213 49.9716 31.9951 50.5048C32.2972 51.8554 32.6526 53.1349 33.0614 54.3434C34.0388 53.8458 35.0518 53.5259 36.2602 53.5259C38.3039 53.5259 39.7789 54.45 41.4671 55.5162C43.3153 56.6714 45.3946 58.0042 48.3268 58.0042C51.259 58.0042 53.3383 56.6891 55.1865 55.5162C56.8747 54.45 58.3497 53.5259 60.3934 53.5259C62.4371 53.5259 63.9121 54.45 65.6004 55.5162C67.4486 56.6714 69.5278 58.0042 72.46 58.0042C75.3923 58.0042 77.4715 56.6891 79.3197 55.5162C81.0079 54.45 82.4652 53.5259 84.5266 53.5259C85.7528 53.5259 86.748 53.8635 87.7254 54.3434C88.1342 53.1349 88.4896 51.8732 88.7917 50.5048C87.5655 49.9716 86.1793 49.5807 84.5089 49.5807L84.5444 49.5984Z" fill="black"/>
<path d="M41.5027 46.684C43.3509 47.8392 45.4301 49.172 48.3624 49.172C51.2946 49.172 53.3738 47.8569 55.222 46.684C56.9103 45.6178 58.3853 44.6937 60.429 44.6937C62.4726 44.6937 63.9477 45.6178 65.6359 46.684C67.4841 47.8392 69.5633 49.172 72.4956 49.172C75.4278 49.172 77.507 47.8569 79.3552 46.684C79.4441 46.6307 79.533 46.5774 79.6218 46.5241C77.9869 46.0087 66.4178 42.5433 66.4001 42.5433C63.4145 41.6903 61.0865 41.1039 60.4112 41.1039H60.3757C58.794 41.1039 48.4512 44.2494 41.2539 46.5063C41.3428 46.5596 41.4316 46.6129 41.5205 46.684H41.5027Z" fill="black"/>
<path d="M84.5442 58.4485C81.3631 58.4485 79.1773 59.8346 77.2402 61.0431C75.6408 62.056 74.2725 62.909 72.4776 62.909C70.6827 62.909 69.3143 62.0383 67.7149 61.0431C65.7779 59.8169 63.592 58.4485 60.411 58.4485C57.2299 58.4485 55.0441 59.8346 53.107 61.0431C51.5076 62.056 50.1392 62.909 48.3444 62.909C46.5495 62.909 45.1811 62.0383 43.5817 61.0431C41.6446 59.8169 39.4588 58.4485 36.2777 58.4485C35.7802 58.4485 35.3359 58.484 34.8916 58.5551C35.7091 60.0479 36.6687 61.363 37.8061 62.5714C39.1211 62.8913 40.2407 63.6021 41.4847 64.384C43.3329 65.5392 45.4121 66.872 48.3444 66.872C51.2766 66.872 53.3558 65.5569 55.204 64.384C56.8923 63.3178 58.3673 62.3937 60.411 62.3937C62.4546 62.3937 63.9297 63.3178 65.6179 64.384C67.4661 65.5392 69.5453 66.872 72.4776 66.872C75.4098 66.872 77.489 65.5569 79.3372 64.384C80.5812 63.6021 81.7008 62.8913 83.0159 62.5714C84.1532 61.363 85.1129 60.0657 85.9303 58.5551C85.4861 58.5018 85.024 58.4485 84.5264 58.4485H84.5442Z" fill="black"/>
<path d="M65.8487 69.4132C64.3026 68.3647 62.7032 67.2806 60.4285 67.2806C58.4914 67.2806 57.0519 68.2758 55.6836 69.2355C54.3685 70.1418 53.0179 71.0837 50.9209 71.5102C52.9468 72.5764 54.5462 73.3051 55.8613 73.7849C56.6432 73.3406 57.3185 72.8785 57.9227 72.4698C59.0779 71.6701 59.7532 71.2258 60.4462 71.2258C61.4592 71.2258 62.2944 71.7412 63.6628 72.6831C64.1426 73.003 64.6758 73.3584 65.2622 73.7138C66.5417 73.234 68.1056 72.5053 70.0249 71.4924C68.3188 71.0837 67.1104 70.284 65.8487 69.4309V69.4132Z" fill="black"/>
<path d="M74.2202 7.16101L74.8421 9.3824L77.0813 8.93813L75.7129 10.8041L77.4723 12.2791L75.1798 12.368L75.1087 14.6782L73.5982 12.9366L71.7677 14.3228L72.1765 12.0659L69.9551 11.4794L71.9632 10.3954L71.0391 8.29836L73.1539 9.18692L74.2202 7.16101Z" fill="black"/>
<path d="M64.6585 14.8736L62.7037 13.6652L63.2724 15.8866L61.1221 16.6508L63.2191 17.5749L62.4727 19.7252L64.4986 18.6589L65.7248 20.5959L66.1513 18.3212L68.426 18.6056L66.9155 16.864L68.5504 15.2468L66.2757 15.3357L66.0091 13.0432L64.6585 14.8736Z" fill="black"/>
<path d="M81.0439 16.1531L78.9825 15.1579L79.7822 17.3082L77.7207 18.2856L79.9066 18.9787L79.3912 21.2178L81.2927 19.9383L82.7144 21.7332L82.8921 19.4407L85.1846 19.4763L83.4963 17.8946L84.9713 16.1175L82.7144 16.4374L82.199 14.1982L81.0439 16.1531Z" fill="black"/>
<path d="M73.8821 20.4538L71.6963 20.5426L73.4379 21.8755L72.8159 23.9725L74.6108 22.7285L76.4056 23.9725L75.8014 21.8577L77.5252 20.5426L75.3571 20.4893L74.6108 18.4279L73.8821 20.4538Z" fill="black"/>
<path d="M70.0623 26.9048L67.8587 26.2473L68.996 28.2376L67.1123 29.5349L69.3692 29.8904L69.2093 32.1651L70.8976 30.6012L72.5858 32.1651L72.3903 29.8548L74.6828 29.5349L72.7635 28.2376L73.9187 26.2473L71.7506 26.9403L70.8976 24.79L70.0623 26.9048Z" fill="black"/>
<path d="M60.5894 38.7758C63.0241 38.7758 86.1976 46.2042 86.8729 46.4174C87.5482 46.6129 89.7519 47.5193 89.7519 45.6355C89.7519 43.7518 86.6775 42.8277 77.6853 38.5271C68.6931 34.2264 62.8108 31.1698 60.6249 31.1698C58.4391 31.1698 52.5746 34.2264 43.5646 38.5271C34.5724 42.8277 31.498 43.7518 31.498 45.6355C31.498 47.5193 33.7017 46.6307 34.377 46.4174C35.0523 46.222 58.1192 38.7758 60.5539 38.7758H60.5894Z" fill="black"/>
<path d="M8.7159 76.7528C8.55596 76.4152 8.46711 76.2019 8.44934 76.0775C8.44934 76.0775 8.50265 76.0064 8.76922 75.8109L8.5915 75.5621C8.34271 75.7043 8.14723 75.7932 8.00506 75.882C7.84512 75.9531 7.66741 76.042 7.43638 76.1841L7.61409 76.4329C7.82734 76.3263 7.93397 76.3085 7.96952 76.3085C7.96952 76.3085 8.00506 76.3085 8.05837 76.3974C8.165 76.5573 8.46711 77.1438 8.9647 78.1567L9.17795 78.4766L9.28458 78.7076C8.94693 78.5477 8.50265 78.3344 7.96952 78.0323C7.18759 77.6058 6.49451 77.2326 5.87252 76.8772L5.32161 77.1793C5.23276 77.2326 5.07282 77.2859 4.8418 77.4459L5.01951 77.7124C5.23276 77.6236 5.30384 77.6058 5.35715 77.6058L5.41047 77.5703L5.44602 77.6769C5.44602 77.6769 5.5171 77.8013 5.58818 77.9257L6.4412 79.6317C6.56559 79.8805 6.65445 80.076 6.72553 80.236C6.84993 80.5203 6.92101 80.6802 6.93879 80.7691H6.9921L6.95656 80.8935C6.95656 80.8935 6.88548 80.9468 6.63668 81.1423L6.77885 81.4266H6.83216C7.08096 81.2489 7.29421 81.1423 7.45415 81.0712L7.98728 80.7691L7.88066 80.5381H7.80957H7.75626C7.70295 80.5558 7.63186 80.5914 7.52524 80.6269V80.6802L7.41861 80.6269C7.40084 80.5914 7.34752 80.5203 7.20536 80.2537C7.04542 79.9516 6.88548 79.6495 6.74331 79.3652L6.33457 78.6365L6.05023 78.0679C7.61409 78.9387 8.8403 79.5784 9.69332 79.9872C9.83549 79.9338 9.99543 79.8983 10.1376 79.8628L10.1909 79.7561C10.031 79.5073 9.65778 78.7432 9.05356 77.517C8.98247 77.357 8.85807 77.1082 8.69813 76.7706L8.7159 76.7528ZM9.33789 78.7965C9.33789 78.7965 9.14241 78.7076 9.03578 78.6543C9.12464 78.6899 9.2135 78.7254 9.30235 78.7432V78.7965H9.33789ZM6.05023 77.979C6.35234 78.1567 6.63668 78.2989 6.92102 78.4588C6.65445 78.3167 6.37011 78.1923 6.08577 78.0323L6.05023 77.979Z" fill="black"/>
<path d="M13.8519 78.2277L13.7097 78.2455L11.044 74.7623L10.6531 74.9045L10.4931 78.5831C10.4753 78.8675 10.4576 79.0452 10.4576 79.0807L10.3865 79.2229C10.3865 79.2229 10.3332 79.2584 10.1377 79.3828L10.2265 79.6849L11.4705 79.2762L11.3461 78.9919C11.204 79.0274 11.0796 79.0452 10.9552 78.9919C10.9552 78.9563 10.9196 78.8142 10.9374 78.4587L10.9019 78.1211L12.1636 77.7123L12.5723 78.2988C12.6612 78.4232 12.679 78.4765 12.6967 78.5654C12.6967 78.5654 12.6434 78.6009 12.3591 78.7608L12.5013 79.0452L14.1362 78.512L14.0118 78.2277H13.8874H13.8519ZM11.9681 77.3569C11.9681 77.3569 11.9503 77.3569 11.9326 77.3569C11.9326 77.3569 11.9326 77.3569 11.9504 77.3569H11.9681ZM11.435 77.4635C11.2573 77.5169 11.1151 77.5524 11.0085 77.6235C11.0085 77.6235 10.9729 77.6235 10.9552 77.6235L11.0263 76.0774L11.7371 77.0015L11.9504 77.3036C11.8082 77.3569 11.6305 77.4102 11.4528 77.4635H11.435Z" fill="black"/>
<path d="M16.3044 73.9627L16.2156 73.8916C16.2156 73.8916 16.0556 73.9271 15.9846 73.9449C15.8424 73.9627 15.5403 73.9982 15.096 74.0515L14.0297 74.1759C13.6032 74.2292 13.3189 74.2648 13.1589 74.2648C13.0701 74.2648 12.9812 74.2648 12.8924 74.2648L12.8213 74.3536C12.8391 74.4603 12.8746 74.5491 12.8746 74.638C12.8746 74.6913 12.9101 74.9223 13.0168 75.3844L13.2833 75.2955C13.2833 75.1178 13.2656 74.9579 13.2833 74.8157L13.3544 74.7091C13.4966 74.6735 13.6565 74.6558 13.852 74.638L14.1719 74.5491C14.1719 74.5491 14.2252 74.8868 14.2785 75.3844L14.4918 77.2326C14.5629 77.7835 14.5629 77.979 14.5629 78.0323C14.5629 78.0856 14.5451 78.1211 14.5095 78.1389C14.5095 78.1389 14.4385 78.1744 14.1186 78.2811L14.1541 78.5832H14.2074C14.5273 78.5121 14.8117 78.4766 15.0605 78.441C15.2915 78.4055 15.5758 78.3877 15.9668 78.3166L15.8779 78.0145C15.6469 78.0323 15.5225 78.0145 15.5225 78.0145C15.487 78.0145 15.4692 77.979 15.4514 77.9256C15.4336 77.8723 15.3981 77.6769 15.327 77.1259L15.1138 75.2777C15.0605 74.7802 15.0249 74.4958 14.9716 74.478L15.3448 74.4247C15.5403 74.407 15.718 74.3892 15.9135 74.3892C15.9135 74.3892 15.9135 74.407 15.949 74.4958C15.9846 74.638 16.0201 74.7802 16.0912 74.9934L16.3577 74.9223C16.3222 74.4958 16.2867 74.2648 16.2867 74.247C16.2867 74.1582 16.2867 74.0338 16.2867 73.9094L16.3044 73.9627Z" fill="black"/>
<path d="M20.3023 74.5492C20.3023 74.5492 20.3378 74.5315 20.4444 74.5315C20.48 74.5315 20.5333 74.5315 20.6399 74.4959V74.1938L19.9646 74.1583C19.9113 74.1583 19.7158 74.1227 19.3426 74.1405V74.4426C19.5914 74.4604 19.6803 74.5137 19.7514 74.5848C19.7514 74.6203 19.7514 74.7269 19.7514 75.0468C19.7514 75.1712 19.7158 75.4911 19.6625 76.042L19.6092 76.6818C19.5736 77.1083 19.5203 77.4104 19.4492 77.5526C19.3782 77.6947 19.2715 77.8014 19.1294 77.8902C18.9872 77.9791 18.7917 77.9968 18.5607 77.9791C18.3652 77.9791 18.1875 77.908 18.0631 77.8369C17.9387 77.7658 17.8498 77.6592 17.7965 77.5348C17.7432 77.4104 17.7255 77.2682 17.7255 77.0727C17.7255 76.9839 17.7255 76.7529 17.7788 76.3797L17.8676 75.2956C17.9032 74.8691 17.9387 74.5848 18.0098 74.3893C18.0098 74.3893 18.0631 74.3537 18.1875 74.3537C18.223 74.3537 18.2764 74.3538 18.4008 74.3182V74.0161L16.6592 73.9272V74.2294L17.0324 74.3537C17.0324 74.3715 17.0324 74.4248 17.0324 74.5315C17.0324 74.7625 16.9968 75.0291 16.9791 75.3134L16.8547 76.6995C16.8191 77.0372 16.8191 77.2327 16.8191 77.3038C16.8191 77.4282 16.8369 77.5526 16.8902 77.6947C16.9435 77.8369 17.0146 77.9613 17.1212 78.0857C17.2279 78.2101 17.37 78.299 17.53 78.3878C17.761 78.4944 18.0098 78.5655 18.2941 78.5833C18.3652 78.5833 18.4363 78.5833 18.5074 78.5833C18.6495 78.5833 18.7917 78.5833 18.9161 78.53C19.0938 78.4767 19.2715 78.4056 19.4137 78.2989C19.5559 78.1923 19.6625 78.0679 19.7514 77.9258C19.8402 77.7836 19.8935 77.6059 19.9468 77.4104C19.9824 77.2149 20.0179 77.0194 20.0357 76.8239L20.089 76.0953C20.1068 75.8821 20.1423 75.58 20.1779 75.2068C20.2312 74.7269 20.2667 74.6203 20.3023 74.5315V74.5492Z" fill="black"/>
<path d="M27.2514 80.538C27.1448 80.4847 27.127 80.4669 27.127 80.4669L27.0915 80.5025V80.3603V80.0582V76.0952L26.6827 75.9886L24.8701 78.21C24.6213 78.5121 24.4436 78.7253 24.3547 78.832C24.1592 79.0452 24.0526 79.1696 24.0171 79.2052L24.0526 79.2407L23.8927 79.2763C23.8927 79.2763 23.8394 79.2763 23.6972 79.2763V79.2229C23.6083 79.1874 23.5728 79.1696 23.5195 79.0808C23.5017 79.0452 23.4484 78.9031 23.3773 78.672L23.0574 77.4636C23.0574 77.4636 23.0397 77.3747 23.0041 77.2681C22.9686 77.1615 22.9508 77.0726 22.8975 77.0193C23.1996 76.966 23.4484 76.8594 23.6261 76.6817C23.8038 76.504 23.946 76.2907 23.9993 76.0419C24.0526 75.8287 24.0526 75.6332 23.9993 75.4555C23.946 75.2777 23.8394 75.1533 23.715 75.0645C23.5906 74.9756 23.3951 74.9046 23.1107 74.8335C22.9686 74.7979 22.7909 74.7624 22.5776 74.7091C22.4532 74.6913 22.2933 74.6557 22.1156 74.6024C21.9023 74.5491 21.7424 74.5136 21.618 74.4603C21.4047 74.3892 21.2625 74.3536 21.1737 74.3892L21.1381 74.6913C21.4047 74.7801 21.4758 74.8335 21.4936 74.869C21.4936 74.8868 21.4936 74.9934 21.4047 75.3133L20.7116 77.9434C20.6583 78.1034 20.6228 78.21 20.5339 78.3521C20.4984 78.3521 20.4095 78.3522 20.143 78.3344L20.1074 78.6543C20.3384 78.7076 20.5872 78.7609 20.8538 78.832C21.1559 78.9031 21.4403 78.9919 21.7957 79.0452L21.8312 78.7253C21.6713 78.672 21.5824 78.6543 21.4936 78.5654C21.4936 78.5654 21.4936 78.4943 21.5291 78.3521C21.5291 78.2988 21.6002 78.0678 21.6891 77.6413C21.7779 77.3037 21.849 76.9838 21.9201 76.6817C21.9734 76.4862 22.08 76.113 22.2222 75.5443C22.2933 75.2955 22.3466 75.1356 22.311 75.1C22.3821 75.1 22.471 75.1 22.5421 75.1356C22.7198 75.1889 22.8442 75.2244 22.8975 75.2777C22.9863 75.3488 23.0574 75.4555 23.093 75.5799C23.1285 75.722 23.1285 75.8642 23.093 76.0419C23.0397 76.2196 22.9686 76.3618 22.8619 76.4862C22.7553 76.6106 22.6487 76.6817 22.5421 76.7172C22.4354 76.7527 22.311 76.7172 22.0267 76.6994L21.9734 76.8416C21.9734 76.8416 22.0445 76.966 22.08 77.0726C22.1511 77.2681 22.2222 77.5525 22.2933 77.8901L22.5598 79.0985C22.5598 79.0985 22.5776 79.2407 22.6132 79.3296C22.7553 79.3651 22.8797 79.3829 23.0219 79.4184C23.1285 79.4362 23.2885 79.4895 23.5195 79.5606L24.7279 79.9693L24.799 79.6672C24.5502 79.5606 24.4969 79.525 24.4969 79.4362C24.4969 79.4006 24.5857 79.2762 24.799 78.9919L24.9767 78.7076L26.2207 79.1341V79.8627C26.1852 80.0049 26.1852 80.0759 26.1318 80.147C26.1141 80.147 26.043 80.147 25.7409 80.0937L25.6876 80.3958L26.5583 80.6979L27.287 81.0001L27.3758 80.6446L27.2692 80.5913L27.2514 80.538ZM25.2077 78.3166L25.4388 78.0323L25.2077 78.3344V78.3166ZM26.2562 78.6543C26.1141 78.601 25.9364 78.5476 25.7586 78.4765C25.5809 78.4055 25.421 78.3521 25.2966 78.3521C25.2966 78.3521 25.2788 78.3521 25.261 78.3521L26.2385 77.1437V78.2988V78.672L26.2562 78.6543ZM26.2562 78.7076C26.2562 78.7076 26.2385 78.7076 26.2207 78.7076C26.2207 78.7076 26.2385 78.7076 26.2562 78.7076Z" fill="black"/>
<path d="M33.6134 79.3118L33.7201 78.9564L32.9915 78.6543C32.9915 78.6543 32.796 78.5654 32.5294 78.4588C32.405 78.5832 32.3162 78.6898 32.2273 78.7786C32.1384 78.8675 31.9074 79.0807 31.5342 79.4362L30.8589 80.0759C30.7167 80.2003 30.539 80.3958 30.3613 80.6091C30.308 80.6624 30.2547 80.6979 30.1836 80.769L30.2725 77.3925C30.0948 77.3392 29.9348 77.2681 29.7749 77.197C29.6505 77.1437 29.4194 77.0371 29.0285 76.8949L28.9396 77.197C28.9396 77.197 29.1173 77.2859 29.2062 77.357L29.2595 77.4458C29.2595 77.4458 29.224 77.588 29.064 77.9789C28.9396 78.281 28.7797 78.6187 28.6197 79.0097C28.4243 79.4362 28.2821 79.7383 28.211 79.916C28.0333 80.2714 27.9267 80.5024 27.8734 80.6091C27.8378 80.6624 27.82 80.6802 27.7667 80.6979C27.7667 80.6979 27.6956 80.6979 27.3758 80.6268L27.3047 80.929C27.4469 80.9823 27.6601 81.0711 27.8911 81.1778C28.0866 81.2666 28.2643 81.3555 28.4954 81.4265L28.5842 81.1244C28.3887 81.0178 28.3354 80.9823 28.3176 80.9645L28.2288 80.9112L28.2821 80.8223C28.2821 80.8223 28.371 80.5913 28.5131 80.2714C28.6553 79.9515 28.7797 79.6672 28.8685 79.4362L29.1529 78.6898L29.4017 78.1211L29.3661 79.8094C29.3661 80.0937 29.3484 80.5024 29.3128 81.0534C29.3128 81.3732 29.2773 81.6398 29.3128 81.8708L29.5261 81.9419C29.6327 81.8353 29.7571 81.7109 29.9348 81.5332C30.2192 81.2666 30.4324 81.0533 30.5746 80.9112L31.5164 79.9515L32.174 79.3295L31.2854 81.2844C31.1077 81.6753 31.0011 81.9064 30.9478 81.9774C30.8945 82.0485 30.8767 82.0663 30.8589 82.0663C30.8411 82.0663 30.7701 82.0663 30.4679 81.9774L30.3791 82.2796L31.1433 82.5994L31.943 82.9904L32.0496 82.635C31.8008 82.4928 31.7652 82.475 31.7475 82.3862C31.7475 82.3329 31.8186 82.1729 31.9074 81.9419C31.9074 81.9064 31.9963 81.7642 32.1029 81.5154L33.0803 79.3651C33.1514 79.2229 33.2047 79.1696 33.2758 79.1518C33.3291 79.1518 33.418 79.1874 33.5424 79.2407L33.6312 79.2762L33.6134 79.3118ZM30.1303 80.8401L30.1658 79.9515V80.8046C30.1658 80.8046 30.1658 80.8223 30.1303 80.8401ZM29.4372 78.0322V78.8853L29.4017 78.1211L29.4372 78.0322ZM32.2273 79.294L31.783 80.2714L32.1562 79.3651L32.2273 79.294Z" fill="black"/>
<path d="M37.1491 82.4572C37.3268 82.315 37.469 82.1196 37.5579 81.9063C37.6645 81.693 37.7 81.4798 37.6823 81.3021C37.6645 81.1244 37.5934 80.9644 37.4868 80.8578C37.3801 80.7334 37.2202 80.6446 37.0069 80.5379L35.1587 79.7205L35.0699 80.0226L35.372 80.2536C35.372 80.2536 35.372 80.3069 35.3365 80.3602C35.3187 80.4135 35.2476 80.5557 35.141 80.7867L34.4301 82.315C34.2524 82.6882 34.0925 83.0081 33.9325 83.3102C33.8615 83.4524 33.8259 83.4879 33.7904 83.5057C33.7548 83.5057 33.666 83.5057 33.3994 83.4169L33.3105 83.7367C33.5238 83.8256 33.7371 83.9144 33.9681 84.0211C34.1813 84.1277 34.4834 84.2699 34.8744 84.4831H34.9277L35.0521 84.1455L34.75 83.9678V84.0033L34.6967 83.8789C34.6967 83.8434 34.7322 83.7723 34.8211 83.5768C34.9455 83.2925 35.0699 83.0081 35.1943 82.7593L35.9585 81.1421C36.0651 80.9289 36.1539 80.7512 36.1539 80.6623C36.2783 80.6801 36.3672 80.7156 36.456 80.7689C36.6338 80.8578 36.7404 80.9644 36.7759 81.1421C36.8115 81.3021 36.7759 81.5153 36.6693 81.7641C36.5627 81.9952 36.4205 82.1551 36.2783 82.2262C36.1362 82.2973 36.0651 82.3506 35.7807 82.1906C35.763 82.1729 35.7274 82.1551 35.6386 82.1018L35.5319 82.1551V82.1906C35.5319 82.2795 35.5319 82.3684 35.5319 82.475C35.5675 82.5105 35.6208 82.5461 35.6741 82.5816C35.7274 82.6172 35.763 82.6349 35.8341 82.6705C36.0473 82.7593 36.2783 82.7949 36.5094 82.7593C36.7582 82.7238 36.9714 82.6349 37.1313 82.475L37.1491 82.4572Z" fill="black"/>
<path d="M39.5492 86.1181C39.5492 86.1181 39.5136 85.9404 39.4781 85.6916C39.4781 85.6916 39.4781 85.5494 39.4426 85.3361L39.3715 84.4476C39.3715 84.4476 39.3715 84.3587 39.3715 84.2343C39.3715 84.1277 39.3715 84.0211 39.3359 83.9678C39.638 83.9678 39.8868 83.8967 40.1001 83.7723C40.3133 83.6301 40.4733 83.4524 40.5799 83.2036C40.6688 83.0081 40.7043 82.8126 40.6865 82.6172C40.651 82.4395 40.5799 82.2795 40.4733 82.1729C40.3667 82.0663 40.1889 81.9596 39.9224 81.8352C39.798 81.7819 39.6203 81.7108 39.4248 81.622C39.3004 81.5687 39.1582 81.5154 38.9805 81.4443C38.785 81.3554 38.6251 81.2843 38.5362 81.231C38.323 81.1244 38.1808 81.0533 38.092 81.0711L38.0031 81.3732C38.2519 81.5154 38.3052 81.5687 38.323 81.6042C38.323 81.6397 38.2874 81.7464 38.163 82.0307L37.0079 84.5009C36.9368 84.6431 36.8835 84.7497 36.7591 84.8741C36.7413 84.8741 36.6703 84.8741 36.3682 84.7852L36.2793 85.1051C36.4926 85.194 36.7236 85.2828 36.9901 85.4072C37.2745 85.5316 37.5411 85.6738 37.8787 85.7804L37.9676 85.4605C37.9676 85.4605 37.7365 85.3539 37.6477 85.2473C37.6477 85.2295 37.6477 85.1762 37.7188 85.0518C37.7365 84.9985 37.8432 84.7675 38.0031 84.3765C38.1453 84.0566 38.2874 83.7545 38.4118 83.4702C38.5007 83.2925 38.6606 82.9371 38.9272 82.4039C39.0338 82.1729 39.1227 82.0129 39.1049 81.9774C39.176 81.9952 39.2649 82.0307 39.3359 82.0663C39.5492 82.1551 39.6203 82.2262 39.6558 82.2617C39.7269 82.3506 39.7802 82.4572 39.798 82.5994C39.798 82.7416 39.798 82.8837 39.7091 83.0614C39.638 83.2214 39.5314 83.3636 39.407 83.4702C39.2826 83.5768 39.1582 83.6301 39.0338 83.6301C38.9272 83.6301 38.785 83.5946 38.554 83.5235L38.4829 83.6657C38.4829 83.6657 38.5362 83.8078 38.5362 83.9145C38.5718 84.1277 38.5895 84.412 38.6073 84.7675L38.6606 85.9937C38.6606 85.9937 38.6606 86.1358 38.6606 86.2247C38.785 86.278 38.9094 86.3313 39.0516 86.3846C39.1582 86.438 39.3359 86.5268 39.5847 86.6334H39.638L39.7447 86.2958C39.6558 86.2602 39.6203 86.2247 39.5847 86.1359L39.5492 86.1181Z" fill="black"/>
<path d="M41.1656 86.9533V86.8111C41.1656 86.8111 41.2012 86.6157 41.29 86.4379L42.0187 84.7675C42.0187 84.7675 42.1431 84.4831 42.3563 84.0211C42.4096 83.8789 42.4629 83.79 42.4807 83.7545C42.534 83.6479 42.5696 83.6123 42.6584 83.5768C42.694 83.5768 42.8717 83.6479 43.0138 83.6479L43.1027 83.328C42.8361 83.2214 42.5518 83.1147 42.2497 82.9903C41.9831 82.8837 41.7521 82.7771 41.4855 82.6882L41.3967 83.0081C41.6099 83.1147 41.6632 83.1503 41.7165 83.2391C41.7165 83.3102 41.6455 83.4524 41.5566 83.7012C41.5033 83.8078 41.4144 84.0566 41.2367 84.4298L40.7214 85.6205C40.6325 85.816 40.5436 86.0292 40.4192 86.2425C40.3482 86.3846 40.2949 86.4735 40.206 86.509C40.1705 86.509 40.0816 86.4735 39.8506 86.4379L39.7617 86.7578C39.975 86.8289 40.206 86.9178 40.4726 87.0422C40.7747 87.1666 41.0412 87.3087 41.3078 87.4331H41.3611L41.4677 87.0955C41.2723 87.0066 41.219 86.9711 41.2012 86.9533L41.1656 86.9888V86.9533Z" fill="black"/>
<path d="M47.9369 85.6028L48.0257 85.2474L47.2794 84.9808C47.2794 84.9808 47.0839 84.8919 46.8173 84.8208C46.7107 84.963 46.6041 85.0696 46.533 85.1585C46.4441 85.2474 46.2309 85.4784 45.8754 85.8516L45.2357 86.5269C45.1113 86.6691 44.9336 86.8645 44.7559 87.0956C44.7025 87.1489 44.6492 87.2022 44.5959 87.2555L44.5248 83.879C44.3471 83.8257 44.1694 83.7723 44.0095 83.7013C43.8851 83.6479 43.654 83.5591 43.2453 83.4347L43.1742 83.7368C43.1742 83.7368 43.3519 83.8257 43.4408 83.879V83.8434L43.4941 83.9678C43.4941 84.0211 43.423 84.2166 43.3164 84.5187C43.2098 84.8208 43.0676 85.1763 42.9254 85.5672C42.7477 86.0115 42.6233 86.3136 42.5522 86.4913C42.3923 86.8645 42.3034 87.0956 42.2501 87.2022C42.2324 87.2555 42.1968 87.2733 42.1613 87.291C42.1435 87.291 42.0724 87.291 41.7703 87.2377L41.6992 87.5576C41.8592 87.5931 42.0546 87.682 42.3034 87.7709C42.4989 87.8419 42.6766 87.9308 42.9254 87.9841L42.9965 87.682C42.7833 87.5754 42.7299 87.5398 42.7122 87.5398L42.6233 87.5043L42.6766 87.4154C42.6766 87.4154 42.7477 87.1844 42.8721 86.8645C42.9965 86.5269 43.1031 86.2425 43.192 86.0115L43.423 85.2651L43.654 84.6787L43.6896 86.3669C43.6896 86.6513 43.6896 87.06 43.6896 87.6287C43.6896 87.9486 43.6896 88.2151 43.7251 88.4462L43.9562 88.4995C44.045 88.3928 44.1694 88.2507 44.3293 88.073C44.5959 87.7886 44.7914 87.5576 44.9336 87.4154L45.8221 86.4202L46.4441 85.7627L45.6622 87.7709C45.4667 88.2684 45.3956 88.4284 45.3601 88.4817C45.3245 88.5528 45.289 88.5706 45.2712 88.5706C45.2357 88.5706 45.1646 88.5706 44.8803 88.4995L44.8092 88.8016L45.5911 89.0859L46.4263 89.4413L46.5152 89.0859C46.2842 88.9793 46.2309 88.9438 46.1953 88.8549C46.1953 88.8016 46.2486 88.6416 46.3375 88.3928C46.3375 88.3573 46.4086 88.1974 46.4974 87.9486L47.3682 85.7449C47.4215 85.6028 47.4748 85.5495 47.5637 85.5139C47.617 85.5139 47.7059 85.5317 47.8125 85.585L47.9014 85.6205L47.9369 85.6028ZM47.9547 85.2829H47.9369H47.9724H47.9547ZM44.5426 87.3088V86.1181L44.5781 87.2733C44.5781 87.2733 44.5604 87.291 44.5426 87.3088ZM43.6718 84.6431L43.7074 84.5543V85.4073L43.6718 84.6431ZM46.5685 85.6561L46.1775 86.669L46.4974 85.7272L46.5685 85.6561Z" fill="black"/>
<path d="M51.5435 86.7934L51.6323 86.7223C51.6323 86.7223 51.739 86.7223 51.9344 86.7223L51.97 86.4202L51.3302 86.2602C51.3302 86.2602 51.0992 86.1714 50.726 86.1003L50.6905 86.4024C50.9037 86.4735 50.9926 86.5268 51.0459 86.6156C51.0459 86.6512 51.0459 86.74 50.9393 87.0599C50.9037 87.1666 50.8149 87.5042 50.6549 88.0196L50.4772 88.6238C50.3528 89.0325 50.2462 89.3169 50.1396 89.4413C50.0329 89.5657 49.9085 89.6545 49.7486 89.7078C49.5887 89.7611 49.3932 89.7434 49.1799 89.6901C48.9844 89.6367 48.8245 89.5479 48.7179 89.4413C48.6112 89.3346 48.5402 89.228 48.5224 89.1036C48.4868 88.9792 48.5046 88.8193 48.5224 88.6416C48.5402 88.5527 48.6112 88.3217 48.7179 87.9663L49.02 86.9178C49.1444 86.509 49.2332 86.2425 49.3043 86.1181L49.4109 86.047C49.4109 86.047 49.5709 86.047 49.7486 86.0647L49.8197 85.8159L49.7308 85.7449L48.1136 85.3184L48.0603 85.6205L48.398 85.8159C48.398 85.8159 48.398 85.9226 48.3802 85.9937C48.3269 86.2247 48.2558 86.4735 48.167 86.74L47.7582 88.0729C47.6694 88.3928 47.6161 88.5882 47.5983 88.6593C47.5805 88.7837 47.5805 88.9259 47.5983 89.0681C47.5983 89.2102 47.6694 89.3524 47.7404 89.4946C47.8115 89.6367 47.9359 89.7611 48.0781 89.8678C48.2736 90.0099 48.5224 90.1343 48.7712 90.2232C48.9844 90.2765 49.1621 90.312 49.3399 90.312H49.3932C49.5886 90.312 49.7664 90.2587 49.9263 90.1876C50.0862 90.1166 50.2284 90.0099 50.335 89.8855C50.4417 89.7611 50.5483 89.6012 50.6194 89.4235C50.6905 89.2458 50.7615 89.0503 50.8149 88.8726L51.0281 88.1617C51.0814 87.9485 51.1881 87.6819 51.2947 87.3265C51.4546 86.8644 51.4902 86.7578 51.5079 86.74L51.5435 86.7934Z" fill="black"/>
<path d="M55.7383 87.2022C55.6494 87.3621 55.5784 87.4865 55.525 87.5931C55.454 87.6997 55.294 87.9663 55.0097 88.4106L54.5121 89.1925C54.4055 89.3525 54.2811 89.5657 54.1567 89.8323C54.1211 89.9034 54.0678 89.9567 54.0323 90.0278L53.3214 86.7223C53.1437 86.7046 52.966 86.669 52.7883 86.6513C52.6461 86.6335 52.4151 86.5802 51.9886 86.5269V86.8467C51.9886 86.8467 52.1663 86.9 52.2729 86.9356L52.344 87.0244C52.344 87.0244 52.344 87.2022 52.2729 87.5931C52.2196 87.913 52.1485 88.2862 52.0774 88.6949C51.9886 89.157 51.9353 89.4769 51.8819 89.6723C51.7931 90.0633 51.7398 90.3121 51.7042 90.4187C51.7042 90.4543 51.6687 90.4898 51.5798 90.5431C51.5265 90.5431 51.4199 90.5431 51.2422 90.5609V90.8808C51.4021 90.8808 51.6154 90.9341 51.8642 90.9696C52.0597 91.0052 52.2551 91.0585 52.5217 91.0585V90.7386C52.3085 90.6853 52.2552 90.6498 52.2374 90.6498H52.1485L52.1841 90.5254C52.1841 90.472 52.2196 90.2766 52.2729 89.9389C52.3262 89.6013 52.3795 89.2992 52.4329 89.0504L52.5217 88.2684L52.6283 87.6642L52.9838 89.3169C53.0371 89.5835 53.1259 89.9922 53.2326 90.5431C53.2859 90.863 53.3392 91.1118 53.4103 91.3428H53.6413C53.7124 91.2362 53.819 91.0585 53.9434 90.863C54.1567 90.5254 54.2988 90.2766 54.4232 90.0988L55.1163 88.9437L55.6139 88.1796L55.2229 90.2943C55.1518 90.7208 55.0985 90.9696 55.063 91.0407C55.0274 91.1296 55.0097 91.1474 54.9564 91.1474C54.9031 91.1474 54.7964 91.1474 54.6009 91.1474V91.4672L56.2892 91.7871V91.4139C56.0404 91.3428 56.0049 91.3251 55.9515 91.2362C55.9515 91.1829 55.9515 91.023 56.0049 90.7564C56.0049 90.7031 56.0404 90.5609 56.0937 90.2943L56.538 87.9663C56.5735 87.8064 56.6091 87.7531 56.6446 87.7175C56.6802 87.6997 56.7868 87.682 56.9645 87.7175H57.0534V87.3621L56.2714 87.2377C56.2714 87.2377 56.0582 87.1844 55.7916 87.1666L55.7383 87.2022ZM53.9789 90.0811L53.5702 88.1262L54.0145 90.0455C54.0145 90.0455 54.0145 90.0633 53.9967 90.0811H53.9789ZM52.6639 87.522L52.8416 88.375L52.6461 87.6287V87.522H52.6639ZM55.6672 88.0729L55.4717 89.1392L55.6139 88.1618L55.6672 88.0729Z" fill="black"/>
<path d="M60.6085 87.8953C60.8218 87.8953 61.0172 87.9309 61.1594 88.002C61.3016 88.073 61.426 88.1797 61.5326 88.3041C61.5326 88.4462 61.5504 88.6239 61.6037 88.8905L61.8525 88.855C61.8525 88.6595 61.888 88.4462 61.9058 88.2152C61.9058 88.073 61.9413 87.9486 61.9769 87.8598L61.9413 87.7532C61.6925 87.6465 61.4615 87.5577 61.266 87.5221C61.0705 87.4866 60.8573 87.451 60.5552 87.451C59.8799 87.451 59.3468 87.6643 58.9558 88.073C58.5648 88.4818 58.3516 89.0327 58.3516 89.708C58.3516 90.0989 58.4049 90.4544 58.5293 90.792C58.6181 91.0053 58.7425 91.2185 58.8847 91.414C59.0446 91.6095 59.2401 91.7694 59.4712 91.8761C59.7555 92.0182 60.1109 92.0893 60.4841 92.1071H60.5552C60.7862 92.1071 60.9995 92.0893 61.1594 92.036C61.3371 91.9827 61.5504 91.8938 61.7992 91.7339L61.9236 91.3785L61.8347 91.2718H61.7992C61.6037 91.3962 61.4437 91.4851 61.2838 91.5206C61.1416 91.5562 60.9817 91.574 60.7862 91.574C60.5196 91.574 60.2886 91.5206 60.1109 91.414C59.9687 91.3429 59.8443 91.2185 59.7022 91.0586C59.56 90.8986 59.4711 90.6854 59.3823 90.4544C59.3112 90.2056 59.2579 89.9212 59.2757 89.6014C59.2757 89.0682 59.4178 88.6417 59.6489 88.3396C59.8799 88.0553 60.1998 87.9131 60.6085 87.9131V87.8953Z" fill="black"/>
<path d="M66.0992 88.5528C66.0281 88.3573 65.957 88.1974 65.8682 88.0374C65.7616 87.8775 65.6372 87.7353 65.4594 87.5932C65.2817 87.451 65.0863 87.3621 64.8908 87.2911C64.6064 87.22 64.3043 87.2022 63.9844 87.2377C63.6646 87.2733 63.3624 87.3621 63.0959 87.5043C62.8826 87.6109 62.7049 87.7886 62.545 88.0019C62.385 88.2152 62.2606 88.4817 62.2073 88.7838C62.1362 89.0859 62.1362 89.4236 62.1718 89.8146C62.2251 90.3122 62.3673 90.7209 62.5628 91.0408C62.7582 91.3606 63.0248 91.5917 63.3447 91.7338C63.5757 91.8405 63.8423 91.8938 64.1266 91.8938C64.2155 91.8938 64.3221 91.8938 64.411 91.8938C64.7841 91.8582 65.104 91.7516 65.3884 91.5739C65.5838 91.4495 65.7616 91.2718 65.9037 91.0585C66.0459 90.8453 66.1525 90.5965 66.2058 90.3477C66.2769 89.9923 66.2947 89.6191 66.2592 89.2281C66.2236 88.9971 66.1881 88.7838 66.117 88.5883L66.0992 88.5528ZM65.3173 90.5076C65.2462 90.8097 65.1396 91.023 64.9974 91.1652C64.8375 91.3073 64.6597 91.3784 64.4465 91.414C64.2155 91.4317 64.02 91.414 63.8245 91.2896C63.6468 91.1829 63.4869 90.9875 63.3447 90.6853C63.2025 90.3832 63.0959 89.9923 63.0426 89.5302C63.007 89.2103 63.007 88.8905 63.0426 88.6061C63.0959 88.3396 63.1847 88.1085 63.3447 87.9664C63.5046 87.8064 63.7001 87.7176 63.9489 87.6998C64.0022 87.6998 64.0555 87.6998 64.1088 87.6998C64.251 87.6998 64.3754 87.7176 64.482 87.7709C64.6242 87.842 64.7486 87.9486 64.8552 88.1085C64.9619 88.2507 65.0685 88.4462 65.1396 88.6772C65.2106 88.9082 65.2817 89.1748 65.3173 89.4591C65.3706 89.8679 65.3528 90.2411 65.2995 90.5432L65.3173 90.5076Z" fill="black"/>
<path d="M70.4711 89.2104C70.4533 89.086 70.4711 89.0682 70.4711 89.0682C70.4711 89.0505 70.5066 88.9971 70.6488 88.8905L70.5422 88.6595L68.9606 89.1038L69.085 89.3881C69.316 89.3526 69.4759 89.3348 69.6181 89.3348C69.6181 89.3348 69.6536 89.4059 69.7247 89.6547L69.7958 89.939C69.8313 90.099 69.8491 90.2056 69.8847 90.2056C69.7958 90.2767 69.7069 90.3478 69.6003 90.4011C69.4937 90.4544 69.3871 90.4899 69.2804 90.5255C68.9072 90.6143 68.5341 90.5255 68.1964 90.2589C67.841 89.9746 67.5922 89.5481 67.45 88.9616C67.3256 88.4285 67.3434 87.9664 67.5211 87.611C67.6988 87.2556 68.0009 87.0245 68.4097 86.9179C68.5874 86.8824 68.7473 86.8646 68.9072 86.8646C69.0494 86.8646 69.1916 86.9179 69.3338 86.9712C69.3871 86.989 69.4404 87.0245 69.4759 87.0601C69.5115 87.1134 69.5292 87.1845 69.547 87.2734C69.5826 87.3977 69.6181 87.4866 69.6892 87.5932L69.938 87.4866C69.8669 87.0245 69.8314 86.7047 69.8136 86.527L69.7425 86.4203C69.5826 86.3848 69.3693 86.367 69.085 86.3492C68.8184 86.3492 68.5341 86.3848 68.2319 86.4559C68.0009 86.5092 67.7699 86.598 67.5922 86.6869C67.3967 86.7758 67.219 86.9179 67.0768 87.0779C66.9169 87.2378 66.7925 87.4333 66.6859 87.6465C66.5792 87.8598 66.5259 88.1086 66.5081 88.3574C66.4904 88.6062 66.5081 88.9083 66.597 89.2282C66.6859 89.6014 66.8458 89.939 67.0413 90.2234C67.1657 90.4011 67.3256 90.561 67.5211 90.7032C67.7166 90.8454 67.9298 90.9342 68.1786 91.0053C68.3386 91.0408 68.4985 91.0586 68.6762 91.0586C68.8717 91.0586 69.085 91.0408 69.2982 90.9875C69.5292 90.9342 69.778 90.8453 69.9913 90.7209C70.2223 90.6143 70.4711 90.4366 70.7732 90.17C70.7199 90.0101 70.6666 89.8679 70.6311 89.708C70.6133 89.6014 70.5777 89.4414 70.5244 89.2104H70.4711Z" fill="black"/>
<path d="M73.9366 85.8514C73.8122 85.5138 73.7589 85.2828 73.7411 85.1584C73.7411 85.1584 73.7944 85.0873 74.0965 84.9273L73.9366 84.6608C73.6878 84.7674 73.4745 84.8562 73.3146 84.9096C73.1369 84.9629 72.9592 85.034 72.7104 85.1584L72.8526 85.4427C73.0658 85.3716 73.1547 85.3538 73.2258 85.3538C73.2258 85.3538 73.2613 85.3716 73.2968 85.4605C73.3857 85.6382 73.6167 86.2602 73.9899 87.3087L74.1676 87.6641L74.2565 87.8951C73.9366 87.6996 73.5279 87.4331 73.0125 87.0776C72.2839 86.5623 71.6441 86.118 71.0577 85.7093L70.4712 85.9403C70.3646 85.9758 70.2224 86.0291 69.9736 86.1535L70.1158 86.4379C70.3468 86.3668 70.4179 86.3668 70.4535 86.3668L70.5423 86.3313L70.5779 86.4379C70.5779 86.4379 70.6312 86.5623 70.6845 86.7045L71.342 88.4993C71.4309 88.7659 71.502 88.9791 71.5553 89.1391C71.6441 89.4234 71.6974 89.6011 71.7152 89.69H71.7685L71.7152 89.8144C71.7152 89.8144 71.6441 89.8499 71.3776 90.0276L71.4842 90.3298H71.5375C71.8041 90.1876 72.0173 90.1165 72.1773 90.0454L72.5149 89.9388L72.7637 89.7966L72.6749 89.5656H72.6038H72.5504C72.4971 89.5656 72.4261 89.6011 72.3194 89.6189L72.2839 89.6722L72.2306 89.6011C72.2306 89.6011 72.1417 89.4234 72.0529 89.2102C71.9285 88.8903 71.8041 88.5704 71.6974 88.2683L71.3776 87.5041L71.1643 86.8999C72.6571 87.9484 73.7589 88.7126 74.5764 89.228C74.7363 89.1924 74.8785 89.1746 75.0206 89.1569L75.074 89.0502C74.9496 88.7837 74.6652 88.0017 74.1854 86.7045C74.1321 86.5445 74.0432 86.2779 73.9188 85.9225L73.9366 85.8514ZM74.3098 87.9484C74.3098 87.9484 74.1321 87.8418 74.0432 87.7707C74.1321 87.8063 74.2209 87.8596 74.292 87.8951V87.9484H74.3098ZM71.1465 86.7578C71.4309 86.9532 71.6974 87.1487 71.964 87.3264C71.7152 87.1665 71.4486 86.9888 71.1643 86.8111V86.7578H71.1465Z" fill="black"/>
<path d="M78.1129 84.3943C78.0063 84.2343 77.8642 84.0922 77.722 83.9678C77.5798 83.8434 77.4199 83.7545 77.2066 83.6657C77.0111 83.5946 76.7979 83.5413 76.5669 83.5413C76.2825 83.5413 75.9804 83.6301 75.6783 83.7545C75.3762 83.8967 75.1274 84.0566 74.9141 84.2699C74.7542 84.4476 74.6298 84.6608 74.5409 84.9274C74.4521 85.194 74.4166 85.4783 74.4521 85.7804C74.4699 86.0825 74.5765 86.4202 74.7187 86.7578C74.9141 87.2199 75.1629 87.5753 75.4473 87.8063C75.7316 88.0551 76.0515 88.1973 76.3891 88.2328C76.4602 88.2328 76.5313 88.2328 76.5846 88.2328C76.869 88.2328 77.1533 88.1618 77.4554 88.0374C77.7931 87.8774 78.0774 87.6819 78.2907 87.4331C78.4506 87.2376 78.5572 87.0244 78.6283 86.7756C78.6994 86.5268 78.7172 86.2602 78.6994 85.9937C78.6639 85.6383 78.575 85.2651 78.4151 84.9096C78.3262 84.6964 78.2196 84.5009 78.0952 84.341L78.1129 84.3943ZM76.9756 87.6997C76.9756 87.6997 76.8334 87.6997 76.7623 87.6819C76.5669 87.6286 76.3358 87.4864 76.1226 87.2554C75.8916 87.0244 75.6783 86.669 75.4828 86.2425C75.3406 85.9404 75.2696 85.6382 75.2162 85.3539C75.1807 85.0696 75.2163 84.8385 75.3229 84.6431C75.4295 84.4476 75.5894 84.3054 75.8205 84.1988C75.9804 84.1277 76.1226 84.0922 76.247 84.0922C76.2825 84.0922 76.3181 84.0922 76.3536 84.0922C76.5136 84.1277 76.6735 84.181 76.8156 84.3054C76.9756 84.412 77.1178 84.572 77.2599 84.7675C77.4021 84.9629 77.5443 85.194 77.6509 85.4605C77.8286 85.8337 77.9175 86.1892 77.953 86.4913C77.9885 86.7934 77.953 87.0244 77.8464 87.2021C77.7398 87.3798 77.5976 87.5042 77.4021 87.5931C77.2599 87.6642 77.1178 87.6819 76.9934 87.6819L76.9756 87.6997Z" fill="black"/>
<path d="M81.3285 84.0035C81.2396 83.9147 81.1508 83.8258 81.0619 83.7725C80.9731 83.7192 80.8664 83.6837 80.7598 83.6659C80.6532 83.6659 80.511 83.6659 80.3689 83.6659C80.3155 83.6659 80.1911 83.7014 80.0134 83.7547C79.8357 83.8081 79.6936 83.8258 79.5869 83.8614C79.4625 83.8791 79.3559 83.8791 79.2671 83.8614C79.196 83.8614 79.1249 83.8081 79.0538 83.7547C78.9827 83.7014 78.9294 83.6126 78.8583 83.5059C78.7872 83.346 78.7695 83.1861 78.8228 83.0084C78.8761 82.8306 79.0005 82.7062 79.196 82.5996C79.3381 82.5285 79.4803 82.4752 79.6225 82.493C79.7646 82.493 79.8713 82.5285 79.9424 82.5641C79.9957 82.6529 80.0845 82.7951 80.2622 83.0261L80.4755 82.8662C80.3866 82.6707 80.3155 82.5285 80.28 82.4041C80.2267 82.2797 80.1912 82.1553 80.1556 82.0309L80.1023 81.9599L79.9779 81.9243C79.8535 81.9243 79.7113 81.9243 79.5692 81.9776C79.3914 82.0309 79.2137 82.0843 79.036 82.1731C78.8761 82.262 78.7161 82.3508 78.574 82.4752C78.4318 82.5996 78.3252 82.7418 78.2541 82.9017C78.183 83.0617 78.1475 83.2571 78.1475 83.4882C78.1475 83.7014 78.2185 83.9325 78.3252 84.1457C78.3963 84.2879 78.4851 84.4301 78.6095 84.5367C78.7161 84.6611 78.8405 84.7322 78.9827 84.7855C79.1249 84.8388 79.267 84.8566 79.4448 84.8388C79.5514 84.8388 79.7646 84.7855 80.0845 84.7144C80.2622 84.6788 80.3866 84.6611 80.5643 84.6611C80.6532 84.6611 80.742 84.7144 80.8131 84.7677C80.8842 84.8388 80.9553 84.9099 81.0086 85.0343C81.0797 85.1587 81.1153 85.3008 81.1153 85.4252C81.1153 85.5496 81.0797 85.674 80.9908 85.7807C80.9198 85.8873 80.7954 85.9939 80.6532 86.065C80.511 86.1361 80.3689 86.1538 80.1378 86.1538C79.9601 86.1538 79.818 86.0828 79.7113 86.0117C79.5869 85.8162 79.4981 85.6563 79.3737 85.5141L79.1604 85.674C79.3737 86.1005 79.4981 86.4382 79.6047 86.7048C79.6758 86.7048 79.7469 86.7048 79.818 86.7048C79.9779 86.7048 80.1023 86.7048 80.2267 86.6692C80.4044 86.6337 80.5999 86.5804 80.7954 86.4737C81.0619 86.3493 81.2752 86.1716 81.4351 85.9939C81.524 85.8695 81.6128 85.7273 81.6662 85.5496C81.7195 85.3719 81.755 85.212 81.755 85.0343C81.755 84.8032 81.6839 84.5722 81.5595 84.3234C81.4884 84.1812 81.4174 84.0746 81.3285 83.968V84.0035Z" fill="black"/>
<path d="M85.2562 83.3105V83.346C85.114 83.5237 85.0074 83.6837 84.883 83.7903C84.7586 83.8969 84.6342 84.0036 84.4743 84.0746C84.2433 84.199 84.0122 84.2523 83.799 84.2523C83.639 84.2523 83.4791 84.2168 83.2836 84.1279C83.0881 84.0569 82.9104 83.9147 82.7149 83.737C82.5372 83.5593 82.3595 83.3105 82.2173 83.0261C81.9685 82.5463 81.8975 82.1198 81.9685 81.7466C82.0396 81.3734 82.2707 81.0891 82.6261 80.9114C82.8216 80.8047 82.9993 80.7514 83.177 80.7514C83.3369 80.7514 83.4969 80.787 83.6213 80.8403C83.6923 80.9469 83.7812 81.1069 83.9589 81.3379L84.1722 81.1779C84.0833 81.0002 84.0122 80.8047 83.9234 80.5737C83.8701 80.4316 83.8345 80.3249 83.8167 80.2183L83.7279 80.1472C83.4435 80.1472 83.2125 80.2005 83.0348 80.2538C82.8393 80.3072 82.6438 80.3782 82.4306 80.4849C81.8086 80.8048 81.3999 81.249 81.2577 81.7999C81.0978 82.3508 81.1866 82.9373 81.471 83.5237C81.6487 83.8614 81.8619 84.1635 82.1285 84.3945C82.3062 84.5545 82.5017 84.6789 82.7327 84.7855C82.9637 84.8743 83.1948 84.9277 83.4435 84.9277C83.7634 84.9277 84.1011 84.8388 84.4387 84.6611C84.6698 84.5367 84.8652 84.4123 85.0074 84.2879C85.1496 84.1635 85.2917 83.9858 85.4339 83.7192L85.3628 83.346L85.2384 83.2927L85.2562 83.3105Z" fill="black"/>
<path d="M87.637 81.6931C87.7259 81.9597 87.7792 82.1374 87.7969 82.2795C87.7969 82.2795 87.7614 82.3329 87.5837 82.4395C87.4415 82.5283 87.2993 82.6172 87.1216 82.6883C86.9439 82.7771 86.8018 82.8482 86.7129 82.9193C86.6596 82.8304 86.6063 82.7238 86.5352 82.5817L85.931 81.4798C86.0198 81.4265 86.1442 81.3554 86.3042 81.2666C86.4641 81.1777 86.624 81.1244 86.8373 81.1066C86.8728 81.1244 86.9262 81.2133 87.1216 81.4976L87.3349 81.3377L86.6596 80.0937L86.4463 80.2536C86.5174 80.4136 86.5707 80.538 86.5885 80.6446C86.5885 80.6446 86.5707 80.6624 86.4641 80.7157C86.2508 80.8401 86.1087 80.9112 86.0731 80.9289C85.9487 80.9823 85.8421 81.0356 85.7888 81.1066L85.5045 80.5202C85.3445 80.2003 85.2201 79.9337 85.1135 79.756C85.2557 79.6672 85.3978 79.5961 85.54 79.525C85.6822 79.4539 85.8421 79.3828 86.0021 79.3295C86.1265 79.294 86.162 79.2762 86.2153 79.3118C86.2331 79.3473 86.3042 79.4362 86.4997 79.7205L86.7129 79.5606L86.3753 78.7253L86.2864 78.672H86.1798C86.0021 78.7786 85.8777 78.8319 85.8243 78.8675L85.3445 79.1163C85.078 79.2584 84.8469 79.3828 84.6337 79.4895L83.7451 79.9871L83.9228 80.2181C84.1361 80.1292 84.2249 80.0937 84.296 80.1115C84.3138 80.1292 84.3849 80.2181 84.5093 80.4669L85.4156 82.2618C85.4867 82.4039 85.5933 82.635 85.7355 82.9726C85.8066 83.1503 85.8777 83.2747 85.8954 83.328C85.8599 83.4169 85.8066 83.5058 85.7533 83.6479L85.8599 83.8434H85.8954C86.3752 83.5591 86.6418 83.4347 86.6774 83.3991C86.8195 83.328 87.0861 83.2036 87.4593 83.0259L87.8502 82.8482C88.0457 82.7594 88.1879 82.6705 88.2768 82.6172L88.3123 82.5106C88.1879 82.2795 88.0635 81.9597 87.8502 81.5509L87.637 81.7109V81.6931Z" fill="black"/>
<path d="M91.7072 80.6268V80.6801L91.6183 80.609C91.5828 80.5912 91.4584 80.5201 91.2451 80.3779L90.2322 79.6493C90.2322 79.6493 90.1611 79.596 90.0722 79.5249C89.9834 79.4716 89.9123 79.4005 89.8412 79.4005C90.0545 79.1695 90.1611 78.9385 90.2144 78.6719C90.25 78.4231 90.2144 78.1743 90.1078 77.9433C90.0189 77.7478 89.8945 77.5879 89.7346 77.499C89.5924 77.4102 89.468 77.3746 89.2548 77.3746C89.1126 77.3746 88.8994 77.4457 88.6506 77.5701C88.5262 77.6234 88.3484 77.7123 88.153 77.8189C88.0286 77.89 87.8864 77.9433 87.7264 78.0322C87.531 78.121 87.371 78.1921 87.2644 78.2276C87.0334 78.3165 86.909 78.3698 86.8379 78.4587L86.9978 78.7252C87.2289 78.6364 87.3177 78.6186 87.3888 78.6364C87.4066 78.6542 87.4599 78.743 87.6021 79.0451L88.7216 81.5331C88.775 81.6752 88.8283 81.7997 88.846 81.9596C88.846 81.9596 88.775 82.0129 88.5262 82.1906L88.6683 82.4927H88.7216C88.9349 82.3505 89.1659 82.2439 89.4147 82.1373C89.6991 82.0129 89.9834 81.8885 90.2855 81.7108L90.1078 81.4442C89.9478 81.5153 89.859 81.5331 89.7346 81.5331C89.7346 81.5331 89.6813 81.4798 89.628 81.3554C89.5924 81.3021 89.5036 81.0888 89.3081 80.6978C89.1659 80.3779 89.0237 80.0758 88.8816 79.7915C88.7927 79.6138 88.6506 79.2584 88.4018 78.7075C88.2951 78.4587 88.2418 78.3165 88.1885 78.2987C88.2596 78.2454 88.3307 78.2099 88.4018 78.1743C88.615 78.0855 88.7039 78.0499 88.775 78.0499C88.8816 78.0499 89.006 78.0855 89.1126 78.1566C89.2192 78.2276 89.3259 78.352 89.3969 78.5298C89.468 78.6897 89.5036 78.8674 89.5036 79.0274C89.5036 79.1873 89.468 79.3117 89.3969 79.4005C89.3259 79.4894 89.2015 79.5783 88.9882 79.7026L89.0415 79.8448C89.0415 79.8448 89.1837 79.8981 89.2548 79.9514C89.4325 80.0758 89.6635 80.2358 89.9301 80.449L90.9075 81.2132C90.9075 81.2132 91.0141 81.3021 91.0852 81.3554C91.2096 81.2843 91.334 81.231 91.4584 81.1777C91.565 81.1243 91.7427 81.0533 92.0271 80.8756L91.8494 80.609C91.8494 80.609 91.725 80.6445 91.7072 80.6445V80.6268Z" fill="black"/>
<path d="M94.2663 78.8497C94.2663 78.8497 94.2663 78.8142 94.2663 78.7964L94.0353 78.9386C94.1064 79.2051 94.1419 79.3829 94.1419 79.525C94.1419 79.5428 94.0886 79.5783 93.9109 79.6672C93.7687 79.7383 93.6088 79.8094 93.431 79.8804C93.2533 79.9515 93.0934 80.0048 93.0045 80.0759C92.969 79.9871 92.9157 79.8627 92.8624 79.7383L92.3648 78.5832C92.4536 78.5298 92.5958 78.4765 92.7557 78.4055C92.9335 78.3344 93.0756 78.2988 93.2889 78.2988C93.3067 78.3166 93.36 78.3877 93.5377 78.7076L93.7687 78.5654L93.2178 77.2681L92.9868 77.4103C93.0401 77.588 93.0756 77.7124 93.0934 77.819C93.0934 77.819 93.0756 77.8368 92.969 77.8901L92.5603 78.0678C92.4359 78.1211 92.3292 78.1567 92.2759 78.21L92.0449 77.6057C91.9205 77.2681 91.8139 76.9838 91.725 76.806C91.8672 76.735 92.0094 76.6639 92.1693 76.6106C92.3292 76.5572 92.4892 76.5039 92.6491 76.4506C92.7557 76.4328 92.7913 76.4151 92.8624 76.4506C92.8979 76.5039 92.9512 76.6283 93.1112 76.8771L93.3244 76.735L93.0756 75.8642L92.9868 75.7931H92.8801C92.6847 75.8642 92.578 75.9175 92.5069 75.9352L92.0094 76.1485C91.7428 76.2551 91.494 76.3618 91.263 76.4506L90.3389 76.8771L90.481 77.1259C90.6943 77.0548 90.7831 77.0371 90.8542 77.0548C90.872 77.0726 90.9253 77.1615 91.0319 77.428L91.7606 79.294C91.8139 79.4362 91.9027 79.685 92.0271 80.0226C92.0982 80.2003 92.1338 80.3425 92.1515 80.3958C92.116 80.4669 92.0627 80.5557 91.9738 80.6979L92.0449 80.9112H92.0982C92.5958 80.6802 92.8801 80.5735 92.9157 80.5558C93.0579 80.5024 93.3422 80.3958 93.7332 80.2536L94.1419 80.1115C94.3374 80.0404 94.4795 79.9693 94.5862 79.916L94.6217 79.8094C94.5329 79.5783 94.4262 79.2585 94.2663 78.8497Z" fill="black"/>
<path d="M99.4735 78.1745L99.4379 78.2278L99.3668 78.139C99.3668 78.139 99.2247 78.0146 99.047 77.8546C99.047 77.8546 98.9581 77.7658 98.7982 77.6058L98.1939 76.9483C98.1939 76.9483 98.1229 76.8772 98.0518 76.7884C97.9807 76.7173 97.9096 76.6462 97.8385 76.6284C98.0873 76.433 98.2473 76.2197 98.3361 75.9887C98.425 75.7399 98.425 75.4911 98.3717 75.2423C98.3183 75.029 98.2295 74.8513 98.0873 74.7269C97.9451 74.6025 97.803 74.5314 97.5719 74.5137C97.4298 74.5137 97.2521 74.5314 97.021 74.6025C96.8789 74.6381 96.7012 74.6914 96.4879 74.7447C96.3635 74.7802 96.2036 74.8335 96.0259 74.8691C95.8126 74.9224 95.6527 74.958 95.5283 74.9757C95.2972 75.029 95.1551 75.0468 95.084 75.1179L95.2084 75.4022C95.3506 75.3845 95.4572 75.3667 95.5993 75.4022C95.5993 75.42 95.6527 75.5089 95.7415 75.8287L96.3813 78.4766C96.4168 78.6366 96.4346 78.761 96.4168 78.9209C96.399 78.9387 96.2747 78.9742 96.0614 79.0986L96.1325 79.4185H96.1858C96.4168 79.3297 96.6479 79.2586 96.9144 79.2053C97.2165 79.1342 97.5186 79.0631 97.8385 78.9565L97.7141 78.6544C97.5542 78.6899 97.4476 78.7077 97.3409 78.6721C97.3409 78.6721 97.3054 78.601 97.2698 78.4766C97.2698 78.4233 97.181 78.1923 97.0744 77.7836C96.9855 77.4459 96.8966 77.126 96.8256 76.8239C96.7722 76.6284 96.6834 76.2552 96.559 75.6688C96.5057 75.42 96.4701 75.2423 96.4346 75.2245C96.5057 75.189 96.5768 75.1712 96.6656 75.1357C96.8078 75.1001 96.9144 75.0823 97.0388 75.0823C97.1454 75.0823 97.2521 75.1534 97.3587 75.2601C97.4653 75.3667 97.5364 75.4911 97.5719 75.6688C97.6075 75.8465 97.6253 76.0064 97.5719 76.1664C97.5364 76.3263 97.4831 76.433 97.3942 76.5218C97.3054 76.5929 97.1632 76.664 96.9322 76.7528V76.9128C96.9322 76.9128 97.0744 77.0016 97.1454 77.0727C97.3054 77.2149 97.4831 77.4281 97.7141 77.6947L98.5316 78.6366C98.5316 78.6366 98.6205 78.761 98.6915 78.8143C98.8159 78.7787 98.9581 78.7432 99.1003 78.7077C99.2247 78.6721 99.4024 78.6366 99.7045 78.5122L99.5801 78.2101C99.5801 78.2101 99.4735 78.2101 99.4557 78.2101L99.4735 78.1745Z" fill="black"/>
<path d="M102.406 77.0903C102.406 77.0903 102.406 77.0548 102.406 77.037L102.139 77.1081C102.139 77.3747 102.139 77.5701 102.104 77.7123C102.104 77.7123 102.05 77.7479 101.837 77.8012C101.677 77.8367 101.499 77.8545 101.322 77.89C101.126 77.9078 100.966 77.9256 100.878 77.9789C100.878 77.8722 100.842 77.7479 100.824 77.6057L100.629 76.3617C100.735 76.3262 100.878 76.3084 101.037 76.2906C101.18 76.2906 101.304 76.2728 101.411 76.2728L101.588 76.3084C101.588 76.3084 101.642 76.415 101.731 76.7704L101.979 76.6816L101.766 75.2777L101.517 75.3488C101.535 75.5265 101.535 75.6509 101.517 75.7753C101.517 75.7753 101.482 75.7753 101.375 75.8108C101.126 75.8463 100.984 75.8641 100.949 75.8819C100.824 75.8819 100.7 75.8997 100.629 75.953L100.558 75.3132C100.522 74.9578 100.487 74.6557 100.451 74.4602C100.611 74.4247 100.771 74.4069 100.931 74.3891C101.073 74.3713 101.215 74.3536 101.446 74.3536C101.606 74.3536 101.642 74.3536 101.659 74.4069C101.659 74.4424 101.695 74.549 101.784 74.8867L102.033 74.8156L101.997 73.9093L101.944 73.8382H101.837V73.8204C101.642 73.8204 101.517 73.856 101.446 73.856L100.913 73.9271C100.611 73.9626 100.344 73.9981 100.113 74.0337L99.1182 74.2114L99.207 74.4957C99.438 74.4957 99.5447 74.4957 99.598 74.5135C99.598 74.5491 99.6335 74.6379 99.6868 74.9222L99.9356 76.9126C99.9534 77.0725 99.9712 77.3214 100.007 77.6945C100.007 77.89 100.024 78.0322 100.042 78.0855C99.9889 78.1566 99.9179 78.2277 99.7935 78.3343L99.829 78.5476L100.096 78.512C100.487 78.4587 100.718 78.4232 100.753 78.4232C100.913 78.4232 101.197 78.3698 101.624 78.3343L102.05 78.2988C102.264 78.281 102.424 78.2454 102.53 78.2277L102.601 78.121C102.566 77.8723 102.548 77.5346 102.495 77.1081L102.406 77.0903Z" fill="black"/>
<path d="M106.12 77.7834C106.12 77.7834 106.013 77.6234 105.889 77.4102L105.302 76.3084C105.302 76.3084 105.267 76.2195 105.196 76.1307C105.142 76.0418 105.107 75.953 105.036 75.9174C105.32 75.793 105.533 75.6331 105.676 75.4198C105.818 75.2066 105.889 74.9756 105.889 74.709C105.889 74.4957 105.853 74.3002 105.747 74.1403C105.64 73.9804 105.516 73.8737 105.373 73.8204C105.231 73.7671 105.018 73.7316 104.734 73.7316H104.574C104.467 73.7316 104.343 73.7316 104.183 73.7316C104.112 73.7316 104.023 73.7316 103.934 73.7316H103.703C103.49 73.7316 103.312 73.7316 103.152 73.7138C102.939 73.7138 102.814 73.696 102.726 73.7316L102.761 74.0337C103.045 74.0692 103.117 74.087 103.152 74.1225C103.152 74.1581 103.17 74.2647 103.17 74.5668L103.099 77.2858C103.099 77.4457 103.081 77.5701 103.028 77.7301C103.028 77.7301 102.957 77.7301 102.637 77.8012L102.672 78.121C102.814 78.121 102.974 78.121 103.134 78.121H103.436C103.739 78.121 104.058 78.1388 104.396 78.121L104.361 77.8012C104.361 77.8012 104.112 77.8012 103.987 77.7301C103.987 77.7123 103.987 77.659 103.97 77.5168C103.97 77.4635 103.97 77.2147 103.97 76.7882C103.97 76.4328 103.97 76.1129 103.97 75.793C103.97 75.5975 103.987 75.2066 104.005 74.6201C104.005 74.3536 104.023 74.1936 104.005 74.1581C104.076 74.1581 104.13 74.1581 104.254 74.1403C104.432 74.1403 104.574 74.1581 104.627 74.1936C104.734 74.2469 104.823 74.3358 104.894 74.4424C104.965 74.5668 105 74.709 105 74.9045C105 75.0822 104.965 75.2421 104.876 75.4021C104.805 75.5442 104.716 75.6331 104.609 75.6864C104.538 75.7219 104.414 75.7575 104.272 75.7575L104.112 75.793V75.953C104.112 75.953 104.201 76.0596 104.236 76.1484C104.343 76.3262 104.485 76.5749 104.627 76.8948L105.16 77.9966C105.16 77.9966 105.214 78.121 105.267 78.2099H105.533H105.693C105.818 78.2099 106.013 78.2099 106.28 78.2277H106.333V78.1744L106.298 77.8545C106.191 77.8545 106.155 77.8367 106.084 77.7656L106.12 77.7834Z" fill="black"/>
<path d="M109.727 77.2326L109.887 76.5218C109.94 76.3085 110.011 76.0242 110.1 75.6688C110.225 75.2245 110.26 75.1001 110.278 75.0646H110.242L110.385 74.9935C110.438 74.9935 110.509 74.9935 110.669 74.9935V74.6914L110.047 74.567C109.994 74.567 109.798 74.5137 109.443 74.4604V74.7802C109.656 74.8335 109.727 74.8869 109.78 74.9757C109.78 75.0113 109.78 75.1179 109.709 75.4378C109.692 75.5622 109.62 75.882 109.496 76.4152L109.354 77.0372C109.265 77.4637 109.158 77.748 109.07 77.8724C108.981 78.0146 108.856 78.1034 108.696 78.1567C108.536 78.2101 108.341 78.2278 108.128 78.1567C107.932 78.1034 107.772 78.0324 107.666 77.9435C107.559 77.8546 107.488 77.7302 107.435 77.6236C107.399 77.4992 107.399 77.3393 107.435 77.1616C107.435 77.0727 107.488 76.8417 107.577 76.4685L107.808 75.4022C107.897 74.9757 107.968 74.7091 108.021 74.5847L108.146 74.5137C108.146 74.5137 108.288 74.5137 108.465 74.5137L108.519 74.2649L108.43 74.1938L106.795 73.8739V74.176L107.115 74.3537C107.115 74.3893 107.115 74.4426 107.115 74.5314C107.079 74.7625 107.026 75.0113 106.955 75.2956L106.653 76.6462C106.582 76.9661 106.546 77.1616 106.528 77.2504C106.528 77.3748 106.528 77.517 106.546 77.6592C106.582 77.8013 106.635 77.9435 106.724 78.0679C106.813 78.1923 106.937 78.3167 107.097 78.4233C107.31 78.5655 107.559 78.6543 107.826 78.7254C107.986 78.761 108.145 78.7787 108.305 78.7787C108.359 78.7787 108.412 78.7787 108.465 78.7787C108.661 78.761 108.839 78.7076 108.981 78.6188C109.141 78.5299 109.265 78.4233 109.372 78.2989C109.478 78.1745 109.567 78.0146 109.62 77.8191C109.692 77.6236 109.745 77.4459 109.78 77.2504L109.727 77.2326Z" fill="black"/>
<path d="M115.076 76.6638C115.076 76.6638 114.881 76.5749 114.632 76.4683C114.507 76.5927 114.401 76.6993 114.312 76.7882C114.223 76.877 113.992 77.0903 113.619 77.4457L112.926 78.0855C112.784 78.2099 112.606 78.3876 112.41 78.6186C112.357 78.6719 112.304 78.7252 112.233 78.7786L112.393 75.402C112.215 75.331 112.055 75.2599 111.895 75.1888C111.771 75.1355 111.54 75.0111 111.166 74.8689L111.078 75.171C111.078 75.171 111.255 75.2776 111.344 75.3487L111.38 75.3132V75.4553C111.38 75.4553 111.344 75.6153 111.184 75.9885C111.042 76.2906 110.9 76.6282 110.704 77.0014C110.509 77.4279 110.367 77.73 110.278 77.9078C110.1 78.2632 109.976 78.4942 109.922 78.5831C109.887 78.6364 109.869 78.6541 109.816 78.6719C109.816 78.6719 109.745 78.6719 109.425 78.6008L109.336 78.903C109.478 78.9563 109.674 79.0451 109.922 79.1517C110.1 79.2406 110.296 79.3295 110.527 79.4005L110.615 79.0984C110.42 78.9918 110.367 78.9385 110.349 78.9385L110.26 78.8852L110.313 78.7963C110.313 78.7963 110.402 78.5653 110.544 78.2454C110.687 77.9255 110.811 77.6412 110.918 77.4102L111.202 76.6816L111.468 76.1306L111.397 77.8189C111.397 78.1033 111.362 78.512 111.326 79.0629C111.309 79.3828 111.291 79.6493 111.291 79.8804L111.504 79.9514C111.611 79.8448 111.735 79.7204 111.913 79.5605C112.197 79.2939 112.41 79.0984 112.57 78.9563L113.53 78.0144L114.205 77.4102L113.281 79.3472C113.103 79.7382 112.979 79.9692 112.943 80.0403C112.89 80.1114 112.855 80.1292 112.855 80.1292C112.837 80.1292 112.766 80.1292 112.464 80.0403L112.375 80.3424L113.939 81.071L114.045 80.7156C114.045 80.7156 113.796 80.5734 113.743 80.449C113.743 80.3957 113.814 80.2358 113.921 80.0048C113.921 79.9692 114.01 79.827 114.116 79.5783L115.129 77.4457C115.2 77.3036 115.254 77.2502 115.343 77.2325C115.396 77.2325 115.485 77.268 115.609 77.3213L115.68 77.3569L115.787 77.0014L115.058 76.6816L115.076 76.6638ZM112.179 78.7786L112.286 76.7704L112.215 78.7608C112.215 78.7608 112.197 78.7785 112.179 78.7963V78.7786ZM111.54 75.9529L111.504 76.8237V76.0596L111.54 75.9707V75.9529ZM114.312 77.268L113.85 78.2454L114.223 77.3391L114.294 77.268H114.312Z" fill="black"/>
</svg>
