<svg width="282" height="94" viewBox="0 0 282 94" fill="none" xmlns="http://www.w3.org/2000/svg">
<path d="M176.287 73.9059H155.786L164.199 62.8279H141.422L133.306 73.4945C130.272 77.7336 129.978 82.012 129.978 84.9812V86.6598C129.978 88.5997 131.18 89.6546 132.963 89.6546H176.287C178.034 89.6546 179.213 88.6908 179.213 86.7186V76.8521C179.213 74.8661 178.034 73.9059 176.287 73.9059ZM59.5828 34.7697C59.2563 32.9147 57.9989 32 56.3628 32H50.569C44.5399 32 39.2194 35.1974 36.2379 40.0279C36.2379 40.0279 30.7086 48.8691 24.5127 58.8201H63.8484L59.5828 34.7697ZM124.374 34.9365C124.374 32.9633 123.198 32 121.438 32H109.644C107.897 32 106.718 32.9633 106.718 34.9365V57.2889L95.5383 37.1931C93.3042 33.4897 89.5419 32.0818 85.1525 32H76.4355C74.7043 32 73.522 32.9633 73.522 34.9365V58.8334H88.1734L90.427 62.8279H73.522V86.7186C73.522 88.6908 74.7043 89.671 76.4355 89.671H88.2584C90.0152 89.671 91.178 88.6908 91.178 86.7186L91.1714 64.2255L102.455 84.4845C104.667 88.1685 108.442 89.5763 112.802 89.671H121.438C123.198 89.671 124.374 88.6908 124.374 86.7186V62.8279H109.827L107.58 58.8334H124.374V34.9365ZM64.5472 62.8279H45.1211C45.6174 65.5449 49.2005 85.7486 49.4128 86.9243C49.7428 88.7435 50.876 89.671 52.5382 89.671H65.9029C67.1272 89.671 67.7447 89.2857 68.3196 88.5869C68.7115 88.0999 68.8747 87.3617 68.6916 86.2807L64.5472 62.8279ZM7.51341 86.0556C6.98438 86.9601 6.98438 87.9106 7.30762 88.5276C7.67995 89.2495 8.50943 89.671 9.40445 89.671H23.2849C25.0351 89.671 26.6 88.7271 27.4718 87.3161L42.7893 62.8279H22.011C14.8781 74.2619 7.6929 85.7911 7.51341 86.0556ZM133.352 47.7293H152.882L144.46 58.8201H167.23L175.535 47.8956C178.099 44.5186 178.693 41.4945 178.693 38.8195V35.0148C178.693 33.0646 177.514 32 175.718 32H133.352C131.604 32 130.435 32.9633 130.435 34.9365V44.803C130.435 46.769 131.604 47.7293 133.352 47.7293Z" fill="black"/>
<path d="M230.358 29.8085C234.346 29.8085 238.885 33.2704 238.885 38.0518C238.885 40.7463 238.026 42.8269 236.762 44.7275C235.952 45.939 235.335 47.3336 235.08 48.3429C234.806 49.4827 234.205 52.2423 237.579 52.2883C239.774 52.3436 245.175 50.4333 249.539 45.1716C252.896 40.9453 254.892 35.5859 254.892 29.74C254.892 16.0784 243.921 5 230.358 5C216.791 5 205.8 16.0784 205.8 29.74C205.8 35.5859 207.793 40.9453 211.154 45.1716C215.524 50.4333 220.922 52.3436 223.114 52.2883C226.488 52.2423 225.877 49.4827 225.615 48.3429C225.367 47.3336 224.747 45.939 223.93 44.7275C222.67 42.8269 221.807 40.7463 221.807 38.0518C221.817 33.2704 226.35 29.8085 230.358 29.8085ZM273.756 54.813C272.75 53.9801 270.986 52.7651 267.365 52.2065C262.338 51.4554 257.854 52.6342 255.153 53.7054C251.603 55.1102 247.229 58.3041 244.209 62.4649C241.021 66.861 239.371 73.4978 240.953 80.415C241.4 82.3616 241.883 83.4589 242.605 84.8239C243.549 86.6789 246.037 89.2691 248.216 89.7361C249.937 90.0922 251.283 89.1023 251.943 88.3544C256.332 83.2696 272.965 63.5786 274.768 61.0641C276.539 58.5655 275.382 56.1647 273.756 54.813ZM205.552 53.7054C202.852 52.6342 198.371 51.4554 193.344 52.2065C189.722 52.7651 187.942 53.9801 186.949 54.813C185.323 56.1647 184.157 58.5655 185.937 61.0641C187.73 63.5786 204.36 83.2696 208.75 88.3544C209.41 89.1023 210.755 90.0922 212.48 89.7361C214.671 89.2691 217.15 86.6789 218.09 84.8239C218.822 83.4589 219.296 82.3616 219.756 80.415C221.334 73.4978 219.658 66.861 216.5 62.4649C213.476 58.3041 209.096 55.1102 205.552 53.7054Z" fill="#A8A8A8"/>
</svg>
