<?xml version="1.0" encoding="UTF-8"?>
<svg id="Layer_1" data-name="Layer 1" xmlns="http://www.w3.org/2000/svg" viewBox="0 0 175.41 42.53">
  <defs>
    <style>
      .cls-1 {
        fill: #fff;
      }

      .cls-2, .cls-3 {
        fill: #231f20;
      }

      .cls-3 {
        fill-rule: evenodd;
      }
    </style>
  </defs>
  <path class="cls-3" d="m68.22,24.52h-2.78l-.33.77c-.11.25-.16.47-.16.63,0,.22.09.38.27.49.1.06.36.11.77.14v.21h-2.62v-.21c.28-.04.51-.16.7-.35.18-.19.41-.59.67-1.19l2.81-6.28h.11l2.84,6.45c.27.61.49,1,.67,1.15.13.12.32.19.56.21v.21h-3.81v-.21h.16c.31,0,.52-.04.64-.13.09-.06.13-.15.13-.27,0-.07-.01-.14-.03-.21,0-.04-.07-.18-.17-.44l-.42-.98h0Zm-.2-.43l-1.17-2.71-1.21,2.71h2.38Z"/>
  <path class="cls-2" d="m76.54,21.34v4.25c0,.41.04.67.12.78.08.1.23.16.47.19v.21h-2.21v-.72c-.26.31-.52.54-.78.68-.26.14-.55.21-.87.21s-.58-.09-.82-.28c-.24-.19-.39-.41-.48-.66-.08-.25-.12-.69-.12-1.32v-2.15c0-.41-.04-.67-.12-.77-.07-.1-.23-.17-.47-.2v-.21h2.21v3.71c0,.39.02.64.05.75.04.11.1.2.17.25.08.06.17.09.28.09.14,0,.26-.04.38-.11.15-.1.34-.3.56-.61v-2.9c0-.41-.04-.67-.12-.77-.07-.1-.23-.17-.47-.2v-.21h2.21Z"/>
  <path class="cls-2" d="m80.92,21.19l.09,1.85h-.2c-.24-.55-.48-.92-.74-1.13-.25-.2-.5-.3-.75-.3-.16,0-.29.05-.41.16-.11.1-.17.23-.17.37,0,.1.04.2.12.3.12.16.47.43,1.04.82.57.38.94.71,1.12.98.18.27.27.57.27.9,0,.3-.08.6-.23.89-.15.29-.36.51-.64.67-.27.15-.58.23-.91.23-.26,0-.6-.08-1.04-.24-.12-.04-.2-.06-.24-.06-.13,0-.23.1-.32.29h-.19l-.09-1.95h.2c.17.51.41.89.71,1.15.31.26.59.38.86.38.19,0,.34-.06.45-.17.12-.12.18-.26.18-.42,0-.19-.06-.35-.17-.48-.12-.14-.37-.34-.78-.62-.59-.41-.97-.72-1.15-.94-.26-.32-.38-.67-.38-1.05,0-.42.14-.79.43-1.13.29-.34.71-.51,1.25-.51.29,0,.58.07.85.21.1.06.19.09.26.09.07,0,.13-.01.17-.04.04-.03.11-.11.2-.25h.2Z"/>
  <path class="cls-2" d="m83.79,19.35v1.98h1.29v.57h-1.29v3.35c0,.31.01.52.04.61.03.09.08.16.16.22.07.05.14.08.2.08.25,0,.49-.19.71-.57l.17.13c-.31.74-.82,1.11-1.53,1.11-.34,0-.64-.1-.88-.28-.24-.19-.39-.41-.45-.64-.04-.13-.06-.49-.06-1.07v-2.93h-.71v-.2c.49-.34.9-.71,1.24-1.09.34-.38.64-.8.9-1.27h.19Z"/>
  <path class="cls-2" d="m87.73,21.34v1.23c.36-.56.67-.93.95-1.11.27-.19.53-.28.78-.28.22,0,.39.07.52.2.13.13.2.32.2.56,0,.26-.06.46-.19.6-.12.14-.27.21-.45.21-.21,0-.38-.06-.53-.2-.15-.13-.24-.2-.27-.22-.04-.02-.08-.04-.13-.04-.11,0-.22.04-.32.13-.16.13-.28.32-.36.56-.12.38-.19.79-.19,1.24v1.57c0,.22.02.36.05.42.05.1.11.18.2.23.09.05.25.07.46.09v.21h-2.93v-.21c.24-.02.39-.08.48-.19.09-.11.13-.4.13-.88v-3c0-.31-.02-.51-.05-.59-.04-.11-.09-.19-.17-.24-.07-.05-.2-.08-.39-.1v-.21h2.22Z"/>
  <path class="cls-3" d="m93.15,25.96c-.66.58-1.25.88-1.78.88-.31,0-.57-.1-.77-.3-.21-.21-.31-.46-.31-.77,0-.41.18-.79.53-1.11.36-.33,1.13-.77,2.33-1.32v-.55c0-.41-.02-.67-.07-.77-.04-.11-.13-.2-.25-.28-.12-.08-.26-.12-.42-.12-.25,0-.46.06-.62.17-.1.07-.15.15-.15.24,0,.08.05.18.16.3.15.17.22.33.22.48,0,.19-.07.35-.21.49-.14.13-.32.2-.55.2-.24,0-.45-.07-.62-.22-.16-.15-.24-.32-.24-.52,0-.28.11-.54.33-.79.22-.25.53-.45.92-.59.39-.14.8-.2,1.23-.2.51,0,.92.11,1.22.33.3.22.5.45.59.71.05.16.08.54.08,1.12v2.11c0,.25,0,.4.03.47.02.06.05.11.09.14.04.03.08.05.13.05.1,0,.2-.07.31-.21l.17.14c-.19.29-.39.5-.6.63-.21.13-.44.19-.7.19-.31,0-.55-.07-.73-.21-.17-.15-.28-.37-.32-.66h0Zm0-.42v-1.82c-.47.27-.82.57-1.04.88-.15.21-.23.42-.23.63,0,.18.06.33.19.47.1.1.23.16.41.16.19,0,.42-.11.67-.32h0Z"/>
  <path class="cls-2" d="m97.86,18.9v6.74c0,.38.04.63.13.74.09.1.26.17.52.18v.21h-2.93v-.21c.24,0,.42-.08.53-.21.08-.09.12-.32.12-.71v-5.62c0-.38-.04-.62-.13-.73-.09-.11-.26-.17-.52-.19v-.21h2.27Z"/>
  <path class="cls-3" d="m100.35,18.71c.25,0,.46.09.64.27.17.17.26.38.26.63s-.09.46-.27.63c-.17.17-.38.26-.63.26s-.46-.09-.63-.26c-.17-.17-.26-.38-.26-.63s.09-.46.26-.63c.17-.18.38-.27.63-.27h0Zm.81,2.63v4.3c0,.38.04.63.13.74.09.1.26.17.52.18v.21h-2.93v-.21c.24,0,.42-.08.53-.21.08-.09.12-.32.12-.71v-3.17c0-.38-.04-.63-.13-.73-.09-.11-.26-.17-.52-.19v-.21h2.27Z"/>
  <path class="cls-3" d="m104.98,25.96c-.66.58-1.25.88-1.78.88-.31,0-.57-.1-.77-.3-.2-.21-.31-.46-.31-.77,0-.41.18-.79.53-1.11.35-.33,1.13-.77,2.33-1.32v-.55c0-.41-.02-.67-.07-.77-.04-.11-.13-.2-.25-.28-.12-.08-.26-.12-.42-.12-.25,0-.46.06-.62.17-.1.07-.15.15-.15.24,0,.08.05.18.16.3.15.17.22.33.22.48,0,.19-.07.35-.21.49-.14.13-.32.2-.55.2-.24,0-.45-.07-.62-.22-.16-.15-.24-.32-.24-.52,0-.28.11-.54.33-.79.22-.25.53-.45.92-.59.39-.14.8-.2,1.23-.2.51,0,.92.11,1.22.33.3.22.5.45.58.71.05.16.08.54.08,1.12v2.11c0,.25,0,.4.03.47.02.06.05.11.09.14.04.03.08.05.13.05.1,0,.2-.07.31-.21l.17.14c-.19.29-.39.5-.6.63-.2.13-.44.19-.7.19-.31,0-.55-.07-.72-.21-.17-.15-.28-.37-.32-.66h0Zm0-.42v-1.82c-.47.27-.82.57-1.04.88-.15.21-.23.42-.23.63,0,.18.06.33.19.47.1.1.23.16.41.16.19,0,.42-.11.67-.32h0Z"/>
  <path class="cls-2" d="m109.67,21.34v.7c.28-.3.54-.52.8-.66.25-.14.53-.21.82-.21.35,0,.64.1.87.3.23.19.39.44.46.73.06.22.09.64.09,1.27v2.11c0,.42.04.68.11.78.08.1.24.16.48.19v.21h-2.74v-.21c.21-.03.35-.11.44-.26.06-.1.09-.34.09-.72v-2.41c0-.44-.02-.72-.05-.84-.04-.12-.09-.2-.18-.27-.08-.07-.17-.1-.27-.1-.33,0-.64.24-.93.71v2.91c0,.41.04.66.11.77.08.11.22.18.42.2v.21h-2.74v-.21c.23-.02.39-.1.49-.22.06-.08.1-.34.1-.75v-3.06c0-.41-.04-.67-.12-.77-.07-.1-.23-.17-.47-.2v-.21h2.21Z"/>
  <path class="cls-2" d="m123.99,18.71v2.77h-.21c-.26-.76-.65-1.33-1.16-1.73-.52-.39-1.09-.59-1.7-.59s-1.08.17-1.47.5c-.39.33-.67.79-.83,1.38-.16.59-.24,1.2-.24,1.82,0,.75.09,1.41.27,1.98.18.57.46.99.86,1.25.4.27.87.4,1.42.4.19,0,.38-.02.58-.06.2-.04.41-.1.61-.18v-1.64c0-.31-.02-.51-.06-.6-.04-.09-.13-.18-.27-.25-.13-.07-.29-.11-.48-.11h-.2v-.21h3.82v.21c-.29.02-.49.06-.61.12-.11.06-.2.16-.26.3-.04.07-.05.25-.05.54v1.64c-.5.23-1.03.39-1.57.5-.54.12-1.1.17-1.69.17-.75,0-1.37-.1-1.86-.3-.49-.2-.93-.47-1.3-.8-.37-.33-.67-.7-.88-1.12-.27-.53-.41-1.13-.41-1.79,0-1.18.42-2.18,1.25-3,.83-.82,1.88-1.22,3.14-1.22.39,0,.74.03,1.06.09.17.03.45.12.82.27.38.14.61.21.68.21.11,0,.21-.04.3-.12.09-.08.18-.23.25-.45h.21Z"/>
  <path class="cls-3" d="m127.76,21.17c.47,0,.91.12,1.32.37.41.24.71.59.92,1.04.21.45.32.94.32,1.47,0,.77-.2,1.41-.59,1.93-.47.63-1.12.94-1.96.94s-1.44-.29-1.88-.86c-.44-.57-.66-1.23-.66-1.99s.22-1.45.67-2.03c.45-.58,1.07-.87,1.86-.87h0Zm.02.41c-.2,0-.37.08-.51.23-.14.15-.23.44-.28.88-.04.44-.06,1.05-.06,1.83,0,.41.03.8.08,1.16.04.27.13.48.27.63.14.14.3.21.48.21s.32-.05.44-.14c.15-.13.25-.32.3-.55.08-.37.12-1.11.12-2.23,0-.66-.04-1.11-.11-1.35-.07-.25-.18-.43-.33-.54-.1-.08-.23-.12-.39-.12h0Z"/>
  <path class="cls-2" d="m132.88,26.92l-1.83-4.21c-.22-.51-.39-.83-.52-.96-.09-.1-.22-.17-.39-.2v-.21h2.88v.21c-.18,0-.31.03-.37.1-.09.08-.14.19-.14.3,0,.14.08.41.26.81l.89,2.04.71-1.76c.2-.5.31-.86.31-1.07,0-.12-.04-.22-.13-.29-.08-.08-.24-.12-.46-.13v-.21h1.77v.21c-.17.02-.31.09-.42.19-.11.1-.27.41-.49.92l-1.81,4.26h-.27Z"/>
  <path class="cls-3" d="m140.13,23.85h-2.98c.03.72.23,1.29.57,1.71.27.32.59.48.96.48.23,0,.44-.06.63-.19.19-.13.39-.37.61-.7l.2.13c-.29.6-.62,1.02-.98,1.28-.36.25-.77.37-1.24.37-.8,0-1.41-.31-1.83-.93-.33-.5-.5-1.12-.5-1.86,0-.91.24-1.62.73-2.16.49-.54,1.06-.81,1.72-.81.55,0,1.02.23,1.43.68.41.45.62,1.12.66,2h0Zm-1.43-.39c0-.62-.04-1.05-.1-1.28-.07-.23-.17-.41-.31-.53-.08-.07-.19-.1-.33-.1-.2,0-.37.1-.49.3-.23.34-.34.82-.34,1.42v.2h1.58Z"/>
  <path class="cls-2" d="m142.7,21.34v1.23c.36-.56.67-.93.95-1.11.27-.19.53-.28.78-.28.22,0,.39.07.52.2.13.13.2.32.2.56,0,.26-.06.46-.19.6-.12.14-.28.21-.45.21-.2,0-.38-.06-.53-.2-.15-.13-.24-.2-.27-.22-.04-.02-.08-.04-.13-.04-.11,0-.22.04-.32.13-.16.13-.28.32-.36.56-.12.38-.19.79-.19,1.24v1.57c0,.22.02.36.05.42.05.1.11.18.2.23.09.05.25.07.46.09v.21h-2.93v-.21c.24-.02.39-.08.48-.19.08-.11.13-.4.13-.88v-3c0-.31-.02-.51-.05-.59-.04-.11-.1-.19-.17-.24-.07-.05-.2-.08-.39-.1v-.21h2.22Z"/>
  <path class="cls-2" d="m147.7,21.34v.7c.28-.3.54-.52.8-.66.26-.14.53-.21.82-.21.35,0,.64.1.87.3.23.19.39.44.46.73.06.22.09.64.09,1.27v2.11c0,.42.04.68.11.78.08.1.24.16.47.19v.21h-2.74v-.21c.2-.03.35-.11.44-.26.06-.1.09-.34.09-.72v-2.41c0-.44-.02-.72-.05-.84-.03-.12-.09-.2-.18-.27-.08-.07-.17-.1-.27-.1-.33,0-.64.24-.93.71v2.91c0,.41.04.66.11.77.08.11.22.18.42.2v.21h-2.74v-.21c.23-.02.39-.1.49-.22.07-.08.1-.34.1-.75v-3.06c0-.41-.04-.67-.12-.77-.07-.1-.23-.17-.47-.2v-.21h2.21Z"/>
  <path class="cls-2" d="m153.99,21.34v.71c.3-.32.57-.55.82-.68.26-.13.53-.2.84-.2.35,0,.64.08.87.24.24.16.42.41.55.74.31-.35.6-.6.89-.75.29-.15.58-.23.89-.23.37,0,.67.09.89.26.22.17.38.39.46.66.09.26.13.68.13,1.27v2.22c0,.42.04.68.11.78.08.1.24.17.48.2v.21h-2.8v-.21c.22-.02.38-.1.49-.26.07-.1.1-.34.1-.72v-2.33c0-.48-.02-.79-.06-.92-.04-.13-.1-.23-.18-.29-.08-.07-.18-.1-.29-.1-.17,0-.33.06-.5.19-.17.12-.34.3-.52.55v2.91c0,.39.03.64.1.74.09.14.26.22.51.24v.21h-2.81v-.21c.15,0,.27-.04.35-.11.09-.07.15-.15.17-.24.03-.1.05-.3.05-.62v-2.33c0-.49-.02-.8-.06-.92-.04-.12-.1-.22-.2-.29-.09-.07-.19-.1-.29-.1-.16,0-.3.04-.42.12-.18.12-.38.33-.58.62v2.91c0,.38.04.64.11.76.08.12.24.19.48.22v.21h-2.8v-.21c.23-.02.39-.1.49-.22.06-.08.1-.34.1-.75v-3.06c0-.41-.04-.67-.12-.77-.07-.1-.23-.17-.47-.2v-.21h2.21Z"/>
  <path class="cls-3" d="m165.75,23.85h-2.98c.03.72.23,1.29.57,1.71.27.32.59.48.96.48.23,0,.44-.06.63-.19.19-.13.39-.37.61-.7l.2.13c-.29.6-.62,1.02-.97,1.28-.36.25-.77.37-1.24.37-.81,0-1.41-.31-1.83-.93-.33-.5-.5-1.12-.5-1.86,0-.91.25-1.62.73-2.16.49-.54,1.07-.81,1.72-.81.55,0,1.03.23,1.43.68.41.45.62,1.12.66,2h0Zm-1.43-.39c0-.62-.04-1.05-.11-1.28-.07-.23-.17-.41-.31-.53-.08-.07-.19-.1-.33-.1-.2,0-.37.1-.49.3-.23.34-.34.82-.34,1.42v.2h1.58Z"/>
  <path class="cls-2" d="m168.17,21.34v.7c.28-.3.55-.52.8-.66.26-.14.53-.21.82-.21.35,0,.64.1.88.3.23.19.39.44.46.73.06.22.09.64.09,1.27v2.11c0,.42.04.68.11.78.08.1.24.16.47.19v.21h-2.74v-.21c.2-.03.35-.11.44-.26.06-.1.09-.34.09-.72v-2.41c0-.44-.02-.72-.05-.84-.03-.12-.09-.2-.18-.27-.08-.07-.17-.1-.27-.1-.33,0-.64.24-.93.71v2.91c0,.41.04.66.11.77.08.11.22.18.42.2v.21h-2.74v-.21c.23-.02.39-.1.49-.22.07-.08.1-.34.1-.75v-3.06c0-.41-.04-.67-.12-.77-.07-.1-.23-.17-.47-.2v-.21h2.21Z"/>
  <path class="cls-2" d="m174.12,19.35v1.98h1.29v.57h-1.29v3.35c0,.31.01.52.04.61.03.09.08.16.16.22.07.05.14.08.2.08.25,0,.49-.19.71-.57l.17.13c-.31.74-.82,1.11-1.53,1.11-.34,0-.64-.1-.88-.28-.24-.19-.39-.41-.45-.64-.04-.13-.06-.49-.06-1.07v-2.93h-.71v-.2c.49-.34.9-.71,1.24-1.09.34-.38.64-.8.9-1.27h.19Z"/>
  <path class="cls-2" d="m19.56,34.08c-.04.06-.09.12-.15.15"/>
  <path class="cls-2" d="m20.91,23.46c.16,0,.28-.13.28-.29s-.13-.29-.28-.29-.28.13-.28.29.13.29.28.29h0Z"/>
  <path class="cls-2" d="m34.07,11.46h0s-10.23,0-10.23,0h0s0,0,0,0v8.26c0,.8.35,1.49.81,1.71l3.94,2.35c.09.1.22.16.36.16.12,0,.24-.05.32-.12l4-2.39c.47-.21.8-.91.8-1.71v-8.26s0,0,0,0h0Zm-6.83,2.39h-.88v-2.12h.88v2.12h0Zm-.64.74l.13-.13-.08-.14.17.02.1-.17.1.17.17-.02-.08.14.13.13-.16.03v.18l-.15-.11-.15.11v-.18l-.16-.03h0Zm-2.47,2.63v-2.01h1.07v2.01h-1.07Zm.18-2.91l.16.02.1-.17.1.17.17-.02-.08.14.13.13-.16.03v.18l-.15-.11-.15.11v-.18l-.16-.03.13-.13-.08-.14h0Zm1.21,2.04l.17.02.1-.17.1.17.17-.02-.08.14.13.13-.16.03v.18l-.15-.11-.15.11v-.18l-.16-.03.13-.13-.08-.14h0Zm.71-1.61c0-.05-.08-.07-.11-.07-.09,0-.13.16-.21.16-.06,0-.1,0-.1-.06,0-.05.12-.1.17-.14-.66,0-.68.3-.78.3-.17,0,.15-.32.24-.41-.13-.02-.21-.19-.36-.27.07-.1.11-.06.19.01,0-.07.05-.15.21-.15.3,0,.21.29.26.29s0-.29.2-.29c.29,0,.66.76.33.76-.14,0-.03-.11-.03-.13h0Zm-.76-2.21l.13-.13-.08-.14.17.02.1-.17.1.17.17-.02-.08.14.13.13-.16.03v.18l-.15-.11-.15.11v-.18l-.16-.03h0Zm-.27-.79v2.12h-1.07v-2.12h1.07Zm2.04,10.92l-2.45-1.46c-.41-.28-.61-.77-.66-1.36v-2.33h3.11v5.15h0Zm-.88-5.43v-2.01h.88v2.01h-.88Zm4.04,5.6l-1.13.68h-.02c-.08.06-.18.1-.3.1s-.22-.04-.3-.11l-1.12-.67v-5.32h2.88v5.32h0Zm0-5.6h-2.88v-5.49h2.88v5.49h0Zm3.39,2.61c-.05.59-.25,1.08-.66,1.36l-2.45,1.46v-5.15h3.11v2.33h0Zm0-2.61h-3.11v-5.49h3.11v5.49h0Z"/>
  <path class="cls-2" d="m27.08,19.4s-.39.12-.28.11c.01-.11.22-.34.31-.42-.02-.13-.18-.01-.36.08.58-.83.21-.49-.12-.43.52-.56.38-.55,0-.38.3-.24.37-.52.32-.61-.28.38-.54.32-.54.67,0,.23-.08.61-.2.74-.15.16-.04-.62-.43-.62-.13,0-.43,0-.52.15.08,0,.2.21.2.29s.08.31-.06.31-.29-.29-.29-.42,0-.1,0-.3c0-.33-.54-.8-.76-.8,0,.23.3.29.3.58-.13,0-.31-.24-.31-.09s.19.17.19.3-.22-.05-.22.09c0,.12.12.1.15.22-.09-.03-.17-.01-.18.03-.01.04.03.09.09.13-.03.03-.06.1-.06.29,0,.65.41.96.71.96.21,0,.18-.15.21-.22,0,.11.11-.06.11.14s-.21.11-.21.29c0,.23.33,0,.33.25,0,.31-.04.31-.04.43,0,.08.34-.11.32-.15.08.03.08.27.23.27.1,0,.12-.25.2-.27-.05.01.31.23.31.12,0-.3-.12-.17-.12-.38,0-.19.42-.16.35-.25-.06-.08-.09-.03-.14-.18,0,.03-.33-.48.07-.22.42.28.47-.64.45-.69h0Z"/>
  <path class="cls-2" d="m37.99,21.56c.19,0,.34-.13.34-.3s-.15-.3-.34-.3-.34.13-.34.3.15.3.34.3h0Z"/>
  <path class="cls-2" d="m36.63,22.37c.19,0,.34-.13.34-.3s-.15-.3-.34-.3-.34.13-.34.3.15.3.34.3h0Z"/>
  <path class="cls-2" d="m20.46,24.24c.19,0,.34-.13.34-.3s-.15-.3-.34-.3-.34.13-.34.3.15.3.34.3h0Z"/>
  <path class="cls-2" d="m21.51,24.33c.19,0,.34-.13.34-.3s-.15-.3-.34-.3-.34.13-.34.3.15.3.34.3h0Z"/>
  <path class="cls-2" d="m50.63,10.21c.5.59.61,1.55.25,2.23-.2-.02-.16-.27-.2-.41-.36-.67-.64-1.51-.32-2.27.23.04.14.32.27.45h0Z"/>
  <path class="cls-2" d="m7.9,11.02c-.11.43-.11,1.02,0,1.42-.09.09-.07-.09-.16-.07-.7-.5-.37-1.49-.55-2.19.04-.05.12-.07.18-.04.32.22.46.52.54.88h0Z"/>
  <path class="cls-2" d="m52.16,11.08c.11.2-.09.4-.23.49-.16.04-.34-.05-.45-.2-.05-.2.05-.38.21-.47.18-.02.36.02.46.18h0Z"/>
  <path class="cls-2" d="m6.81,11.87c-.04.16-.09.32-.23.4-.11,0-.27,0-.34-.09-.11-.09-.13-.25-.07-.38.07-.13.21-.14.34-.16.13.05.25.09.3.23h0Z"/>
  <path class="cls-2" d="m52.86,12.17c.04.11.04.18,0,.29-.12.16-.3.23-.48.16-.12-.07-.16-.2-.2-.31.04-.14.18-.27.3-.32.16,0,.27.09.37.18h0Z"/>
  <path class="cls-2" d="m51.84,12.19c.14.07.04.25.02.36-.09.09-.21.23-.38.18-.09-.09-.2-.09-.23-.22,0-.18.07-.36.25-.41.14-.04.23.04.34.09h0Z"/>
  <path class="cls-2" d="m50.54,12.46c0,.2.02.45-.21.49-.21.07-.36-.11-.41-.25-.02-.18.09-.36.27-.43.14,0,.27.09.36.2h0Z"/>
  <path class="cls-2" d="m8.75,12.55c.05.18-.12.29-.23.38-.12.04-.29-.07-.36-.2-.12-.12.04-.23.07-.34.18-.16.45-.04.52.16h0Z"/>
  <path class="cls-2" d="m7.68,12.6c0,.14-.07.29-.2.34-.14.05-.29-.05-.36-.16-.09-.18.02-.34.16-.41.2-.07.32.11.39.23h0Z"/>
  <path class="cls-2" d="m46.22,12.67c.18.38.32.83.36,1.29-.07.34.05.79-.2,1.02-.25-.09-.27-.4-.43-.56-.32-.63-.04-1.37.07-1.98.14-.05.14.13.2.22h0Z"/>
  <path class="cls-2" d="m6.84,12.89c.05.22-.11.32-.23.45-.21.05-.36-.11-.45-.25-.02-.18.09-.36.23-.43.18-.02.36.07.45.23h0Z"/>
  <path class="cls-2" d="m49.04,13.41c.23.52.25,1.15.09,1.73l-.11.09c-.25-.49-.61-.94-.73-1.46,0-.38.07-.72.21-1.02.12-.09.2.02.25.13.02.2.11.43.29.54h0Z"/>
  <path class="cls-2" d="m51.29,13.09c-.02.18-.09.38-.27.43-.18.04-.36-.02-.41-.22-.05-.18.05-.34.2-.43.2-.11.39.07.48.22h0Z"/>
  <path class="cls-2" d="m7.7,13.65c0,.14-.12.31-.27.34-.14.11-.25-.07-.38-.13-.05-.14-.09-.27,0-.41.05-.11.18-.11.29-.14.16.09.32.16.36.34h0Z"/>
  <path class="cls-2" d="m8.48,13.56c.07.18-.12.27-.2.36-.21.07-.32-.09-.41-.22-.04-.18.07-.29.2-.4.21-.05.32.09.41.25h0Z"/>
  <path class="cls-2" d="m51.79,13.5c-.02.23-.38.47-.41.7-.2.49-.62.85-1.11,1.01-.11.09-.25.22-.41.23-.04-.36.29-.68.48-1.01.37-.49.89-.79,1.45-.94h0Z"/>
  <path class="cls-2" d="m7.34,14.26c.27.31.41.58.73.84.02.07-.04.18-.12.18-.87-.05-1.46-.95-1.89-1.58.05-.2.29-.04.41-.05.3.23.64.31.87.61h0Z"/>
  <path class="cls-2" d="m52.04,14.51c-.04.77-.41,1.56-1.11,1.94-.2.07-.41.27-.61.14.38-.77.95-1.4,1.57-2.09h.14Z"/>
  <path class="cls-2" d="m48.61,15.03c.05.27-.09.43-.3.52-.2.02-.32-.14-.41-.29-.02-.18.09-.34.25-.4.05-.05.14-.05.21-.05.11.04.16.13.25.22h0Z"/>
  <path class="cls-2" d="m6.36,15.19c.34.23.64.56.96.84-.23.16-.52.02-.79.02-.61-.22-1.02-.74-1.64-.92.02-.2.25-.13.37-.18.39-.04.71.14,1.09.23h0Z"/>
  <path class="cls-2" d="m25.48,9.87c-1-.4-1.66.65-2.68.52-.12.07-.09.2-.16.29-.05.05-.14.02-.2-.02-.05-.43-.2-.83-.25-1.24-.11-.18-.05-.43-.14-.61-.57-1.56,1.39-.38,1.78-1.29.34-.79-.66-.88-.96-1.44v-.23c-.29-.29-.59-.38-.77-.76.12-.45.18-.93.05-1.38-.02-.11-.09-.25-.25-.2-.34.47-.59.85-.91,1.29-.34-.25-.66-.57-1.05-.79-.27-.04-.52-.31-.82-.2-.05.11,0,.2.05.27.02.7.37,1.26.87,1.76l.05.27c-.32.74-.23,1.58-.32,2.37-.8,2.05-2.11,4.03-3.87,5.45-1.02,1.15-2.23,2.27-2.39,3.85-.05.25.04.56-.16.74-.59-.22-1.18-.5-1.66-.88-.82-.58-2-.5-2.53-1.55-.21-.41.05-.83.25-1.13.61-.58.52-1.6.2-2.3-.07-.02-.09.07-.14.09-.05,1.06-.89,1.8-.57,2.97.07.34.25.56.34.88-.13-.04-.3-.04-.41-.09-.39-.05-.79-.22-1.2-.16-.82.38-1.95-.09-2.61.67-.11.02-.25.04-.21.2.39,0,.77.11,1.16.09.62.11,1.04-.41,1.46-.65h.11c.18-.18.48-.07.71-.11,1.12.13,2,.67,2.93,1.22v.07c-.36.16-.77.27-1.12.47-.41.31-.87.7-1,1.2-.29.45.09.84.27,1.22.02.18.04.4.2.47.57-.61.04-1.37.12-2.07.14-.54.64-.79,1.16-.93,1.02-.43,1.75.4,2.57.86-.02.83.09,1.62-.09,2.43-.25.09-.57.14-.84.13-1.41.11-2.52.88-3.78,1.31-.57.2-1.25.18-1.82.4.45.13.91-.04,1.37-.05,1.75-.25,3.09-1.6,4.98-1.37l.04.05c-.21.45-.5.83-.84,1.17-.05-.2-.07-.36-.25-.47-.14-.07-.3,0-.41.14-.05.09-.05.2,0,.27.09.16.23.2.39.25-.04.16-.23.23-.34.38-.5.84-1.52.5-2.11,1.1-.09.13-.41.2-.27.4.68.07,1.34-.11,1.84-.47.66-.74,1.36-1.44,2.02-2.14.11.58-.05,1.17-.39,1.64-.16-.09-.29-.22-.48-.27-.18.04-.3.22-.32.36.07.13.14.27.27.36-.61.43-1.37.47-2.07.67-1.3.16-2.57.27-3.89.29-.62-.04-1.34.18-1.93,0-.68.13-1.41-.09-1.96.29-.07.09.02.18.02.27.82.54,1.95.11,2.87.27h7.03c.52-.02,1.04-.04,1.45-.27.91-.52,1.41-1.46,1.87-2.37.18-.32.3-.7.37-1.08.18-.61.73-1.04,1.34-1.1.09.93-.09,1.87-.3,2.73-.11.58-.48,1.13-.25,1.75.05.29.36.29.59.32,2.16-.04,4.32-.13,6.6.04.41.07.77.2,1.21.18.04-.05.16-.07.11-.18-.05-.2-.2-.45-.43-.5-.04-.11-.2-.07-.25-.14-1.14-.65-2.52-.31-3.85-.29-.7.07-1.39.2-1.98-.2-.27-.32-.07-1.35-.07-1.35,0-.41.98-3.24,1.11-3.47.04-.27.14-.52.11-.83.14-.36.11-.83.11-1.22.07-.58.36-1.11.55-1.67.11-.27.2-.56.3-.83.11-.34.14-.66.36-.93.58.37,1.15.36,1.43,1.02l.25,1.5c0,.09.07.27.2.16.46-.31.32-.99.32-1.46.11-.56-.29-.83-.45-1.31-.12-.09-.33-.52-.33-.52-.07-.4-.94-.67-.74-1.15.11-.41.21-.79.61-1.02.06.04.08.08.09.13l.21-.15.02-1.5c.58,0,1.44.07,2.03.07.16.05.29.18.46.2l.14-.2,1.45-.28c-.61.07-.99-.64-1.57-.64h0Z"/>
  <path class="cls-1" d="m27.05,10.51s.09-.01.13-.03l-.13.03h0Z"/>
  <path class="cls-2" d="m11.5,15.52c.02.22-.11.34-.27.41-.14-.05-.25-.07-.34-.22-.07-.2.11-.34.25-.41.14.04.32.05.36.22h0Z"/>
  <path class="cls-2" d="m10.34,15.52c.11.11.12.29.07.41-.12.11-.32.2-.43.05-.11-.11-.21-.23-.12-.38.12-.13.34-.23.48-.09h0Z"/>
  <path class="cls-1" d="m35.19,15.71s0,.02.02.03"/>
  <path class="cls-2" d="m48.79,16.02c.07.2-.09.34-.23.41-.18-.05-.41-.09-.41-.32.02-.14.14-.23.27-.27.16-.05.3.07.37.18h0Z"/>
  <path class="cls-2" d="m49.74,15.98c.05.09.18.23.04.32-.07.05-.13.07-.18.14-.2.04-.37-.04-.43-.22-.04-.2.12-.29.27-.38.12-.04.21.05.3.13h0Z"/>
  <path class="cls-2" d="m5.86,16.2c-.07.22-.25.31-.48.23-.05-.05-.11-.14-.14-.23.02-.13.05-.25.2-.31.21.02.37.11.43.31h0Z"/>
  <path class="cls-2" d="m11.88,16.5c-.02.14-.18.27-.3.34-.18.02-.3-.13-.39-.25,0-.14.07-.32.21-.36.2-.07.41.07.48.27h0Z"/>
  <path class="cls-2" d="m10.82,16.38c.05.05.11.2.05.29-.11.09-.27.25-.45.14-.11-.09-.23-.16-.2-.34.07-.07.16-.18.27-.22.14-.04.21.05.32.13h0Z"/>
  <path class="cls-2" d="m52.47,16.59c0,.14-.14.29-.23.34-.14.05-.3.02-.39-.09-.11-.04-.07-.18-.07-.27.09-.13.21-.2.34-.23.16.04.27.14.36.25h0Z"/>
  <path class="cls-2" d="m53.61,16.76c-.05.16-.18.31-.34.32-.11-.02-.3-.05-.27-.22,0-.13.07-.25.16-.29.18-.09.39,0,.45.18h0Z"/>
  <path class="cls-2" d="m7.9,17.01c.04.22-.04.36-.21.43-.12.07-.25-.02-.34-.09-.09-.09-.16-.23-.09-.36.04-.16.2-.13.3-.2.16.02.25.09.34.22h0Z"/>
  <path class="cls-2" d="m8.77,17.17c.05.14-.11.2-.14.31-.09.05-.21.11-.32.04-.12-.11-.27-.27-.14-.43.14-.27.52-.13.61.09h0Z"/>
  <path class="cls-2" d="m51.41,17.08c.02.18-.14.31-.25.41-.16.04-.32-.07-.36-.22-.02-.14.07-.25.2-.34.16-.02.32,0,.41.14h0Z"/>
  <path class="cls-2" d="m52.88,17.37c-.04.16-.02.34-.2.45-.14.04-.32.02-.43-.07-.11-.09-.13-.25-.07-.38.09-.14.25-.25.43-.22.12.07.16.16.27.22h0Z"/>
  <path class="cls-2" d="m7.22,17.74c.07.14-.09.18-.14.25-.12.07-.25.02-.36-.04-.13-.07-.07-.25-.05-.34.16-.31.48-.09.55.13h0Z"/>
  <path class="cls-2" d="m51.75,18.09c.07.02.04.13.02.16-.43.22-1.07.27-1.45-.07-.21-.18-.48-.25-.71-.4.09-.23.41-.22.64-.27.52.07.93.56,1.5.58h0Z"/>
  <path class="cls-2" d="m8.07,17.92c.04.14-.07.2-.11.31-.07.11-.21.07-.3.04-.16-.11-.23-.31-.12-.45.2-.2.43-.09.54.11h0Z"/>
  <path class="cls-2" d="m9.64,18.03c.07.16-.04.31-.18.39-.13.07-.23-.04-.34-.05-.09-.13-.25-.27-.09-.41.16-.27.48-.13.61.07h0Z"/>
  <path class="cls-2" d="m30.28,18.79c-.03.36-.63-.05-.54.43.08.34.15.75.36,1.01.17.24.08.62.07.91-.15.26-.41.44-.68.58-.51-.05-1.25.26-1.49-.38-.1-.27-.29-.55-.29-.85.05-.03.12-.03.17-.09,0-.12-.14-.19-.12-.31.58-.1-.24-.61.25-.65.41.43,1.07.29,1.42.75.08.07.15.17.25.22-.07-.43-.27-.85-.34-1.32-.05-.24.03-.46.2-.6.31-.24.56.1.73.29h0Z"/>
  <path class="cls-2" d="m11.22,18.68c.05.18-.09.29-.2.38-.16.07-.25-.11-.32-.2-.05-.18.07-.27.18-.36.12,0,.27.05.34.18h0Z"/>
  <path class="cls-2" d="m22.23,18.86c.21.7.14,1.42-.21,2.01-.02.14.04.38-.16.36-.48-.67-.12-1.6.07-2.3.04-.18.25-.25.3-.07h0Z"/>
  <path class="cls-2" d="m37.51,19.2c.25.5.27,1.17.04,1.67l-.14.14c-.2-.41-.36-.83-.41-1.28.09-.32.2-.61.21-.95.25-.05.23.27.3.41h0Z"/>
  <path class="cls-2" d="m12.61,19.4c-.11.22-.41.27-.61.41-.43.32-1.05.4-1.59.31.46-.65,1.18-1.02,2.03-.85.04.07.13.04.16.13h0Z"/>
  <path class="cls-2" d="m5.27,20.05c.66.47.84,1.11,1.23,1.76.05.07.23.09.16.23-.14.11-.29-.11-.48-.07-.68-.31-1.11-1.06-1.09-1.85,0-.07.11-.07.18-.07h0Z"/>
  <path class="cls-2" d="m36.81,20.6c.02.18-.02.36-.16.41-.2.05-.36-.05-.41-.22-.05-.13.05-.2.09-.29.14-.14.39-.07.48.09h0Z"/>
  <path class="cls-2" d="m44.34,21.56c0-.34.09-.66.12-.99.05-.11.09-.23.07-.38.43-.58,1.3-.4,1.98-.34.27.14.61.13.89.2.12-.09.3-.11.45-.09.57-.31.2-.97.23-1.49l-.21-.54c-.05-.11-.11-.23-.14-.36-.11-.13-.18-.36-.29-.49-.3-.79-.89-1.24-1.39-1.87-.91-1.19-2.34-1.85-3.77-2.32-1.41-.49-2.84.14-4.11.59-.39-.11-.59-.41-.7-.76-.07-.68.07-1.35.34-1.91.05-.45.36-.79.48-1.2.32-1.01.66-2,.73-3.09.04-.67-.46-1.13-.96-1.42-.34-.09-.73-.07-.98.2-.23.49-.73.81-1.16,1.04-.04.31.34.11.46.22.39.07.84-.05,1.16.2.04.72-.38,1.31-.75,1.85-.61.9-1.25,1.82-1.62,2.8l-.07-.07.09,4.39c.57.95,1.28,2.03,2.34,2.38.57.47,1.29,1.02,2.05.61.41-.13.45.45.64.68.21.67-.27,1.13-.3,1.74l-.46.99c-.54,1.04-1.02,2.16-1.84,3.04-.27,0-.43.29-.7.3-.14.2-.43.05-.61.13-.55.23-1.34.09-1.71.61.04.05.09.07.14.09,1.09.02,2.3.09,3.46.04.14-.05.27-.18.29-.34-.16-.3.05-.58.2-.81.09-.43.37-.7.5-1.11.37-.74.8-1.46,1.21-2.19l.55-.9c.13-.31.34-.68.55-1.01.14-.14.21-.31.32-.49.02-.18-.07-.25-.18-.38.13-.13.32-.09.48-.13.45.27.91.7,1,1.19l.16.47.07.22-.04.59.07.56c.09.86-.07,1.74-.16,2.61-.3,1.04-1.5.93-2.36,1.17-.21.14-.62.07-.62.43,1.03.22,2.25.09,3.35.07.18-.07.21-.23.3-.4.04-.23.27-.43.2-.68-.2-.25-.02-.65-.07-.99.04-.09.04-.22,0-.34.14-.52.11-1.15.21-1.65l.07-.68h0Z"/>
  <path class="cls-2" d="m53.13,20.85c-.57.81-1.18,1.73-2.18,2.01-.07,0-.14.04-.18-.05.61-.65.93-1.65,1.87-1.89.14-.07.34-.14.48-.07h0Z"/>
  <path class="cls-2" d="m4.4,21.74c-.09.07-.02.23-.18.25-.14.07-.3-.02-.37-.16-.07-.18.09-.36.23-.4.14.07.29.13.32.31h0Z"/>
  <path class="cls-2" d="m9.54,21.99c.05.16-.12.16-.21.2-.75.27-1.52.02-2.05-.52,0-.07,0-.14.07-.16.73.18,1.59.04,2.2.49h0Z"/>
  <path class="cls-2" d="m5.38,21.75c.04.07.05.2.04.27-.11.16-.27.2-.45.16-.11-.05-.16-.13-.23-.23.02-.18.16-.29.3-.34.14.02.25.05.34.14h0Z"/>
  <path class="cls-2" d="m22.1,21.84c.04.16-.11.27-.21.34-.16.04-.3-.04-.37-.14-.05-.13,0-.31.12-.34.16-.04.41-.02.46.14h0Z"/>
  <path class="cls-2" d="m53.8,21.92c.05.18-.11.27-.23.38-.11.05-.23,0-.34-.05-.02-.09-.12-.16-.09-.29.07-.16.23-.23.41-.22.09.07.16.09.25.18h0Z"/>
  <path class="cls-2" d="m54.98,21.84c.11.16.02.29-.07.41-.07.13-.21.16-.32.11-.11-.11-.25-.16-.27-.32,0-.14.16-.25.27-.31.18-.07.25.11.39.11h0Z"/>
  <path class="cls-2" d="m3.65,22.37c.02.13-.09.2-.12.31-.09.04-.18.11-.29.07-.13-.05-.21-.16-.27-.29.04-.16.14-.3.32-.36.14.04.3.11.36.27h0Z"/>
  <path class="cls-2" d="m41.24,22.37c.04.07.02.16.02.23-.11.14-.25.27-.43.18-.11-.11-.23-.22-.18-.38.14-.2.45-.27.59-.04h0Z"/>
  <path class="cls-2" d="m6.52,22.63c-.04.13-.09.25-.25.27-.16.02-.21-.12-.3-.2,0-.16-.02-.32.14-.41.21-.07.41.11.41.34h0Z"/>
  <path class="cls-2" d="m4.81,22.67c.05.18-.07.31-.18.4-.21.07-.39-.09-.48-.25.02-.16.14-.36.32-.41.16,0,.25.18.34.27h0Z"/>
  <path class="cls-2" d="m42.42,22.63c.04.18-.02.36-.2.43-.21.07-.39-.11-.48-.25.09-.14.11-.34.32-.38.16,0,.27.07.36.2h0Z"/>
  <path class="cls-2" d="m5.65,22.71c.05.13-.05.18-.09.27-.09,0-.14.11-.25.07-.07-.09-.21-.13-.23-.25-.02-.18.11-.27.23-.34.18-.02.29.11.34.25h0Z"/>
  <path class="cls-2" d="m52.82,22.85c-.05.14-.16.22-.3.29-.14.04-.23-.09-.34-.14-.09-.07-.05-.23-.02-.32.18-.31.66-.16.66.18h0Z"/>
  <path class="cls-2" d="m54.18,22.92c-.05.2-.25.29-.43.31-.16-.07-.34-.2-.21-.41.07-.07.11-.14.21-.16.21-.07.37.09.43.27h0Z"/>
  <path class="cls-2" d="m45.7,23.05c.09.23-.12.31-.27.41-.12-.02-.23-.07-.34-.14-.04-.2.05-.38.25-.47.16,0,.25.07.36.2h0Z"/>
  <path class="cls-2" d="m40.79,23.26c.09.04.05.16.03.21-.11.07-.25.25-.41.14-.12-.07-.21-.18-.18-.34.09-.2.46-.22.55-.02h0Z"/>
  <path class="cls-2" d="m41.79,23.39c.02.14-.02.22-.14.29-.13.13-.27-.02-.39-.05-.04-.07-.07-.18-.02-.27.05-.07.14-.13.23-.14.12.04.27.04.32.18h0Z"/>
  <path class="cls-2" d="m11.5,23.41c.11.11-.02.23-.04.34-.09.11-.29.2-.45.09-.18-.07-.16-.31-.12-.45.11-.04.11-.16.25-.16.16.02.25.09.36.18h0Z"/>
  <path class="cls-2" d="m47.61,23.48c.04.18-.14.25-.27.29-.21.07-.32-.09-.41-.23,0-.11.11-.18.14-.27.25-.11.41.07.54.21h0Z"/>
  <path class="cls-2" d="m46.65,23.48c.07.18-.13.27-.2.36-.13.05-.29.04-.39-.07-.09-.05-.09-.16-.09-.27.11-.09.16-.2.29-.23.16,0,.32.09.39.21h0Z"/>
  <path class="cls-2" d="m54.7,23.7c.04.25-.29.13-.41.2-.75.45-1.71.11-2.43-.16.05-.23.32-.14.46-.23.77-.49,1.55.11,2.32.14l.05.05h0Z"/>
  <path class="cls-2" d="m5.84,23.48l-.07.13c-.66.39-1.52.66-2.3.41l-.07-.11c.66-.48,1.53-.61,2.39-.48l.05.05h0Z"/>
  <path class="cls-2" d="m49.43,23.61c0,.14-.07.27-.18.34-.18.05-.41,0-.46-.2-.05-.14.09-.29.23-.34.13,0,.34.02.41.2h0Z"/>
  <path class="cls-2" d="m9.04,23.68c-.07.14-.04.29-.21.36-.18.07-.39-.09-.45-.23-.05-.2.09-.25.18-.34.21-.11.38.05.48.22h0Z"/>
  <path class="cls-2" d="m7.77,23.77c.05.13-.05.2-.09.29-.09.11-.25.09-.36.05-.12-.11-.25-.23-.2-.43.11-.09.16-.14.29-.2.16.04.32.11.36.29h0Z"/>
  <path class="cls-2" d="m50.68,24.18c-.02.16-.14.29-.29.32-.14.02-.27-.09-.34-.18-.05-.11-.04-.25.07-.34.04-.05.16-.05.23-.09.16.02.29.14.32.29h0Z"/>
  <path class="cls-2" d="m6.45,23.98c.05.14-.07.2-.09.31-.05.31-.25.5-.39.77-.34.41-.82.41-1.3.54l-.07-.14c.52-.67,1.07-1.19,1.8-1.51l.05.04h0Z"/>
  <path class="cls-2" d="m49.79,24.38c.04.22-.14.25-.27.34-.16,0-.29-.09-.36-.21-.05-.2.12-.27.23-.36.18-.04.34.09.39.23h0Z"/>
  <path class="cls-2" d="m8.5,24.38s.02.07.05.09c-.02.2-.16.25-.27.34-.16,0-.29-.05-.39-.18-.07-.16,0-.36.18-.41.16-.02.37,0,.43.16h0Z"/>
  <path class="cls-2" d="m53.07,24.92c.18-.02.21-.23.41-.27.18-.04.34.07.43.2.07.21-.09.32-.23.41-.12.09-.39-.11-.38.13.12.09.23.22.25.36-.04.07-.16.05-.21.02-.52-.22-1.07-.58-1.29-1.12-.07-.16-.41-.29-.21-.43.52-.04.95.38,1.23.7h0Z"/>
  <path class="cls-2" d="m54.79,24.36c.09.09.05.25-.02.34-.09.18-.36.11-.52.09-.09-.09-.18-.18-.14-.32.07-.11.14-.18.27-.23.16-.04.29.04.41.12h0Z"/>
  <path class="cls-2" d="m48.31,25.33c.16.2.32.5.39.72-.04.05-.12.04-.16.04-.61-.34-1.39-.72-1.62-1.44-.05-.07-.2-.16-.18-.29.46-.09.91.25,1.23.5.12.18.27.27.34.47h0Z"/>
  <path class="cls-2" d="m7.5,24.65c.07.16-.07.29-.16.36-.2.04-.3-.04-.41-.14-.12-.2.11-.36.25-.43.14-.02.23.13.32.22h0Z"/>
  <path class="cls-2" d="m50.54,25.06c.02.11-.12.18-.18.25-.14.02-.29.07-.41-.05-.04-.09-.12-.23-.02-.32.2-.25.48-.05.61.12h0Z"/>
  <path class="cls-2" d="m54.98,25.31c.05.21-.11.36-.25.45-.18.05-.32-.07-.43-.16-.09-.11-.02-.22,0-.34.12-.11.29-.2.46-.13.07.05.14.09.21.18h0Z"/>
  <path class="cls-2" d="m42.63,27.79c0,.21-.39.16-.55.32-.55.29-1.21.29-1.87.27v-.11c.64-.54,1.57-.74,2.43-.49h0Z"/>
  <path class="cls-2" d="m16.59,28.57c-.02.16-.11.25-.27.31-.12,0-.25-.07-.3-.18-.07-.21.11-.31.23-.4.16.02.3.14.34.27h0Z"/>
  <path class="cls-2" d="m42.33,28.77c-.04.16-.09.34-.27.41-.16.04-.27-.05-.39-.13-.09-.07-.04-.2-.05-.29.12-.32.59-.32.71,0h0Z"/>
  <path class="cls-2" d="m45.88,28.84c-.45.29-.95.63-1.54.63l-.96-.02-.09-.07c.59-.72,1.66-.72,2.59-.65v.11h0Z"/>
  <path class="cls-2" d="m11.7,29.27c0,.16-.07.29-.23.34-.18.04-.3-.04-.37-.16-.07-.16,0-.32.14-.41.2-.13.39.09.46.23h0Z"/>
  <path class="cls-2" d="m12.59,29.45c.05.09-.03.14-.07.24-.11.05-.25.09-.34,0-.13-.07-.16-.2-.11-.31.05-.11.16-.09.21-.16.12.05.25.11.3.23h0Z"/>
  <path class="cls-2" d="m5.75,31.26c-.18.22-.46-.05-.66-.16-.62-.36-.61-1.06-1.23-1.47.07-.22.23.02.36-.02.11.07.25.14.37.2.61.34.75.92,1.16,1.46h0Z"/>
  <path class="cls-2" d="m57.78,24.29c-.29-.52-.77-.74-1.34-.74-.46.04-.8.34-1,.74-.11.4.04.75.34.99.12.05.29.04.36-.09.09-.23-.16-.23-.2-.41-.07-.25.02-.47.2-.63.18-.18.48-.09.7-.09.21.14.43.27.54.52.11.31.11.65,0,.95-.2.45-.64.81-1.11.9-1.48.21-17.74.14-17.74.14-1.91.18-4.09-.36-5.73.65-.75.36-1.12,1.19-1.32,1.92-.48.43-1,.94-1.39,1.42l-.05-.05c.09-.43.29-.81.37-1.24.27-.36.27-.84.46-1.24.68-1.1,1.32-2.21,2.37-2.98.45-.59,1.23-.49,1.91-.49.73.34,1.59.45,2.48.36.04-.04.05-.07.05-.13-.25-.23-.66-.32-.95-.56-.71-.34-1.39.11-2.14.05-.04-.04-.07-.05-.05-.11.68-.5,1.45-.86,2.21-1.19.62-.34,1.29-.52,1.95-.77.27,0,.52-.23.77-.07l.95-.25s.07.07.14.05c.8-.27,1.82-.02,2.73-.04l.13.11.86.22c.32.04.46.41.8.43.18-.25-.2-.36-.29-.52.39-.09.84.02,1.2.18l-.18.2c-.11.2.05.34.21.41.12.04.21-.05.3-.09.23-.16-.02-.32.05-.47,1.32.23,2.59.56,3.8,1.08.34.11.66.36,1.04.34-.37-.34-.89-.52-1.36-.72-.3-.18-.73-.2-.96-.45.05-.09.18-.05.23-.13.61-.07,1.12-.52,1.55-1.01.04-.11.23-.07.21-.22-.16-.18-.43.05-.64.04-.75.14-1.07,1.02-1.82,1.19-.91-.22-1.84-.43-2.75-.66-.45-.07-.93-.11-1.34-.29l-1-.09h-1.82s-.07-.05-.05-.11c.64-.16,1.2-.54,1.84-.7l4.78-2.19c.5-.45.95-.95,1.36-1.47.02-.14-.07-.29-.2-.34-.12-.05-.27-.04-.36.07-.21.16,0,.36,0,.56-.21.29-.55.54-.82.7-.07-.02-4.93,2.21-4.93,2.21-.71.31-1.43.65-2.18.81l-1.04.16c-.07.22-.25.34-.45.41-.28.05-.52.23-.82.23-2.32.9-4.73,1.85-6.57,3.68.11-.21.16-.48.18-.75-.04-.27-.02-.57-.2-.79-.04-.1-.17-.39-.13-.49l-.26.17c-.16.4-.3,1.11-.14,1.53.05.32.32.7.07.99-.86,1.04-1.34,2.3-1.91,3.49-.21-.04-.32-.23-.41-.43.61-.77,1.09-1.64,1.27-2.62.12-.09.04-.32.16-.43-.04-.29.16-.58.02-.81.11-.39-.52-.75-.12-1.01l-.34.16c-.77,1.01.4,2.52-.48,3.49v.07c-.25.32-.37.65-.71.86-.43-.18-.59-.66-.84-1.02-.39-.38-.39-1.15-.16-1.67.16-.52-.11-.97-.16-1.44l-.18-.11c-.43.56-.59,1.44-.25,2.1.18.32.2.77.46,1.04.16.52.48.86.77,1.33.07.18-.11.22-.2.31-.2-.12-.16-.41-.34-.54-.59-1.26-1.36-2.27-2.28-3.29-.04-.16-.2-.3-.11-.49.34-.32.41-.95.23-1.37-.04-.09-.14-.2-.12-.29l-.27-.21c.04.63-.37,1.19-.2,1.85v.04c-1.84-1.38-3.87-2.62-5.94-3.59l-.16.46c.52.13,1.91.98,1.91.98.62.23,1.2.61,1.79.95,2.43,1.35,4.03,3.58,5.12,6.06.02.2.2.41.07.61-.37-.58-.91-.9-1.36-1.37-.12-.84-.62-1.65-1.36-2-.27-.4-.84-.43-1.29-.56l-6.5-.04c-5.28-.07-10.1.16-15.35.07-.73-.07-1.62-.32-1.84-1.1-.14-.27-.14-.74,0-.99.2-.34.55-.45.91-.48.29.04.48.3.61.5,0,.23-.2.45-.29.65.02.07.09.21.21.16.23-.09.41-.34.46-.57.02-.13.07-.3-.05-.4-.11-.38-.5-.65-.84-.74-.45-.04-.91.09-1.21.41-.43.36-.41,1.01-.29,1.51.29.79,1.12,1.33,1.93,1.44l17.37.07c1.7.09,3.6-.2,5.32.14.62.2,1.29.66,1.45,1.37-.02.04-.07.02-.12.02-1.41-.92-3.27-1.26-5.07-1.04-.71-.04-1.36.23-2,.41-.34.07-.66-.09-.87-.29-.64-.58-1.77-.54-2.59-.32,0,.05-.02.11.02.13.87-.07,1.39.68,2.18.77.18.04.32-.16.48-.02-.82.4-1.61.86-2.48,1.11-.27-.05-.41-.31-.62-.45-.34-.38-.96-.22-1.43-.25-.16.04-.3-.07-.41,0,.14.29.46.45.77.59.45.2.96-.02,1.37.25-.11.13-.25.16-.37.25-.84.32-1.54,1.08-2.46,1.03-.98.11-1.98-.18-2.64-.86-.29-.7-1.02-1.08-1.8-1.04-.05.04-.12.04-.11.13.39.23.7.7,1.09.97.25.3.73,0,.96.34.34.23.77.43,1.16.5.29.12.61.18.93.25l-.12.07c-1.62.54-3.5.59-5.32.52-.54-.02-1.05-.18-1.59-.16.09.11.27.2.43.25-.14.09-.3.12-.48.14-.21.05-.46.07-.68.18-.29-.02-.54.09-.77.18-.3.32-.66.66-1.02.83,0,.07-.02.18.07.18.34-.14.77-.04,1.11-.18.59-.05.93-.7,1.39-.97.5-.39,1.21-.3,1.82-.21.36.09-.04.23.07.47.14.12.27.27.46.21.04-.04.07-.07.12-.09.11-.14.09-.31.02-.45.25-.16.59.02.86-.09.68-.02,1.36-.16,2.02-.18.11-.02.23-.13.34-.02-.05.14-.23.16-.16.36.04.16.21.24.36.27.18-.07.34-.2.27-.43-.04-.13-.18-.14-.27-.2.37-.18.8-.23,1.18-.41.27-.05.52-.14.75-.25.23-.02.43-.23.64-.14-.09.31-.21.59-.37.86-.28.95-.5,2.21,0,3.13.05.02.07-.02.11-.04-.37-.95-.16-2.05.16-2.95.25-1.53,1.82-1.98,2.95-2.55l.05.07c-.3.79-.75,1.55-.68,2.5.04.16-.07.32,0,.43.3-.16.5-.52.66-.83.13-.81-.34-1.82.48-2.41,1.46-.58,2.84-1.33,4.53-1.35.05.05.18-.04.2.07-.36.4-.87.77-1.04,1.26-.57.79-.55,2.14-.3,3.11.16.56-.32.86-.55,1.29-.11.15-.14.41-.25.59l.35.04c.3-.32.59-.72.61-1.19.04.18.2.32.34.36.12-.2-.11-.34-.12-.54.29-.16.41.2.64.27.37.09.7.25,1.09.25l.13-.12c-.39-.61-1.18-.72-1.86-.76-.36-.59-.36-1.33-.32-2.05.07-.38.14-.77.36-1.12.09-.25.34-.48.5-.68.32-.31.73-.52,1.12-.61h.05s.02.05.02.05c-.48.38-.53.9-.82,1.37-.3.45-.45,1.06-.16,1.56.11.23.05.59.3.75.23-.32.25-.74.37-1.1-.05-.59-.41-1.15-.07-1.73.18-.45.55-.63.96-.79.98-.09,1.84.41,2.69.79.18.13.48.23.52.49-.02.49-.29.97-.66,1.2-.48.29-1.18.32-1.62-.02-.27-.27-.37-.74-.29-1.1.2-.22.46-.4.79-.29.18.09.34.27.57.16.09-.05.12-.2.07-.29-.2-.11-.27-.38-.54-.41-.34-.05-.75-.04-.98.2-.37.32-.52.81-.41,1.26.12.58.55.99,1.11,1.15.82.2,1.68-.05,2.2-.75.21-.23.27-.48.39-.77.86.52,1.5,1.44,1.84,2.37,0,.31.09.63.02.9l.62.05c-.05-.14,0-.3.05-.43.23-1.19.96-2.18,1.84-2.95.3-.18.23.23.3.36.27.68.89,1.17,1.55,1.37.75.13,1.46-.05,1.93-.63.23-.43.52-1.06.12-1.51-.25-.31-.59-.47-.98-.47-.46,0-.75.32-.98.67,0,.14-.02.3.11.38.07,0,.21.02.27-.09.04-.27.27-.4.48-.54.2-.11.41,0,.57.11.2.16.23.43.25.7-.04.34-.27.7-.59.84-.52.27-1.27.14-1.71-.16-.21-.23-.34-.5-.5-.79-.04-.29-.14-.54,0-.83.79-.47,1.61-.81,2.55-.9.37.07.7.32.95.59.82.85-.18,2.05.39,2.98.21-.04.21-.32.3-.5.27-.65-.07-1.35-.23-1.98-.21-.4-.34-.74-.68-1.06.09-.04.13-.04.21-.04.37.25.79.54,1.09.93.52.85.79,1.85.7,2.95-.14.54-.71.79-1.16.99-.18.14-.39.36-.48.58.21.13.52,0,.73-.09.34-.13.54-.56.77-.75.03.02.02.07.03.11.02.2-.09.47.09.52.09-.25.11-.61.16-.92.23.25.27.58.34.9.16.32.43.75.86.81.11-.16-.02-.32-.05-.47-.05-.45-.43-.68-.68-1.01-.62-.86-.34-2.21-.82-3.18-.18-.52-.55-.9-.96-1.33l.07-.07c.87-.02,1.61.27,2.41.43.98.49,2.41.38,2.87,1.65.2.72.52,1.38,1.02,1.94l.05-.04c.11-.18.11-.49,0-.66-.11-.9-.89-1.11-1.3-1.87l.05-.07c.43.12.87.23,1.3.41,1.43.4,2.43,1.8,2.61,3.25,0,1.15-.21,2.1-.66,3.07-.05.14-.3.31-.14.43.2-.14.23-.38.34-.54.59-.99.89-2.35.59-3.61-.02-.23-.29-.41-.16-.65.09.11.2.12.3.16.11-.07.27-.07.34-.2.02-.11.09-.23,0-.32-.11-.16-.34-.16-.52-.12-.09.11-.2.25-.21.39-.18-.31-.36-.7-.64-.95l.04-.05c.8.27,1.54.66,2.36.88.18.11.37.2.62.2.7.27,1.46.38,2.2.56.54-.05.98.2,1.52.07v-.04l-.02.02c-.2-.25-.62-.02-.86-.2-1.23-.13-2.41-.45-3.52-.88.02-.05.09-.04.14-.04.18-.09.3-.25.29-.45-.09-.12-.23-.2-.41-.2-.11.05-.25.18-.27.31.02.14.14.31.27.34-.04.04-.11.02-.16.02-.55-.25-1.09-.49-1.62-.74-.2-.04-.36-.2-.55-.23-.41-.2-.82-.4-1.23-.56-1.14-.59-2.41-.92-3.62-1.35-.27-.07-.52-.14-.77-.21-.45-.13-.89-.23-1.34-.36-1.52-.38-3.55-.41-4.87.41-.21-.07-.34.27-.45.05.37-.99,1.46-1.31,2.45-1.35,7.16-.07,13.87-.13,20.92-.23.82,0,1.62-.29,2.05-1.03.3-.43.36-1.17.12-1.65h0Zm-28.38,6.63c-.07.22-.21.4-.2.63l-.07.04c.05-.27-.21-.43-.14-.72-.14-.22-.14-.49-.27-.72-.16-.29.14-.41.27-.61.25.11.34.34.52.56.11.3-.12.54-.11.83h0Z"/>
  <path class="cls-2" d="m48.77,29.79c0,.05.11.07.07.16-.62.56-1.5.72-2.39.75-.07.02-.14.07-.23.05-.05-.04-.07-.09-.04-.13.64-.7,1.62-1.06,2.59-.84h0Z"/>
  <path class="cls-2" d="m45.9,30.08c.07.25-.09.4-.29.49-.2-.02-.3-.14-.39-.29-.05-.14.07-.22.13-.31.14-.14.48-.14.55.11h0Z"/>
  <path class="cls-2" d="m11.97,30.11c.04.12.02.29-.09.38-.07.09-.23.11-.32.09-.12-.02-.2-.16-.23-.27,0-.16.09-.25.23-.34.14,0,.3-.02.41.14h0Z"/>
  <path class="cls-2" d="m8.77,31.28v.13c-.43.09-.84-.02-1.16-.27-.25-.36-.54-.72-.95-.9,0-.05-.11-.12,0-.16.89,0,1.43.72,2.11,1.2h0Z"/>
  <path class="cls-2" d="m51.48,30.1c-.41.61-.77,1.37-1.5,1.64-.13,0-.23.18-.34.05.29-.68.89-1.42,1.59-1.71.07,0,.18-.02.25.02h0Z"/>
  <path class="cls-2" d="m13,30.31c.02.2-.12.23-.25.34-.14.02-.21-.09-.3-.2-.07-.18.09-.25.18-.34.14-.04.3.07.37.2h0Z"/>
  <path class="cls-2" d="m53.73,30.42c-.16.23-.09.58-.25.83-.36.41-.66.88-1.23.97-.09-.18.12-.36.21-.52.25-.54.61-1.15,1.18-1.38l.09.11h0Z"/>
  <path class="cls-2" d="m3.24,30.58c.05.13.11.25,0,.4-.11.09-.27.13-.41.07-.16-.09-.21-.29-.14-.43.11-.16.43-.25.55-.04h0Z"/>
  <path class="cls-2" d="m2.22,30.8c.02.09.07.16.05.25-.05.09-.14.2-.25.22-.2.04-.32-.07-.41-.23-.02-.16.04-.31.18-.38.16-.07.34.02.43.14h0Z"/>
  <path class="cls-2" d="m4.33,30.9c.04.14.07.4-.14.43-.25.11-.39-.07-.54-.22,0-.16.09-.29.21-.36.18-.02.34,0,.46.14h0Z"/>
  <path class="cls-2" d="m7.25,31.14c-.02.13.02.31-.13.34-.09.09-.25.05-.34.04-.04-.11-.23-.2-.12-.32.07-.09.14-.14.25-.2.11.05.27,0,.34.14h0Z"/>
  <path class="cls-2" d="m55.45,31.26c-.05.12-.12.29-.27.29-.16-.02-.32-.04-.41-.2-.07-.2.09-.31.23-.36.18,0,.41.07.45.27h0Z"/>
  <path class="cls-2" d="m52.18,31.35c.02.14-.14.25-.21.31-.25.11-.46-.07-.55-.27.04-.16.16-.27.3-.32.23-.02.36.11.46.29h0Z"/>
  <path class="cls-2" d="m54.39,31.32c0,.13-.07.25-.16.31-.14.05-.32.04-.43-.07-.16-.14-.04-.27.07-.38.16-.09.46-.07.52.14h0Z"/>
  <path class="cls-2" d="m2.77,31.62c.04.2-.04.38-.21.45-.16,0-.34-.09-.39-.25-.02-.16.03-.32.18-.38.18-.05.32.05.43.18h0Z"/>
  <path class="cls-2" d="m51.29,31.82c.05.2-.05.38-.25.47-.14.04-.23-.04-.34-.13-.07-.09-.16-.29-.02-.38.14-.27.5-.16.61.04h0Z"/>
  <path class="cls-2" d="m12.38,32.02c.07.2-.14.23-.2.34-.07.04-.21.05-.27-.02-.09-.11-.2-.21-.14-.38.09-.07.12-.14.23-.18.2-.05.27.13.37.23h0Z"/>
  <path class="cls-2" d="m55.12,32.15c.04.13-.07.18-.09.27-.11.09-.29.11-.41.07-.16-.09-.16-.23-.16-.4.11-.07.12-.16.25-.2.16,0,.36.07.41.25h0Z"/>
  <path class="cls-2" d="m54.02,32.2c.07.22-.12.32-.27.38-.07.02-.18-.04-.2.07.46.23.75.61,1.11.95v.14c-.64-.02-1.3-.18-1.77-.68-.12-.09-.34-.09-.48-.22.23-.23.66-.14.98-.16.23-.25-.27-.43.04-.65.11-.02.18-.13.32-.09.12.05.2.14.27.25h0Z"/>
  <path class="cls-2" d="m46.72,32.22c.04.09-.07.2-.09.29-.11.11-.27.12-.39.07-.09-.12-.23-.23-.18-.41.14-.27.61-.22.66.05h0Z"/>
  <path class="cls-2" d="m6.81,32.85c-.05.16-.13.27-.3.29-.14-.02-.27-.07-.32-.21-.02-.13.07-.2.09-.29.2-.16.55-.05.54.22h0Z"/>
  <path class="cls-2" d="m8.25,32.61c0,.25-.27.4-.36.65-.27.59-.75,1.13-1.43,1.19-.07-.16.23-.36.3-.52.29-.61.86-.94,1.37-1.31h.11Z"/>
  <path class="cls-2" d="m46.29,32.86c.02.2-.16.34-.3.41-.16.05-.29-.07-.37-.14-.14-.14-.05-.29.02-.43.21-.21.52-.04.66.16h0Z"/>
  <path class="cls-2" d="m47.4,32.99c-.02.2-.14.34-.32.4-.04-.05-.12-.02-.18-.04-.12-.07-.23-.18-.23-.32.09-.09.13-.23.25-.25.16-.02.43,0,.48.22h0Z"/>
  <path class="cls-2" d="m11.02,32.97c.02.2-.12.31-.27.38-.16.02-.27-.09-.34-.22-.04-.16.12-.27.21-.36.21-.07.27.09.39.2h0Z"/>
  <path class="cls-2" d="m12.25,33.04c-.05.16-.16.27-.34.31-.12-.04-.27-.07-.32-.22-.02-.18.12-.27.25-.36.18,0,.37.07.41.27h0Z"/>
  <path class="cls-2" d="m51.23,34.3c.09.07.25.16.21.29-.29.13-.52-.2-.78-.25-.43-.43-.75-.9-.93-1.44.16-.16.34.04.48.09.41.34.8.79,1.02,1.31h0Z"/>
  <path class="cls-2" d="m51.89,33.04c.05.13.04.27-.04.4-.11.18-.34.14-.5.11-.09-.11-.25-.25-.14-.41.05-.14.21-.18.34-.23.12-.02.21.09.34.14h0Z"/>
  <path class="cls-2" d="m13.89,33.51c.02.14.05.36-.12.45-.16.04-.37-.02-.43-.22-.09-.22.11-.25.21-.36.14-.04.23.04.34.13h0Z"/>
  <path class="cls-2" d="m47.34,34.68c.25.36.43.81.46,1.28-.05.13.09.25-.02.34h-.07c-.8-.58-.98-1.38-1.28-2.19-.07-.04-.09-.11-.07-.18.18-.16.3.16.48.21l.5.54h0Z"/>
  <path class="cls-2" d="m16.21,34.07s0,.04.02.04c-.71.5-1.71.81-2.53.32-.02-.05.02-.14.09-.16.52-.16,1.02-.41,1.57-.34l.86.14h0Z"/>
  <path class="cls-2" d="m12.14,34.16c-.61.38-1.16,1.12-1.91,1.29-.14.05-.23.25-.41.14.32-.97,1.37-1.49,2.32-1.58v.14h0Z"/>
  <path class="cls-2" d="m46.29,34.97c.05.15,0,.34-.14.38-.09.09-.27.09-.34,0-.16-.07-.16-.23-.16-.36.05-.12.18-.14.27-.2.16.04.29.04.37.18h0Z"/>
  <path class="cls-2" d="m44.81,35.06c-.11.25-.41.4-.64.47-.61.21-1.16-.07-1.7-.22.02-.14.2-.09.29-.18.59-.13,1.2-.25,1.82-.09.05-.04.18-.05.23.02h0Z"/>
  <path class="cls-2" d="m12.14,35.58c-.05.07-.07.23-.21.29-.12.05-.25,0-.36-.07-.04-.11-.16-.2-.07-.32.04-.13.18-.16.29-.2.18.02.32.13.36.31h0Z"/>
  <path class="cls-2" d="m13.2,35.74c-.05.11-.11.27-.25.34-.14.04-.25-.04-.36-.13-.05-.11-.11-.23-.05-.36.04-.09.16-.11.25-.16.18-.02.34.16.41.31h0Z"/>
  <path class="cls-2" d="m45.95,35.92c.02.14-.05.23-.12.34-.09.13-.27.14-.39.07-.12-.02-.16-.16-.21-.25-.11-.14.07-.23.13-.36.2-.16.52-.07.61.2h0Z"/>
  <path class="cls-2" d="m46.74,35.88c.02.09.07.18.04.25-.11.09-.18.32-.39.23-.11.04-.16-.11-.21-.14-.07-.18-.02-.45.21-.49.16-.05.27.09.36.14h0Z"/>
  <path class="cls-2" d="m12.55,36.41c.03.2-.04.38-.18.49-.2.04-.45.04-.52-.2-.02-.18,0-.41.21-.52.18-.02.39.02.48.23h0Z"/>
  <path class="cls-2" d="m13.57,36.33c-.04.5-.14,1.11-.64,1.4-.29.05-.57.32-.86.14v-.09c.37-.54,1.05-.95,1.5-1.46h0Z"/>
  <path class="cls-2" d="m43.15,36.75c.07.11-.05.2-.11.29-.11.13-.3.07-.43.02-.12-.05-.14-.23-.09-.36.04-.11.14-.16.23-.2.16-.02.3.13.39.25h0Z"/>
  <path class="cls-2" d="m15.36,37.57c.25.41.11.97.25,1.42-.3.04-.43-.31-.62-.49-.39-.54-.34-1.26-.52-1.89.04-.05.09-.05.13-.04.27.18.46.52.68.75-.04.13.11.13.09.24h0Z"/>
  <path class="cls-2" d="m44.04,36.89c0,.14-.16.18-.25.27-.12-.02-.23-.07-.34-.16-.05-.18.09-.23.18-.32.18-.07.36.02.41.22h0Z"/>
  <path class="cls-2" d="m46.17,38.49c0,.05-.02.16-.11.13h-.07c-.52-.47-1.04-.99-.96-1.71l.11-.02c.48.41,1.02.86,1.04,1.6h0Z"/>
  <path class="cls-2" d="m44.83,37.92c.02.14-.07.25-.16.34-.2.05-.5.04-.54-.23-.02-.18.18-.27.27-.36.21-.05.36.09.43.25h0Z"/>
  <path class="cls-2" d="m43.65,38.29c-.25.66-.93,1.01-1.39,1.51-.09-.05-.05-.2-.04-.27.18-.68.71-1.35,1.37-1.62.29.04,0,.23.05.38h0Z"/>
  <path class="cls-2" d="m44.99,38.83c0,.16-.16.23-.25.32-.14-.02-.29-.05-.39-.2-.02-.18.12-.23.23-.32.18-.04.34.05.41.2h0Z"/>
  <path class="cls-2" d="m31.7,6.19c.24,0,.44.2.44.44s-.2.44-.44.44h-5.29c-.24,0-.44-.2-.44-.44s.2-.44.44-.44h5.29Zm-3.74.77c.52,0,.03-.63-.25-.63h-.52c-.52,0-.03.63.25.63h.52Zm2.17,0c.52,0,.03-.63-.25-.63h-.52c-.52,0-.03.63.25.63h.52Zm1.6-.63h-.2c-.52,0-.08.63.2.63.35,0,.37-.63,0-.63h0Z"/>
  <path class="cls-2" d="m31.24,12.27l1.01.39.99-.39-.39,1.49.79-.16-.27.9.27.87-.7-.19.3,1.6-.99-.39-1.01.39.41-1.6-.81.23.22-.9-.22-.87.77.13-.38-1.49h0Zm1.49,2.69c.23,0,.25-.31.25-.58,0-.61-.49,0-.73-.58-.18.49-.68.04-.68.56,0,.36,0,.6.36.6h.81Zm-.99-.55c0,.23.31.08.55.08s.55.16.55-.08c0-.33-.31-.22-.55-.22s-.55-.12-.55.22h0Z"/>
  <polygon class="cls-2" points="28.87 14.46 28.87 14.27 28.7 14.24 28.84 14.1 28.76 13.95 28.93 13.96 29.03 13.78 29.14 13.96 29.31 13.95 29.23 14.1 29.36 14.24 29.19 14.27 29.19 14.46 29.03 14.34 28.87 14.46 28.87 14.46"/>
  <polygon class="cls-2" points="28.09 15.47 28.09 15.28 27.92 15.25 28.05 15.11 27.97 14.96 28.14 14.98 28.25 14.79 28.35 14.97 28.53 14.96 28.44 15.11 28.58 15.25 28.41 15.28 28.41 15.47 28.25 15.35 28.09 15.47 28.09 15.47"/>
  <polygon class="cls-2" points="29.42 15.34 29.42 15.15 29.25 15.12 29.38 14.98 29.3 14.83 29.48 14.85 29.58 14.66 29.68 14.84 29.86 14.83 29.78 14.98 29.91 15.12 29.74 15.15 29.74 15.34 29.58 15.22 29.42 15.34 29.42 15.34"/>
  <polygon class="cls-2" points="29.58 16.09 29.58 15.99 29.48 15.97 29.56 15.89 29.51 15.81 29.61 15.82 29.67 15.71 29.73 15.81 29.83 15.81 29.78 15.89 29.85 15.97 29.76 15.99 29.76 16.09 29.67 16.03 29.58 16.09 29.58 16.09"/>
  <polygon class="cls-2" points="28.34 16.96 28.34 16.63 28.05 16.58 28.28 16.34 28.14 16.08 28.43 16.11 28.61 15.8 28.79 16.11 29.09 16.08 28.95 16.34 29.18 16.58 28.89 16.63 28.89 16.96 28.61 16.75 28.34 16.96 28.34 16.96"/>
  <polygon class="cls-2" points="28.97 0 29.6 1.55 31.19 1.08 30.38 2.54 31.74 3.5 30.1 3.77 30.2 5.44 28.97 4.32 27.74 5.44 27.84 3.77 26.2 3.5 27.56 2.54 26.75 1.08 28.34 1.55 28.97 0 28.97 0"/>
  <path class="cls-2" d="m23.21,34.67c-.19.07-.26.12-.22.32l.22.95c.04.18.05.45-.06.62-.14.2-.43.33-.65.38-.16.04-.49.1-.76-.02-.18-.08-.29-.16-.37-.48l-.23-.99c-.06-.25-.15-.23-.35-.2l-.02-.07,1.2-.29.02.07c-.23.06-.34.09-.28.36l.23.99c.04.17.14.58.65.46.62-.15.52-.61.48-.8l-.21-.91c-.04-.18-.11-.27-.42-.21l-.02-.08.78-.19.02.07h0Z"/>
  <path class="cls-2" d="m24.99,34.87c-.11-.19-.4-.49-.82-.4-.19.04-.36.17-.32.37.04.16.12.21.44.27l.57.1c.13.02.44.14.51.46.06.26-.09.67-.74.82-.34.08-.52.01-.63.03-.08.02-.08.08-.08.13l-.1.02-.16-.74.1-.02c.14.29.42.58.87.47.43-.09.38-.39.37-.43-.04-.2-.23-.23-.48-.27l-.26-.04c-.66-.11-.72-.37-.75-.5-.04-.18-.02-.61.66-.76.28-.06.47,0,.58-.02.08-.02.09-.07.1-.13l.11-.02.14.65-.1.02h0Z"/>
  <path class="cls-2" d="m27.34,36.05l-1.29.12v-.08c.26-.04.34-.06.32-.31l-.15-1.6c-.25.04-.62.09-.65.58h-.11s-.05-.6-.05-.6l2.18-.21.06.61h-.1c-.12-.47-.49-.45-.74-.44l.15,1.6c.03.26.11.26.38.25v.08h0Z"/>
  <path class="cls-2" d="m30.37,36.05l-.75-.02-.73-.97h-.1s-.01.6-.01.6c0,.24.07.25.32.29v.08s-1.23-.02-1.23-.02v-.08c.25-.02.32-.03.33-.28l.03-1.35c0-.26-.11-.27-.31-.29v-.08s1.17.02,1.17.02c.25,0,1.02.04,1.02.56,0,.38-.38.46-.58.51l.71.88c.05.06.1.06.15.06v.08h0Zm-1.58-1.09c.48,0,.67-.06.67-.45,0-.31-.14-.44-.43-.45-.2,0-.21.03-.23.12l-.02.78h0Z"/>
  <path class="cls-2" d="m32.76,36.35l-1.17-.15v-.08c.24.01.3.02.31-.08.01-.08-.08-.32-.12-.42l-.81-.1c-.13.21-.2.32-.21.37-.01.12.16.15.28.17v.08s-.74-.09-.74-.09v-.08c.21,0,.27-.1.41-.31l1.01-1.56h.1s.61,1.71.61,1.71c.12.35.17.46.34.47v.08h0Zm-1.01-.85l-.27-.78-.43.69.7.09h0Z"/>
  <path class="cls-2" d="m34.88,36.78l-2.07-.38v-.08c.22.02.33.03.36-.16l.26-1.45c.04-.2-.11-.23-.27-.27v-.08s1.26.23,1.26.23v.08c-.27-.04-.38-.05-.43.21l-.26,1.42c-.03.15.05.18.29.23.54.1.79-.11,1.01-.42l.1.02-.27.66h0Z"/>
  <path class="cls-2" d="m36.25,37.09l-1.25-.26.02-.08c.19.03.34.04.37-.14l.3-1.45c.04-.2-.13-.24-.29-.28l.02-.07,1.25.26-.02.07c-.17-.03-.34-.06-.38.14l-.3,1.45c-.04.19.1.23.29.28l-.02.08h0Z"/>
  <path class="cls-2" d="m38.78,37.42l-1.17-.12v-.08c.23,0,.3.01.31-.09,0-.08-.08-.32-.13-.42l-.81-.08c-.12.21-.19.33-.2.37-.01.12.16.14.28.16v.08s-.74-.08-.74-.08v-.08c.21,0,.27-.1.4-.32l.97-1.58h.1s.64,1.69.64,1.69c.13.34.18.45.35.46v.08h0Zm-1.03-.83l-.29-.78-.42.7.71.07h0Z"/>
  <path class="cls-2" d="m29.47,12.76c0-.73-.41-.05-.64-.67-.17.53-.66.08-.66.65,0,.22.06.34.16.41v.22c0,.06.05.1.1.1h.78c.06,0,.1-.05.1-.1v-.23c.09-.08.16-.21.16-.37h0Zm-.64.14c-.21,0-.5.15-.5-.11,0-.36.24-.28.46-.28s.55-.08.55.28c0,.25-.29.11-.5.11h0Z"/>
  <path class="cls-2" d="m35.86,21.77c.19,0,.34-.13.34-.3s-.15-.3-.34-.3-.34.13-.34.3.15.3.34.3h0Z"/>
  <path class="cls-2" d="m34.28,10.9s-.16.27-.16.32c0,.1.07.18.16.18s.16-.08.16-.18c0,0-.16-.32-.16-.32h0Z"/>
  <path class="cls-2" d="m23.5,10.9s-.16.27-.16.32c0,.1.07.18.16.18s.16-.08.16-.18c0,0-.16-.32-.16-.32h0Z"/>
  <path class="cls-2" d="m26.19,10.9s-.16.27-.16.32c0,.1.07.18.16.18s.16-.08.16-.18c0,0-.16-.32-.16-.32h0Z"/>
  <path class="cls-2" d="m28.89,10.9s-.16.27-.16.32c0,.1.07.18.16.18s.16-.08.16-.18c0,0-.16-.32-.16-.32h0Z"/>
  <path class="cls-2" d="m31.58,10.9s-.16.27-.16.32c0,.1.07.18.16.18s.16-.08.16-.18c0,0-.16-.32-.16-.32h0Z"/>
  <path class="cls-2" d="m23.5,14.6s.16.27.16.32c0,.1-.07.18-.16.18s-.16-.08-.16-.18c0,0,.16-.32.16-.32h0Z"/>
  <path class="cls-2" d="m23.5,18.19s.16.27.16.32c0,.1-.07.18-.16.18s-.16-.08-.16-.18c0,0,.16-.32.16-.32h0Z"/>
  <path class="cls-2" d="m23.93,21.04s.16.27.16.32c0,.1-.07.18-.16.18s-.16-.08-.16-.18c0,0,.16-.32.16-.32h0Z"/>
  <path class="cls-2" d="m26.19,22.55s.16.27.16.32c0,.1-.07.18-.16.18s-.16-.08-.16-.18c0,0,.16-.32.16-.32h0Z"/>
  <path class="cls-2" d="m34.41,14.6s-.16.27-.16.32c0,.1.07.18.16.18s.16-.08.16-.18c0,0-.16-.32-.16-.32h0Z"/>
  <path class="cls-2" d="m34.41,18.19s-.16.27-.16.32c0,.1.07.18.16.18s.16-.08.16-.18c0,0-.16-.32-.16-.32h0Z"/>
  <path class="cls-2" d="m33.98,21.04s-.16.27-.16.32c0,.1.07.18.16.18s.16-.08.16-.18c0,0-.16-.32-.16-.32h0Z"/>
  <path class="cls-2" d="m31.72,22.55s-.16.27-.16.32c0,.1.07.18.16.18s.16-.08.16-.18c0,0-.16-.32-.16-.32h0Z"/>
  <path class="cls-2" d="m28.97,24.16s-.16.26-.16.32c0,.1.07.18.16.18s.16-.08.16-.18c0,0-.16-.32-.16-.32h0Z"/>
  <path class="cls-2" d="m33.36,18.79c.03.05.12.07.23.03l.1-.29s-.12-.14-.19-.12c-.29.07-.59.1-.76.38,0,.19.14.36.27.44.1-.03.12.07.19.12.02.09-.03.15-.12.15-.2-.21-.56.07-.71-.19.07-.26.2-.55-.02-.79.02-.05.1-.1.05-.15-.08-.24-.34-.05-.49-.05-.25-.03-.46.1-.61.31.02.09.05.17.14.26.07-.02.1,0,.12.07l-.17.1c.05.05.05.12.07.19-.12.05-.24-.12-.29-.21,0-.14.02-.38-.17-.41-.03,0-.15.05-.15.05-.04.05-.07.16-.07.28s.07.31.07.31c0,0,.52.39.64.63-.15.31-.15.73-.51.9-.1.07-.1.17-.1.27l.08.07c.22-.12.64-.15.61-.53.08-.15.17-.32.32-.44.17-.03.32.05.39.19-.05.26-.22.43-.46.51-.03.03-.02.09-.02.14.07.12.25.07.36.05.29-.19.41-.53.66-.63.03.17-.34.22-.1.39.15-.03.36.02.46-.19-.12-.29.41-.43.08-.68,0-.26.27-.36.25-.63-.1-.27-.42-.27-.51-.53.1-.07.25-.05.36,0h0Z"/>
  <path class="cls-2" d="m20.97,21.9c.19,0,.34-.13.34-.3s-.15-.3-.34-.3-.34.13-.34.3.15.3.34.3h0Z"/>
  <path class="cls-2" d="m3.49,32.11c.18,0,.33-.14.33-.32s-.15-.32-.33-.32-.33.14-.33.32.15.32.33.32h0Z"/>
  <path class="cls-2" d="m14.61,34.59h-.02l-.02-.03h0v.02s0,0,0,0h0s-.04,0-.04,0h0s0,0,0-.01v-.04s0,0,0,0h0s.03,0,.03,0c0,0,.03,0,.03.02,0,.01-.01.01-.02.01l.02.03s0,0,0,0h0Zm-.05-.03s.02,0,.02-.01c0,0,0-.01-.01-.01t0,0v.02h0Z"/>
  <path class="cls-2" d="m14.66,34.55s0-.02-.02-.02c0,0-.01,0-.01,0,0,0,0,0,.01.01h.02s.01.01.01.02,0,.02-.03.02c0,0-.01,0-.02,0,0,0,0,0,0,0h0v-.02h0s0,.02.02.02c.01,0,.01,0,.01,0,0,0,0,0-.01,0h0s-.02-.02-.02-.02c0,0,0-.02.02-.02,0,0,.01,0,.02,0,0,0,0,0,0,0h0v.02h0Z"/>
  <path class="cls-2" d="m14.77,34.53s0,0,0,0l-.02.05h0l-.02-.04h0l-.02.04h0l-.02-.05s0,0,0,0h0s.03,0,.03,0h0s0,0,0,0c0,0,0,0,0,0v.03h.01v-.03s0,0,0,0c0,0,0,0,0,0h0s.03,0,.03,0h0s0,0,0,0c0,0,0,0,0,0v.03h.01v-.03s.01,0,.01,0c0,0,0,0,0,0h0s.02,0,.02,0h0Z"/>
  <path class="cls-2" d="m14.78,34.59s.02,0,.03-.02c0,0,0,0,0,0h0s-.02,0-.02-.02c0,0,0-.02.02-.02,0,0,.02,0,.02.03,0,.02-.02.03-.05.04h0Zm.02-.02s0,0,0,0c0,0,0,0,0,0,0-.02,0-.02,0-.02,0,0,0,0,0,.01,0,.01,0,.02,0,.02h0Z"/>
  <path class="cls-2" d="m14.84,34.55s.02,0,.02,0c0,0,.01,0,.01.02,0,.01-.01.02-.03.02,0,0-.01,0-.01,0,0,0,0,0,0,0,0,0,.01,0,.02,0,0,0,.01,0,.01,0,0,0,0,0-.01-.01,0,0-.02,0-.02,0v-.03h.04,0s-.03.01-.03.01h0Z"/>
  <path class="cls-2" d="m35.17,10.47h0s-12.44,0-12.44,0h0s0,0,0,0v9.51c0,.97.42,1.82.99,2.08l4.78,3.04c.11.12.26.2.44.2.15,0,.29-.06.39-.15l4.86-3.08c.57-.26.98-1.11.98-2.08v-9.51s0,0,0,0h0Zm-.35,9.63c-.06.72-.31,1.32-.81,1.66l-4.69,2.98h-.03c-.1.08-.22.13-.36.13s-.27-.05-.37-.13l-4.68-2.98c-.5-.34-.74-.94-.81-1.66v-9.3h11.74v9.3h0Z"/>
  <path class="cls-2" d="m30.63,24.32l.15-.07c-.06.02-.11.05-.15.07h0Z"/>
  <path class="cls-2" d="m21.24,37.32l-1.17.14v-.08c.21-.04.28-.05.27-.15,0-.08-.15-.29-.21-.38l-.81.09c-.08.23-.12.36-.11.41.01.12.19.1.31.1v.08s-.73.08-.73.08v-.08c.18-.05.22-.16.31-.4l.61-1.76h.1s.99,1.49.99,1.49c.2.31.27.4.44.38v.08h0Zm-1.18-.59l-.45-.7-.26.78.71-.08h0Z"/>
  <path class="cls-2" d="m41.84,32.86c-.21-.56-.66-.93-1.21-1.11-.57-.13-1.18-.04-1.55.4-.64.52-.2,1.38-.18,2.08,0,.14.02.25-.13.32-2.59-.23-5-.88-7.57-1.15-.59-.1-1.18-.07-1.74-.19l-.72-.08c-2.23.07-4.46.2-6.55.74-.45.14-.95.18-1.39.34-.32-.05-.59.18-.89.09l-.59.14c-.06,0-.12,0-.2-.01-.29-.74.57-1.19.3-1.91-.23-.41-.7-.81-1.23-.74-.61-.07-1.14.27-1.43.74-.41.9.11,1.83.27,2.71-.04.29.29.61,0,.84-.57-.4-1.32-.61-2.02-.41-.21.11-.61-.04-.71.22.77.41,1.75.36,2.61.32.11-.04.18-.05.27.02.07.47-.09,1.1.2,1.51.32.43.86.54,1.37.59,1.64-.05,3.11-.54,4.61-.92.23-.02.41-.14.66-.14.8-.18,1.68-.32,2.53-.34-.38.49-.59,1.03-.75,1.62-.21.49.37.56.55.83-.55.16-.95.54-1.46.75-1.14-.04-2.11.4-3.18.52-.02.23.37.16.41.4-.05.16-.21.18-.34.27-.02.11,0,.13.11.14.11-.13.34-.04.45-.16.36,0,.66-.11,1-.12.3-.13.64-.14.91-.36.37-.11.61-.36.98-.47.54,0,1.02-.18,1.52-.22v.11c-.41.66-.84,1.35-1.27,1.98-.07.13.02.25.12.29.25.07.5,0,.7-.11.37-.65.71-1.26,1.02-1.92.13-.61.57-.93,1.02-1.35.07-.04.18-.14.25-.04-.36.41-.59.81-.86,1.26-.14.5-.18,1.15.27,1.56.21.18.54.13.82.14.7-.36,1.59.22,2.12-.47.32-.05.37.32.55.5.3.09.62.4.93.18-.02-.2-.23-.38-.34-.56-.21-.38-.48-.68-.68-1.02-.09-.25-.25-.41-.29-.66.32.11.61.32.96.38.3.12.68.11.96.29.23.31.59.49.89.68.45.22.95.25,1.41.43.18.02.45.16.57,0-.07-.09-.16-.14-.27-.2-.05-.23.32-.11.45-.29-.04-.09-.12-.12-.21-.14-.26-.14-.89-.18-1.06-.28-.21-.04-.41-.13-.62-.2-1.07,0-1.66-.97-2.52-1.33.2-.18.5-.32.62-.59.16-.25.21-.67.05-.95-.16-.56-.88-.49-1.29-.79l.05-.05c.7-.04,1.3.13,1.93.25,1.71.23,3.3.88,5.09.92.98,0,2.21.05,2.7-.9.09-.56.2-1.12.29-1.67.21-.9.8-1.73.71-2.71h0Zm-19.28,8.2l-.25-.23c.12-.16.39-.07.59-.18.46-.14,1-.32,1.52-.21-.54.43-1.23.48-1.86.63h0Zm11.14-.29c.43.19,1.28.38,1.9.45-.06.25-.49.02-.44.36-.55-.22-1.2-.32-1.61-.76.04-.02.07-.07.14-.05h0Zm-16.75-7.64c.05-.32.12-.66.43-.9.43-.23,1.02-.18,1.41.05.12.07.21.18.29.34.09.31-.05.63-.27.81h-.18c0-.29,0-.58.11-.81-.02-.21-.2-.23-.34-.32-.3-.09-.57.05-.8.18-.18.21-.34.48-.23.79.12.2.02.47.09.68l-.05.07c-.21-.23-.5-.49-.45-.9h0Zm.84.51c.27.2.64.11.96.16.05.2.05.45-.09.61-.3-.07-.7-.04-.86-.32.04-.13-.05-.31-.02-.45h0Zm-.05-.6c.05-.14,0-.36.2-.4.12-.04.32-.04.34.11-.02.21-.04.43-.09.63-.25.02-.38-.12-.45-.34h0Zm8.37,5.77c-.09-.63.16-1.17.57-1.62.25-.05.54-.11.77.04-.46.12-1.05.23-1.16.83.02.23-.05.36.05.56.2.34.64.2.89.47,0,.09-.07.2-.16.21-.3-.18-.68-.25-.96-.48h0Zm-.64,1.24c.43-.18.87-.56,1.36-.4-.34.27-.89.38-1.36.4h0Zm1.7.18c-.25.58-.54,1.13-.87,1.69-.04.09-.18.11-.29.12,0-.25.25-.45.36-.67.37-.49.48-1.01.91-1.47.11.11-.11.18-.11.32h0Zm.45-1.04v.07h-.04v-.09h.07s-.05,0-.07.02h.04Zm-.16-.49c-.3-.04-.59-.13-.86-.22-.18-.18,0-.38,0-.58.25-.4.96-.59,1.3-.23-.05.4-.2.74-.45,1.02h0Zm.39,0c.05-.23.16-.54.29-.75-.02.23-.12.56-.29.75h0Zm.2-1.46c-.23-.05-.36-.33-.61-.33.21-.07.43-.05.68-.02.09.13-.05.23-.07.34h0Zm.21.54h-.02v-.2h.02v.2h0Zm.02.83c-.02-.07.04-.16.05-.25.09-.09.18.07.21.12-.05.09-.16.14-.27.13h0Zm.27-1.11c.09-.25.11-.47.27-.67.18,0,.34,0,.48.07.04.36.48.84,0,1.15-.16.07-.39.23-.57.07-.23-.2-.27-.38-.18-.63h0Zm1.3-.5c-.04-.16.16-.04.23-.11l.55.04c-.29-.04-.64.63-.79.07h0Zm.89.23c-.21.07-.38.32-.59.38.11-.2.37-.4.59-.38h0Zm-.75,1.11v.05h-.02v-.05h.02Zm.04,1.1s.02.09-.04.13l-.41-.32c.2-.04.34.05.45.2h0Zm-.48-.56s.12-.04.16,0h-.16Zm-.25-.27c.07-.11.16-.27.29-.27,0,.02.02.04.04.05-.11.09-.2.18-.32.21h0Zm-.41-.04h-.07l.11-.11c.05.04-.02.07-.04.11h0Zm.05.68c.23-.25.45.14.54.34.27.4.96.75.7,1.29-.34.31-.87.02-1.25.25-.2-.02-.54.04-.64-.16.2-.57.37-1.22.66-1.73h0Zm-.5.34l.09-.14c-.14.43-.36.88-.59,1.29-.11-.43.34-.77.5-1.15h0Zm.79,2.14c-.34.02-.86.22-1.18-.07.02-.14-.14-.21-.12-.36.29-.11.53.23.8-.02.41.02.84-.05,1.25.04.2.05.5-.32.54.05-.14.59-.86.18-1.28.36h0Zm1.04-2.59v-.05h.04v.05h-.04Zm.11,1.13c.02.18.2.25.09.41-.04-.07-.14-.23-.09-.41h0Zm.5,1.08l-.09.04c-.09-.07-.05-.27-.04-.38.11.09.2.22.12.34h0Zm.89.43c-.02.05-.11.05-.14.02-.54-.68-.79-1.4-1.12-2.16l.07-.02c.43.7.77,1.47,1.2,2.16h0Zm.66-1.65s-.04.05-.04.07c-.52.02-.86-.29-1.25-.56l-.02-.09c.48.04.88.34,1.3.58h0Zm-.46-2.39c.21.05.23.29.25.47-.02.4-.23.74-.61.88-.2.11-.5.14-.7.07.43-.02.89-.18,1.07-.61l-.02-.81h0Zm-.39-.07c.09.25.25.49.16.79-.18.34-.54.34-.86.41-.16.02-.29-.04-.41-.13.02-.07-.02-.13-.07-.18.05-.23-.41-.47-.09-.66.29-.27.96-.88,1.27-.23h0Zm9.07-1.31c-.14.18-.02.47-.2.63,0,.32-.27.49-.5.61-2.12.47-4.21-.25-6.26-.61-2.87-.63-6.23-.81-9.16-.14-1.37.25-2.71.58-4.03.95-.82.11-1.71.23-2.5-.02-.64-.31-.37-1.13-.57-1.71.04-.45-.12-.81-.14-1.24-.05-.14-.09-.32-.07-.47.27.04.54.23.82.31,1.5.29,2.84-.2,4.23-.45,1.34-.29,2.71-.52,4.12-.63,1.61-.02,3.25-.11,4.78.16.5.02.93.14,1.41.18,1,.13,1.93.4,2.95.47.16.05.36.05.54.09,1.61.25,3.41.7,4.94,0,0,.65-.27,1.24-.36,1.87h0Zm-.5-2.19c.02.29-.25.22-.39.32h-.43c-.09-.14-.05-.36-.05-.5.29.05.61.05.87.18h0Zm-.2-.45c.2-.2-.05-1.33.5-.59,0,.14.02.36-.12.47-.09.07-.23.22-.37.13h0Zm1.45-.18c-.16.32-.41.56-.77.61.02-.43.41-.74.27-1.22-.23-.34-.7-.45-1.12-.36-.16.11-.09.29-.14.45l-.07.59c-.36,0-.37-.32-.48-.58.02-.38.18-.75.55-.93.29-.14.75-.13,1.04.04.23.05.5.16.59.38.27.25.2.7.14,1.02h0Z"/>
</svg>