<svg width="137" height="137" viewBox="0 0 137 137" fill="none" xmlns="http://www.w3.org/2000/svg">
<g clip-path="url(#clip0_135_407)">
<path d="M0 136.063H136.063V0H0V136.063Z" fill="black"/>
<path d="M68.8032 35.2906C71.8965 35.2906 73.5538 33.9226 74.5618 32.3613L74.5058 32.5986C74.2138 34.0626 75.4325 34.96 76.5792 34.96H77.5738L80.3392 19.232H76.9152L76.4592 21.6307C75.8405 20.392 74.0965 18.9053 71.2765 18.9053C66.2978 18.9053 63.3472 23.0066 62.8525 27.376C62.2872 32.3706 65.5125 35.2906 68.8032 35.2906ZM71.7698 21.4693C77.5072 21.788 75.6392 32.752 69.8072 32.428C64.5325 32.1346 66.1725 21.1573 71.7698 21.4693ZM24.5698 18.1693C24.5698 14.612 22.2845 12.956 18.2725 12.956C15.8058 12.956 11.9218 12.9493 10.5058 12.9493L6.58984 34.96C7.07384 34.96 11.3085 34.9586 13.7005 34.9573C15.3245 34.9573 16.8725 34.904 17.7445 34.7213C21.7338 33.8786 23.3525 30.9773 23.6738 28.8493C24.1192 25.9026 22.2592 23.9547 20.1458 23.4827C21.7325 23.14 24.5698 21.504 24.5698 18.1693ZM16.2272 32.2573C15.7805 32.3653 15.0685 32.4253 13.5792 32.4253H10.9912L12.2992 25.0453H16.1365C21.2005 25.0453 20.7392 31.1373 16.2272 32.2573ZM17.7325 22.2227C17.2445 22.384 16.5952 22.4293 15.4138 22.4293H12.7645L14.0072 15.3867H17.4738C21.6325 15.3867 21.3072 21.0467 17.7325 22.2227ZM39.6832 19.2467H38.6605C38.6605 19.2467 37.1525 27.8893 36.9832 28.8733C36.6178 30.9907 35.5978 32.44 32.7298 32.44C31.1018 32.44 29.5112 31.4546 29.8832 29.248C30.0298 28.3946 31.1098 22.1146 31.2018 21.608C31.5032 19.9093 30.0565 19.2467 28.8632 19.2467H27.9592C27.7378 20.56 26.7445 26.0853 26.3672 28.2506C26.2125 29.1213 26.1565 30.0053 26.2232 30.5786C26.5618 33.512 29.1392 35.3026 32.3272 35.3026C37.8298 35.3026 39.8992 32.428 40.5578 29.0107C40.7738 27.8853 41.8165 22.1826 41.8978 21.608C42.1365 19.9093 40.7365 19.2467 39.6832 19.2467ZM45.3458 41.1666L46.9418 32.4906C47.5618 33.7293 49.3312 35.3026 52.1525 35.3026C57.2298 35.3026 60.3725 31.34 60.6872 26.6987C61.0232 21.7653 58.1245 18.9253 54.7632 18.9253C51.8485 18.9253 49.8605 20.344 48.8485 21.82L48.8912 21.608C49.2125 20.0906 47.9178 19.2467 46.8192 19.2467H45.7312C45.7312 19.2467 42.7712 36.176 42.3658 38.2133C41.8858 40.6093 43.8312 41.1666 44.4458 41.1666H45.3458ZM53.6232 21.7453C58.8965 22.04 57.2565 33.048 51.6578 32.7373C45.9232 32.42 47.7858 21.424 53.6232 21.7453ZM127.388 41.58C125.919 41.58 123.919 41.496 122.726 41.0893C121.318 40.6066 120.075 39.6493 118.759 38.6373C118.099 38.132 117.418 37.604 116.68 37.116C115.783 36.52 115.036 36.2413 114.324 36.2413C113.364 36.2413 112.431 36.7626 111.295 37.9333C109.76 39.5133 107.314 43.1 106.336 44.568C106.272 44.6586 106.19 44.76 106.066 44.76C105.826 44.76 105.821 44.4466 105.821 44.344C105.772 40.2386 105.128 17.836 104.679 11.1467C104.48 8.18799 103.562 6.35065 102.28 6.35065C101.251 6.35065 99.7085 7.71999 98.7432 11.58C96.2858 21.404 91.0445 43.2466 88.7912 54.3413C88.7245 54.6466 88.3805 54.644 88.3178 54.3413C88.0658 53.2066 87.8445 51.92 87.6325 50.836C86.9592 47.4146 86.3765 44.4586 85.2285 42.8333C83.9165 40.9853 81.9805 40.8693 79.6325 42.4253C79.1138 42.7693 78.6152 43.1986 78.0885 43.6546C76.5805 44.9506 74.8778 46.424 72.0472 46.424H44.3818L43.7032 50.0906H72.8138C75.7898 50.0906 78.5498 48.3773 80.1992 47.1946C81.0352 46.5946 81.6138 46.2466 82.0778 46.2466C82.7165 46.2466 83.0032 46.896 83.2405 47.872C83.3578 48.3506 83.5005 49.012 83.6618 49.776C84.2138 52.3093 85.0418 56.3026 86.0925 58.9573C86.5845 60.1933 87.3098 60.876 88.1405 60.876C89.4125 60.876 90.7112 59.372 91.4432 57.044C92.4245 53.9413 98.3112 28.4387 100.794 17.7573C100.896 17.32 100.951 17.072 100.956 17.0533C101 16.8653 101.126 16.74 101.274 16.74C101.403 16.74 101.548 16.8507 101.554 17.092L101.556 17.1333C101.746 27.9413 102.283 46.9213 103.087 48.8706C103.531 49.948 104.212 50.5186 105.059 50.5186C106.039 50.5186 107.216 49.7293 108.054 48.508C108.475 47.8946 109.012 47.092 109.582 46.2466C110.987 44.1573 112.58 41.7933 113.05 41.288C113.751 40.544 114.556 40.5426 115.702 41.324C115.868 41.436 116.067 41.58 116.299 41.748C117.52 42.6333 119.563 43.852 121.858 44.484C123.379 44.9013 125.338 44.9893 126.71 44.9893C127.596 44.9893 128.539 44.9533 128.814 44.936L129.444 41.5373C129.112 41.5533 128.218 41.58 127.388 41.58Z" fill="white"/>
</g>
<defs>
<clipPath id="clip0_135_407">
<rect width="136.063" height="136.063" fill="white"/>
</clipPath>
</defs>
</svg>
