<svg width="220" height="120" viewBox="0 0 220 120" fill="none" xmlns="http://www.w3.org/2000/svg">
<g clip-path="url(#clip0_135_416)">
<path d="M9.93627 104.593V119.67H5.7725V104.593H0V100.765H15.6851V104.593H9.93627ZM21.2683 119.67V100.765H35.5576V104.475H25.4085V108.303H34.3274V112.013H25.4085V115.984H35.6996V119.694H21.2683V119.67ZM50.8169 120.001C45.2337 120.001 41.0936 115.7 41.0936 110.265V110.217C41.0936 104.829 45.1627 100.434 50.9589 100.434C54.5312 100.434 56.6604 101.616 58.4347 103.364L55.785 106.413C54.3183 105.089 52.8278 104.286 50.9352 104.286C47.7414 104.286 45.4466 106.933 45.4466 110.17V110.217C45.4466 113.455 47.6941 116.173 50.9352 116.173C53.0881 116.173 54.4366 115.298 55.9033 113.951L58.553 116.622C56.6367 118.701 54.4602 120.001 50.8169 120.001ZM76.2254 119.67V112.084H68.5366V119.67H64.3728V100.765H68.5366V108.256H76.2254V100.765H80.3891V119.67H76.2254ZM101.066 119.67L91.8868 107.642V119.67H87.7704V100.765H91.6029L100.475 112.415V100.765H104.591V119.67H101.066ZM120.702 120.001C114.859 120.001 110.671 115.653 110.671 110.265V110.217C110.671 104.829 114.929 100.434 120.773 100.434C126.616 100.434 130.804 104.782 130.804 110.17V110.217C130.78 115.605 126.545 120.001 120.702 120.001ZM126.427 110.217C126.427 106.98 124.038 104.262 120.702 104.262C117.343 104.262 115.024 106.909 115.024 110.147V110.194C115.024 113.431 117.414 116.149 120.749 116.149C124.085 116.149 126.427 113.502 126.427 110.265V110.217ZM136.766 119.67V100.765H140.929V115.889H150.369V119.67H136.766ZM164.422 120.001C158.578 120.001 154.391 115.653 154.391 110.265V110.217C154.391 104.829 158.649 100.434 164.493 100.434C170.336 100.434 174.523 104.782 174.523 110.17V110.217C174.5 115.605 170.265 120.001 164.422 120.001ZM170.147 110.217C170.147 106.98 167.757 104.262 164.422 104.262C161.062 104.262 158.744 106.909 158.744 110.147V110.194C158.744 113.431 161.133 116.149 164.469 116.149C167.805 116.149 170.147 113.502 170.147 110.265V110.217ZM189.499 120.001C183.608 120.001 179.539 115.865 179.539 110.265V110.217C179.539 104.829 183.726 100.434 189.475 100.434C192.882 100.434 194.94 101.356 196.904 103.033L194.278 106.2C192.811 104.995 191.51 104.286 189.333 104.286C186.305 104.286 183.892 106.956 183.892 110.17V110.217C183.892 113.668 186.281 116.22 189.617 116.22C191.131 116.22 192.48 115.842 193.544 115.086V112.392H189.357V108.8H197.59V117.023C195.626 118.654 192.953 120.001 189.499 120.001ZM212.731 112.132V119.67H208.567V112.202L201.28 100.741H206.154L210.673 108.327L215.262 100.741H219.994L212.731 112.132Z" fill="black"/>
<path d="M72.7477 49.0591C72.2509 52.3911 71.3046 55.6522 69.8142 58.8661C67.6377 63.7815 64.6095 68.5078 60.5403 72.4779C52.8752 80.229 41.4249 85.1444 29.7143 85.1444H0.0947266V68.1297H29.6906C36.6933 68.1297 43.4121 65.483 47.9544 60.7567C51.2428 57.4246 53.5376 53.36 54.7205 49.0591H72.7477ZM72.7477 36.0853C72.2509 32.7533 71.3046 29.4921 69.8142 26.2783C67.6377 21.3629 64.6095 16.6366 60.5403 12.6665C52.8752 4.91536 41.4249 0 29.6906 0H0.0947266V17.0147H29.6906C36.6933 17.0147 43.4121 19.6614 47.9544 24.3877C51.2428 27.7198 53.5376 31.7844 54.7205 36.0853H72.7477ZM109.914 56.7157L87.2973 85.1444H64.8697L98.724 42.584L64.8934 0H87.3209L109.938 28.4051L132.531 0H154.959L121.081 42.584L154.935 85.1444H132.507L109.914 56.7157ZM165.108 49.0591C166.291 53.36 168.585 57.4246 171.874 60.7567C176.416 65.483 183.135 68.1297 190.138 68.1297H219.734V85.1444H190.138C178.403 85.1444 166.953 80.229 159.312 72.4779C155.242 68.5078 152.214 63.7815 150.038 58.8661C148.547 55.6522 147.601 52.3911 147.104 49.0591H165.108ZM165.108 36.0853C166.291 31.7844 168.585 27.7198 171.874 24.3877C176.416 19.6614 183.135 17.0147 190.138 17.0147H219.734V0H190.138C178.403 0 166.953 4.91536 159.312 12.6665C155.242 16.6366 152.214 21.3629 150.038 26.2783C148.547 29.4921 147.601 32.7533 147.104 36.0853H165.108Z" fill="black"/>
</g>
<defs>
<clipPath id="clip0_135_416">
<rect width="220" height="120" fill="white"/>
</clipPath>
</defs>
</svg>
