<?xml version="1.0" encoding="UTF-8"?>
<svg id="layer" xmlns="http://www.w3.org/2000/svg" viewBox="0 0 350.3 143.58">
  <defs>
    <style>
      .cls-1 {
        fill: #666;
      }

      .cls-2 {
        fill: #9a9a9a;
      }

      .cls-3 {
        fill: #4d4d4d;
      }
    </style>
  </defs>
  <path class="cls-3" d="m126.7,89.08c-3.9-5.5-9-10.2-14.8-13.5-7.8-4.6-18.8-4.2-18.8-4.2-3.2,7.4-11.8,10.7-19.2,7.4-.1,0-.2-.1-.3-.1-8.5,11.1-7.7,20.4-7.6,21,.5,14.3,14.3,43.8,69.7,43.9.1-1.1,4.7-36.5-9-54.5"/>
  <path class="cls-2" d="m81.9,14.18C66.5-.82,38-6.42,1.5,9.88c.1.4,11,46.8,60,54.1h.1c1.1.1,2.3.2,3.7.3h0c.6-7.6,6.9-13.4,14.5-13.4,1.6,0,3.3.3,4.8.8,14.2-21.3-1-35.9-2.7-37.5Z"/>
  <path class="cls-1" d="m73.7,78.68h0c-5.1-2.4-8.4-7.5-8.4-13.1,0-.4,0-.8.1-1.2-2.5-.3-5-.4-7.5-.4-12.8.2-25.2,4.4-35.5,12.1C1.8,92.18,0,118.48,0,118.48c1.1.1,37.5,4.9,59.6-16.9,2.3-2.3,4.3-4.8,6-7.6,0,0,.6-.9,1.5-2.5h0c1.3-4.6,3.6-8.9,6.6-12.8h0Z"/>
  <path d="m313,33.88c-10.7,0-19.8,4.5-25.3,11.8v-3.6c0-4.6-3.7-8.2-8.3-8.2h0c-4.6,0-8.3,3.7-8.3,8.2v93.1c0,4.6,3.8,8.4,8.4,8.4h0c4.6,0,8.4-3.8,8.4-8.4v-32.8c6.5,7.1,15.7,11.1,25.3,10.9,18.8,0,37.1-14,37.1-39.9.1-26.3-19.4-39.5-37.3-39.5Zm-1.9,64.2c-11.5,0-23.2-8.3-23.2-24.9s11.5-24.3,23.1-24.3,22.8,7.9,22.8,24.4-11.1,24.8-22.7,24.8Z"/>
  <path d="m216.6,113.38c10.8,0,19.8-4.5,25.3-11.8v3.5c0,4.6,3.7,8.2,8.3,8.2h0c4.6,0,8.3-3.7,8.3-8.2V11.98c-.1-4.6-3.8-8.3-8.4-8.3h0c-4.6,0-8.4,3.7-8.4,8.4v32.7c-6.5-7-15.8-11-25.4-10.9-18.8,0-37.1,13.9-37.1,39.9s19.5,39.6,37.4,39.6Zm1.9-64.1c11.5,0,23.2,8.3,23.2,24.9s-11.5,24.3-23,24.3-22.8-7.9-22.8-24.4,11-24.8,22.6-24.8Z"/>
  <path d="m160.9.08c-6.5-.1-11.8,5-12,11.5v.5c-.1,6.5,5,11.8,11.5,12h.5c6.5.2,12-5,12.1-11.6v-.4c.1-6.5-5.2-11.9-11.7-12h-.4Z"/>
  <path d="m160.9,33.88h0c-4.6,0-8.4,3.8-8.4,8.4v63h0c.2,4.5,3.9,8.1,8.4,8.1h0c4.5,0,8.2-3.6,8.4-8.1h0v-.3h0v-62.7c0-4.6-3.8-8.3-8.4-8.4Z"/>
</svg>