<svg width="124" height="140" viewBox="0 0 124 140" fill="none" xmlns="http://www.w3.org/2000/svg">
<path d="M99.9447 0.874946C103.347 0.680501 106.75 0.777724 110.153 0.777724C114.236 0.777724 118.32 0.777724 122.403 0.777724C121.236 7.09717 120.07 13.5138 118.903 19.8333C118.417 22.1666 116.959 24.4999 114.82 25.6666C113.264 26.5416 111.32 26.7361 109.57 26.6388C102.472 26.6388 95.4724 26.6388 88.3752 26.6388C86.3336 38.3055 84.3891 50.0694 82.3474 61.7361C80.6947 71.3611 79.0419 80.8888 77.4863 90.5138C77.0974 92.3611 77.0002 94.3055 76.2224 96.0555C75.4447 97.7083 74.1808 99.2638 72.528 99.9444C70.9724 100.625 69.2224 100.819 67.5697 100.722C59.1113 100.722 50.653 100.722 42.1947 100.722C46.0836 81.3749 50.0697 61.9305 53.9586 42.5833C55.028 37.2361 56.0974 31.9861 57.1669 26.6388C46.7641 26.6388 36.2641 26.6388 25.8613 26.6388C27.1252 20.3194 28.2919 13.9999 29.5558 7.6805C30.0419 5.63883 31.1113 3.79161 32.7641 2.52772C34.3197 1.45828 36.1669 0.874946 38.1113 0.972168C45.5974 0.972168 53.0835 0.972168 60.4724 0.972168C67.5697 0.972168 74.6669 0.972168 81.6669 0.972168C87.7919 0.874946 93.8197 0.874946 99.9447 0.874946Z" fill="black"/>
<path d="M20.5134 35.1945C22.2634 35.0972 23.9162 34.9028 25.6662 35C35.4856 35.3889 45.1106 38.4028 53.8606 42.6806C49.8745 62.0278 45.9856 81.4722 42.0968 100.819C50.5551 100.819 59.0134 100.819 67.4718 100.819C69.1245 100.917 70.8745 100.722 72.4301 100.042C74.0829 99.2639 75.444 97.8056 76.1245 96.1528C76.9023 94.4028 77.0968 92.4583 77.3884 90.6111C79.0412 80.9861 80.694 71.4583 82.2495 61.8333C93.2356 71.6528 103.152 82.9306 109.861 96.1528C112.097 100.528 113.944 105.097 115.111 109.861C115.986 113.556 116.472 117.444 116.083 121.236C115.694 124.833 114.527 128.333 112.486 131.347C111.513 133 109.861 134.167 108.402 135.236C103.152 138.931 96.5412 140.097 90.319 139.611C83.8051 139.125 77.4856 137.181 71.3606 134.944C56.7773 129.5 43.3606 120.847 31.9856 110.25C21.8745 101.014 12.9301 90.2222 6.90232 77.875C4.18009 72.0417 1.84676 65.9167 1.26343 59.5C0.97176 56.4861 1.06898 53.4722 1.74954 50.5556C2.62454 47.0556 4.27732 43.6528 6.90232 41.2222C10.4995 37.625 15.5551 35.6806 20.5134 35.1945Z" fill="#A8A8A8"/>
</svg>
