<?xml version="1.0" encoding="UTF-8"?>
<svg id="Layer_1" data-name="Layer 1" xmlns="http://www.w3.org/2000/svg" viewBox="0 0 283.08 114.62">
  <defs>
    <style>
      .cls-1 {
        fill: #fff;
      }
    </style>
  </defs>
  <path d="m101.53,63.78c.58,27.85-23.41,50.86-50.73,50.84C23.29,114.6-.06,91.27,0,63.72.06,36.69,22.8,12.87,51.16,13.03c27.65.16,50.92,23.43,50.38,50.75Zm-51.96-24.54c-2.88-.05-5.27,2.27-5.37,5.22-.09,2.71,2.37,5.27,5.12,5.35,2.84.08,5.46-2.48,5.47-5.33.01-2.74-2.44-5.19-5.23-5.23Zm25.97,44.95c.04-2.82-2.31-5.26-5.11-5.32-2.83-.06-5.45,2.4-5.49,5.16-.04,2.81,2.46,5.4,5.24,5.41,2.87.02,5.32-2.38,5.36-5.25Zm-19.23-31.67c-2.96.03-5.22,2.37-5.17,5.34.05,2.88,2.4,5.18,5.25,5.13,2.9-.04,5.29-2.45,5.3-5.31,0-2.87-2.42-5.2-5.38-5.17Zm39.98-8.09c-.01-2.91-2.42-5.24-5.35-5.19-2.83.05-5.2,2.45-5.17,5.24.03,2.89,2.43,5.31,5.29,5.33,2.77.02,5.25-2.53,5.24-5.38Zm-19.05,31.7c2.95,0,5.25-2.35,5.23-5.3-.02-2.81-2.41-5.11-5.29-5.1-2.94.01-5.27,2.26-5.28,5.09,0,3.04,2.29,5.33,5.35,5.32Zm12.09-18.54c0-2.87-2.33-5.11-5.24-5.08-2.94.04-5.21,2.27-5.21,5.13,0,3,2.35,5.36,5.36,5.35,2.87,0,5.1-2.38,5.09-5.41Zm-26.05,18.53c3.05,0,5.33-2.28,5.31-5.32-.02-2.85-2.33-5.07-5.26-5.08-2.92-.01-5.17,2.2-5.19,5.11-.02,3.06,2.14,5.28,5.14,5.29Z"/>
  <path d="m196.5,52.66c-1.74,3.64-3.33,6.95-4.91,10.27-3.71,7.75-7.4,15.51-11.12,23.25-1.2,2.49-3.29,3.35-5.47,2.34-2.17-1-2.87-3.14-1.75-5.52,2.43-5.13,4.89-10.25,7.34-15.38,4-8.37,8-16.73,11.98-25.1.85-1.8,2-3.06,4.21-2.95,1.94.1,2.93,1.31,3.68,2.88,2.41,5.03,4.82,10.07,7.23,15.1,3.78,7.88,7.55,15.76,11.33,23.64.29.61.59,1.22.86,1.85,1.05,2.41.4,4.41-1.73,5.41-2.16,1.01-4.2.3-5.34-1.99-1.81-3.65-3.54-7.35-5.3-11.02-3.4-7.09-6.79-14.19-10.19-21.28-.18-.38-.41-.75-.83-1.49Z"/>
  <path d="m245.74,65.26c.08-8.44,2.25-15.35,8.2-20.67,6.61-5.92,18.21-6.41,25.36-1.16,2.39,1.75,3.25,3.66,2.54,5.65-.81,2.27-2.96,3.09-5.04,1.86-.75-.44-1.43-1-2.13-1.53-5.39-4.04-12.77-3.01-16.85,2.35-2.15,2.82-3.25,6.06-3.59,9.55-.5,5.06-.04,9.98,2.58,14.51,3.44,5.94,9.93,8.04,16.21,5.18,1.54-.7,3-1.6,4.52-2.36,2.08-1.03,3.75-.77,4.84.71,1.1,1.49.91,3.67-.56,5.19-2.25,2.33-5.16,3.41-8.25,4.05-6.83,1.4-13.42,1.06-19.09-3.54-4.95-4.02-7.46-9.46-8.37-15.68-.23-1.58-.29-3.18-.37-4.09Z"/>
  <path d="m139.45,67.11c0,5.93.05,11.85-.02,17.78-.04,3.06-2.33,4.81-5.05,3.81-.96-.36-1.8-1.37-2.38-2.29-.4-.62-.32-1.6-.32-2.41-.02-11.46-.04-22.93.02-34.39,0-1.44-.43-1.82-1.81-1.76-2.38.11-4.77.07-7.15.01-2.56-.06-4.08-1.27-4.26-3.28-.24-2.69,1.31-4.31,4.23-4.31,8.56-.02,17.12,0,25.68,0,.43,0,.88.02,1.3.11,2.3.47,3.5,2.39,2.94,4.67-.38,1.54-1.37,2.54-2.93,2.63-2.81.17-5.63.23-8.45.17-1.4-.03-1.84.37-1.83,1.79.07,5.83.03,11.66.03,17.49,0,0,0,0-.01,0Z"/>
  <path d="m116.62,4.75c.02,2.83-2.01,4.99-4.73,5.01-2.8.03-5.05-2.15-5.08-4.91C106.79,2.21,109.03.02,111.78,0c2.69-.02,4.83,2.07,4.84,4.75Z"/>
  <path d="m93.08,31.22c0-2.71,2.14-4.79,4.96-4.78,2.7,0,4.79,2.07,4.81,4.78.03,2.69-2.18,5-4.8,5.04-2.69.03-4.97-2.27-4.98-5.03Z"/>
  <path d="m104.93,22.92c-2.78,0-4.89-2.09-4.91-4.86-.02-2.76,2.25-4.99,5.03-4.94,2.6.05,4.82,2.32,4.79,4.9-.03,2.75-2.18,4.9-4.91,4.89Z"/>
  <path class="cls-1" d="m49.58,39.24c2.79.05,5.24,2.5,5.23,5.23-.01,2.85-2.64,5.41-5.47,5.33-2.76-.07-5.21-2.64-5.12-5.35.1-2.95,2.48-5.27,5.37-5.22Z"/>
  <path class="cls-1" d="m75.55,84.19c-.04,2.87-2.5,5.27-5.36,5.25-2.77-.02-5.28-2.61-5.24-5.41.04-2.75,2.66-5.22,5.49-5.16,2.8.06,5.15,2.5,5.11,5.32Z"/>
  <path class="cls-1" d="m56.32,52.51c2.95-.03,5.38,2.3,5.38,5.17,0,2.86-2.4,5.26-5.3,5.31-2.85.04-5.19-2.25-5.25-5.13-.06-2.97,2.21-5.31,5.17-5.34Z"/>
  <path class="cls-1" d="m96.3,44.42c.01,2.85-2.47,5.4-5.24,5.38-2.86-.02-5.26-2.44-5.29-5.33-.03-2.79,2.34-5.19,5.17-5.24,2.93-.05,5.34,2.28,5.35,5.19Z"/>
  <path class="cls-1" d="m77.25,76.12c-3.06.01-5.36-2.28-5.35-5.32,0-2.83,2.34-5.08,5.28-5.09,2.88-.01,5.27,2.29,5.29,5.1.03,2.95-2.28,5.29-5.23,5.3Z"/>
  <path class="cls-1" d="m89.34,57.58c0,3.03-2.22,5.4-5.09,5.41-3.01,0-5.36-2.34-5.36-5.35,0-2.86,2.27-5.1,5.21-5.13,2.92-.04,5.23,2.21,5.24,5.08Z"/>
  <path class="cls-1" d="m63.29,76.12c-2.99,0-5.15-2.23-5.14-5.29.01-2.91,2.26-5.12,5.19-5.11,2.94.01,5.24,2.24,5.26,5.08.02,3.04-2.26,5.33-5.31,5.32Z"/>
</svg>